<svg width="295" height="262" viewBox="0 0 295 262" fill="none" xmlns="http://www.w3.org/2000/svg">
<path d="M147.462 27.507L147.486 27.5344L147.522 27.4947L147.566 27.5379L147.916 27.1671C148.643 26.397 149.379 25.6354 150.138 24.8889C183.203 -7.62965 236.816 -7.62964 269.88 24.8889C302.92 57.3834 300.77 107.971 269.857 142.655C232.64 184.414 191.049 224.257 147.5 261.347C103.95 224.257 62.3603 184.414 25.1424 142.655C-5.76979 107.971 -7.92001 57.3834 25.1197 24.8889C58.1843 -7.62964 111.797 -7.62965 144.862 24.8889C145.621 25.6353 146.357 26.3969 147.083 27.167L147.432 27.5365L147.462 27.507Z" fill="#007A8F" stroke="#007A8F"/>
<path d="M54.3441 222.011C51.0823 222.011 48.1114 220.663 45.9531 218.49L45.9469 218.496C43.7947 216.328 42.4582 213.334 42.4582 210.039V148.477C41.2856 149.051 39.9703 149.374 38.5834 149.374C36.1276 149.374 33.898 148.364 32.2845 146.739C30.6711 145.113 29.6687 142.868 29.6687 140.396V93.5416L29.6291 93.004C29.6104 92.6623 29.6 92.4011 29.6 92.2305V86.4444C29.6 82.6171 31.153 79.1383 33.6538 76.6195C36.1546 74.1007 39.6085 72.5364 43.4084 72.5364H60.734C58.3746 71.6949 56.259 70.332 54.5243 68.5848L54.5132 68.5736C51.5042 65.5422 49.6418 61.3577 49.6418 56.7402C49.6418 52.1228 51.5042 47.9383 54.5132 44.9072L54.5243 44.896C57.5337 41.8653 61.6882 39.9895 66.2726 39.9895C70.8569 39.9895 75.0115 41.8653 78.0208 44.896L78.0323 44.9072C81.041 47.9383 82.9037 52.1228 82.9037 56.7402C82.9037 61.3577 81.041 65.5422 78.0323 68.5736L78.0208 68.5848C76.2861 70.332 74.1705 71.6949 71.8115 72.5364H88.4933C90.7153 72.5364 92.5457 73.4004 94.0344 74.7237C95.655 76.1652 96.7912 78.1399 97.5472 80.024L118.781 132.961H136.117C135.683 132.617 135.27 132.248 134.881 131.856L134.887 131.85C132.372 129.314 130.815 125.821 130.815 121.971C130.815 118.111 132.369 114.617 134.881 112.086H134.892C137.404 109.557 140.872 107.992 144.695 107.992C148.527 107.992 151.997 109.557 154.509 112.087C157.02 114.616 158.574 118.111 158.574 121.971C158.574 125.822 157.02 129.314 154.509 131.844V131.856C154.12 132.248 153.707 132.617 153.274 132.961H168.366L189.6 80.024C190.356 78.1399 191.492 76.1652 193.113 74.7237C194.602 73.4004 196.433 72.5364 198.654 72.5364H209.815C207.455 71.6949 205.34 70.332 203.605 68.5848L203.594 68.5736C200.585 65.5422 198.723 61.3577 198.723 56.7402C198.723 52.1228 200.585 47.9383 203.594 44.9072L203.605 44.896C206.614 41.8653 210.769 39.9895 215.353 39.9895C219.938 39.9895 224.092 41.8653 227.102 44.896L227.113 44.9072C230.122 47.9383 231.984 52.1228 231.984 56.7402C231.984 61.3577 230.122 65.5422 227.113 68.5736L227.102 68.5848C225.367 70.332 223.251 71.6949 220.892 72.5364H232.169C234.391 72.5364 236.222 73.4004 237.71 74.7237C239.331 76.1652 240.467 78.1399 241.223 80.024L263.343 135.168C264.307 137.572 264.208 140.158 263.27 142.384C262.333 144.607 260.552 146.475 258.153 147.451L257.607 147.673H257.547C255.336 148.4 253.012 148.243 250.988 147.377C248.782 146.433 246.927 144.639 245.958 142.226L243.643 136.453C246.07 145.564 247.838 152.448 247.838 152.89C247.838 155.314 246.853 157.522 245.262 159.128L245.251 159.139C243.657 160.741 241.465 161.733 239.058 161.733H235.318V210.716C235.318 213.756 234.081 216.522 232.091 218.527L232.079 218.539C230.089 220.543 227.342 221.789 224.324 221.789C221.296 221.789 218.546 220.543 216.556 218.539C215.967 217.946 215.444 217.286 215 216.571C214.548 217.305 214.014 217.984 213.41 218.592L213.399 218.603C211.408 220.608 208.661 221.854 205.643 221.854C202.616 221.854 199.866 220.608 197.876 218.603C195.885 216.598 194.649 213.828 194.649 210.781V161.733H190.958C188.549 161.733 186.354 160.739 184.759 159.133L184.753 159.139C183.165 157.539 182.178 155.328 182.178 152.89C182.178 152.555 183.098 148.876 184.522 143.432C184.099 144.555 183.414 145.509 182.547 146.296C181.286 147.439 179.641 148.2 177.909 148.574L160.203 152.391V213.263C160.203 215.563 159.268 217.654 157.762 219.172V219.183C156.256 220.7 154.175 221.642 151.884 221.642C149.592 221.642 147.511 220.7 146.005 219.183V219.172C145.462 218.624 144.993 218.002 144.615 217.323C144.237 218.007 143.766 218.634 143.22 219.183C141.714 220.7 139.633 221.642 137.342 221.642C135.051 221.642 132.969 220.7 131.463 219.183C129.957 217.666 129.022 215.571 129.022 213.263V152.208L110.216 148.585C109.361 148.421 108.53 148.155 107.76 147.796C107.007 147.444 106.31 147.006 105.702 146.484C104.982 145.993 104.333 145.411 103.782 144.75C103.173 144.018 102.662 143.171 102.282 142.224L88.4969 107.859V210.04C88.4969 213.335 87.1604 216.328 85.0081 218.496L85.002 218.49C82.8436 220.663 79.8727 222.011 76.612 222.011C73.3498 222.011 70.3793 220.663 68.2205 218.49L68.2148 218.496C67.0221 217.295 66.0809 215.841 65.4773 214.222C64.8742 215.841 63.9322 217.296 62.7403 218.496L62.7341 218.49C60.5758 220.663 57.6049 222.011 54.3441 222.011ZM54.3431 216.025C55.9828 216.025 57.4679 215.354 58.5386 214.276V214.264C59.6165 213.179 60.2866 211.682 60.2866 210.039V145.421H70.6684V210.04C70.6684 211.682 71.3382 213.179 72.4164 214.264V214.276C73.4872 215.354 74.9723 216.025 76.6109 216.025C78.2503 216.025 79.7354 215.354 80.8064 214.276V214.264C81.8844 213.179 82.5541 211.682 82.5541 210.04V94.3903L82.6357 94.0415C82.6951 93.7864 82.7361 93.5912 82.7551 93.4648V93.4535C82.7753 93.3217 82.7965 93.1278 82.817 92.8754L83.8284 80.2863L107.784 140.003C107.917 140.334 108.104 140.642 108.332 140.915C108.575 141.207 108.846 141.447 109.13 141.626L109.4 141.796L109.525 141.906C109.731 142.09 109.977 142.247 110.245 142.371C110.575 142.526 110.943 142.643 111.331 142.717L134.964 147.27V213.263C134.964 213.918 135.233 214.516 135.665 214.951C136.096 215.385 136.69 215.656 137.341 215.656C137.993 215.656 138.587 215.385 139.019 214.951C139.45 214.516 139.719 213.918 139.719 213.263V175.362H149.507V213.263C149.507 213.923 149.773 214.523 150.201 214.957L150.206 214.951C150.638 215.386 151.232 215.657 151.883 215.657C152.535 215.657 153.129 215.386 153.561 214.951L153.566 214.957C153.994 214.523 154.261 213.923 154.261 213.263V147.561L176.678 142.728C177.439 142.565 178.117 142.27 178.577 141.853C178.841 141.613 179.022 141.327 179.062 141.011L179.119 140.561C186.44 124.158 192.628 106.324 199.575 89.6186L205.135 91.6991C203.784 95.6666 200.624 106.769 197.391 118.471C192.838 134.948 188.121 152.478 188.121 152.89C188.121 153.675 188.441 154.39 188.955 154.907V154.919C189.462 155.43 190.171 155.747 190.958 155.747H200.591V210.781C200.591 212.177 201.161 213.448 202.077 214.371C202.994 215.295 204.256 215.868 205.642 215.868C207.033 215.868 208.298 215.296 209.214 214.377C210.127 213.455 210.694 212.181 210.694 210.781V155.747H219.272V210.716C219.272 212.112 219.841 213.384 220.758 214.307C221.674 215.23 222.937 215.803 224.322 215.803C225.714 215.803 226.979 215.232 227.895 214.312C228.807 213.39 229.375 212.116 229.375 210.716V155.747H239.058C239.845 155.747 240.554 155.43 241.061 154.919L241.072 154.907C241.58 154.397 241.895 153.683 241.895 152.89C241.895 152.388 235.97 130.432 230.985 112.577C227.756 101.009 225.028 91.4089 224.826 91.164L220.783 86.2655H229.903L251.459 140.002C251.811 140.879 252.493 141.534 253.31 141.882C254.105 142.223 255.029 142.265 255.891 141.932L256.376 141.688H256.396C257.041 141.304 257.53 140.72 257.814 140.046C258.159 139.227 258.196 138.273 257.841 137.389L235.721 82.2447C235.258 81.0884 234.615 79.9251 233.787 79.189C233.333 78.7855 232.794 78.5221 232.169 78.5221H198.654C198.028 78.5221 197.49 78.7862 197.036 79.189C196.208 79.9259 195.566 81.0884 195.102 82.2447L172.357 138.947H114.79L92.0454 82.2447C91.5818 81.0884 90.939 79.9251 90.1111 79.189C89.6572 78.7855 89.1188 78.5221 88.4933 78.5221H43.4084C41.2482 78.5221 39.2816 79.4147 37.8555 80.8511C36.429 82.2878 35.5428 84.2683 35.5428 86.4444L35.5482 92.6772L35.6043 93.2601L35.6 93.5408H35.6111V140.396C35.6111 141.216 35.9471 141.964 36.4862 142.507C37.025 143.05 37.7681 143.388 38.582 143.388C39.3974 143.388 40.1404 143.05 40.6792 142.507C41.2184 141.964 41.5539 141.216 41.5539 140.396V100.153H48.401V210.039C48.401 211.682 49.0707 213.179 50.1486 214.264V214.276C51.2193 215.354 52.7048 216.025 54.3431 216.025ZM150.307 116.319C148.872 114.873 146.887 113.977 144.695 113.977C142.499 113.977 140.513 114.87 139.078 116.313L139.083 116.318C137.647 117.764 136.758 119.764 136.758 121.971C136.758 124.187 137.643 126.186 139.071 127.624H139.083C140.519 129.07 142.503 129.966 144.695 129.966C146.887 129.966 148.872 129.07 150.307 127.624L150.313 127.63C151.745 126.184 152.632 124.183 152.632 121.971C152.632 119.764 151.743 117.764 150.307 116.319ZM222.917 49.1222C220.984 47.1783 218.309 45.9752 215.353 45.9752C212.398 45.9752 209.723 47.1783 207.79 49.1222C205.86 51.0693 204.665 53.7631 204.665 56.7402C204.665 59.7177 205.86 62.4111 207.79 64.3583C209.723 66.3026 212.398 67.5056 215.353 67.5056C218.309 67.5056 220.984 66.3026 222.917 64.3583C224.847 62.4111 226.042 59.7177 226.042 56.7402C226.042 53.7631 224.847 51.0693 222.917 49.1222ZM73.8361 49.1222C71.9028 47.1783 69.2287 45.9752 66.2726 45.9752C63.3168 45.9752 60.6423 47.1783 58.7091 49.1222C56.7791 51.0693 55.5846 53.7631 55.5846 56.7402C55.5846 59.7177 56.7791 62.4111 58.7091 64.3583C60.6423 66.3026 63.3168 67.5056 66.2726 67.5056C69.2287 67.5056 71.9028 66.3026 73.8361 64.3583C75.7664 62.4111 76.9609 59.7177 76.9609 56.7402C76.9609 53.7631 75.7664 51.0693 73.8361 49.1222Z" fill="#FEFEFE"/>
<path fill-rule="evenodd" clip-rule="evenodd" d="M54.1706 219.253H54.1695C49.2574 219.253 45.2394 215.202 45.2394 210.25V103.071H44.3339V140.421C44.3339 143.722 41.6552 146.422 38.3808 146.422H38.3794C35.105 146.422 32.4263 143.722 32.4263 140.421V93.4409L32.4274 93.3563C32.3824 92.9531 32.3579 92.5427 32.3579 92.1271V86.3256C32.3579 80.3058 37.2429 75.3815 43.2147 75.3815H73.715H74.8395H88.3826C91.6072 75.3815 93.6006 78.2659 94.6974 81.0014L116.727 135.967H131.963H157.248H170.402L192.432 81.0014C193.528 78.2659 195.522 75.3815 198.746 75.3815H213.414H213.449H217.62H217.656H231.465H232.323C235.548 75.3815 237.541 78.2659 238.638 81.0014L260.798 136.292C262.121 139.592 260.525 143.383 257.25 144.717H257.25C253.976 146.05 250.216 144.441 248.893 141.14L228.054 89.1468H227.246C228.531 90.7044 245.043 151.85 245.043 152.949C245.043 156.179 242.429 158.814 239.225 158.814H232.501V210.929C232.501 215.385 228.884 219.031 224.464 219.031H224.462C220.042 219.031 216.425 215.385 216.425 210.929V158.814H213.786V210.994C213.786 215.45 210.169 219.095 205.748 219.095H205.747C201.327 219.095 197.71 215.45 197.71 210.994V158.814H191.036C187.831 158.814 185.217 156.179 185.217 152.949C185.217 151.939 199.179 100.159 202.425 90.6215L182.177 141.14C182.139 141.233 182.101 141.323 182.06 141.413C181.764 143.741 179.709 145.181 177.346 145.69L157.248 150.027V174.85V178.482V213.483C157.248 216.453 154.838 218.884 151.89 218.884H151.889C148.942 218.884 146.531 216.453 146.531 213.483V178.482H142.679V213.483C142.679 216.453 140.269 218.883 137.321 218.883H137.32C134.373 218.883 131.963 216.453 131.963 213.483V178.482V174.85V149.789L110.704 145.69C109.479 145.454 108.341 144.945 107.487 144.186C106.381 143.488 105.476 142.446 104.952 141.14L85.6607 93.0083C85.616 93.5586 85.5313 94.098 85.4095 94.6229V210.251C85.4095 215.201 81.3911 219.253 76.4794 219.253H76.4783C71.5663 219.253 67.5482 215.201 67.5482 210.251V148.46H63.1007V210.25C63.1007 215.202 59.0826 219.253 54.1706 219.253ZM144.688 110.931C150.723 110.931 155.616 115.864 155.616 121.947C155.616 128.031 150.723 132.964 144.688 132.964C138.653 132.964 133.759 128.031 133.759 121.947C133.759 115.864 138.653 110.931 144.688 110.931ZM215.476 42.7473C223.034 42.7473 229.161 48.9237 229.161 56.5421C229.161 64.1605 223.034 70.3369 215.476 70.3369C207.919 70.3369 201.792 64.1605 201.792 56.5421C201.792 48.9237 207.919 42.7473 215.476 42.7473ZM66.121 42.7473C73.6786 42.7473 79.8056 48.9237 79.8056 56.5421C79.8056 64.1605 73.6786 70.3369 66.121 70.3369C58.5634 70.3369 52.4363 64.1605 52.4363 56.5421C52.4363 48.9237 58.5634 42.7473 66.121 42.7473Z" fill="#EF7F1A"/>
</svg>
