<svg width="22" height="22" viewBox="0 0 22 22" fill="none" xmlns="http://www.w3.org/2000/svg">
<path fill-rule="evenodd" clip-rule="evenodd" d="M0.25 9.88894C0.25 4.56552 4.56537 0.25 9.8887 0.25C15.212 0.25 19.5274 4.56552 19.5274 9.88894C19.5274 12.2805 18.6564 14.4687 17.2143 16.1535L21.5303 20.4697C21.8232 20.7626 21.8232 21.2374 21.5303 21.5303C21.2374 21.8232 20.7626 21.8232 20.4697 21.5303L16.1537 17.2143C14.4689 18.6567 12.2805 19.5279 9.8887 19.5279C4.56537 19.5279 0.25 15.2124 0.25 9.88894ZM15.7285 15.5579C15.6963 15.5811 15.6655 15.6073 15.6364 15.6363C15.6074 15.6654 15.5812 15.6962 15.5579 15.7285C14.0924 17.1516 12.0929 18.0279 9.8887 18.0279C5.39384 18.0279 1.75 14.384 1.75 9.88894C1.75 5.39391 5.39384 1.75 9.8887 1.75C14.3836 1.75 18.0274 5.39391 18.0274 9.88894C18.0274 12.0929 17.1514 14.0923 15.7285 15.5579Z" fill="#0E3449"/>
</svg>
