<svg width="23" height="22" viewBox="0 0 23 22" xmlns="http://www.w3.org/2000/svg">
<path id="star-inner" d="M11.413 17.76L4.36 21.708L5.935 13.78L0 8.292L8.027 7.34L11.413 0L14.799 7.34L22.826 8.292L16.891 13.78L18.466 21.708L11.413 17.76Z"/>
<path d="M11.413 17.76L4.36 21.708L5.935 13.78L0 8.292L8.027 7.34L11.413 0L14.799 7.34L22.826 8.292L16.891 13.78L18.466 21.708L11.413 17.76ZM11.413 15.468L15.66 17.845L14.711 13.072L18.284 9.767L13.451 9.194L11.413 4.775L9.375 9.195L4.542 9.767L8.115 13.072L7.166 17.845L11.413 15.468V15.468Z" fill="#EF7F1A"/>
</svg>
