<svg width="258" height="38" viewBox="0 0 258 38" fill="none" xmlns="http://www.w3.org/2000/svg">
<path d="M21.0118 4.38296L20.8815 4.24461C20.7786 4.1354 20.676 4.02911 20.5712 3.92586C15.9525 -0.62309 8.46107 -0.623071 3.84249 3.92591C-0.751689 8.4509 -0.481585 15.5209 3.86514 20.4051C9.15719 26.3516 15.064 32.0316 21.2531 37.3292C27.4422 32.0316 33.349 26.3516 38.641 20.4051L39.0145 20.7375L38.641 20.4051C42.9878 15.5209 43.2578 8.45091 38.6637 3.9259C34.0452 -0.623039 26.5538 -0.623093 21.935 3.92577L21.0118 4.38296ZM21.0118 4.38296L21.2389 4.64852L21.2714 4.61322M21.0118 4.38296L21.2714 4.61322M21.2714 4.61322L21.2745 4.61623L21.6246 4.2447C21.7275 4.13547 21.8301 4.02918 21.9349 3.92591L21.2714 4.61322Z" fill="#007A8F" stroke="#007A8F"/>
<path d="M7.89023 32.2248C7.41887 32.2248 6.98955 32.0289 6.67764 31.7133L6.67675 31.7141C6.36573 31.3991 6.17259 30.9639 6.17259 30.4852V21.5397C6.00315 21.6231 5.81307 21.67 5.61265 21.67C5.25776 21.67 4.93556 21.5232 4.7024 21.2871C4.46924 21.0509 4.32438 20.7246 4.32438 20.3654V13.557L4.31866 13.4789C4.31596 13.4293 4.31445 13.3913 4.31445 13.3665V12.5257C4.31445 11.9696 4.53888 11.4641 4.90027 11.0981C5.26166 10.7321 5.76078 10.5048 6.30991 10.5048H8.81364C8.47268 10.3825 8.16695 10.1844 7.91627 9.93056L7.91466 9.92893C7.47983 9.48844 7.2107 8.88039 7.2107 8.20943C7.2107 7.53848 7.47983 6.93043 7.91466 6.48998L7.91627 6.48835C8.35116 6.04796 8.95153 5.77539 9.61401 5.77539C10.2765 5.77539 10.8769 6.04796 11.3118 6.48835L11.3134 6.48998C11.7482 6.93043 12.0174 7.53848 12.0174 8.20943C12.0174 8.88039 11.7482 9.48844 11.3134 9.92893L11.3118 9.93056C11.0611 10.1844 10.7554 10.3825 10.4144 10.5048H12.8251C13.1462 10.5048 13.4107 10.6303 13.6259 10.8226C13.8601 11.0321 14.0243 11.319 14.1335 11.5928L17.2021 19.285H19.7072C19.6446 19.2351 19.5849 19.1814 19.5287 19.1244L19.5295 19.1236C19.166 18.7552 18.9411 18.2475 18.9411 17.6881C18.9411 17.1272 19.1657 16.6194 19.5287 16.2517H19.5303C19.8933 15.8842 20.3943 15.6567 20.9469 15.6567C21.5006 15.6567 22.0021 15.8842 22.3651 16.2518C22.7279 16.6193 22.9526 17.1272 22.9526 17.6881C22.9526 18.2477 22.7279 18.7552 22.3651 19.1228V19.1244C22.3089 19.1814 22.2491 19.2351 22.1866 19.285H24.3676L27.4361 11.5928C27.5454 11.319 27.7096 11.0321 27.9438 10.8226C28.1589 10.6303 28.4234 10.5048 28.7445 10.5048H30.3573C30.0163 10.3825 29.7106 10.1844 29.4599 9.93056L29.4583 9.92893C29.0235 9.48844 28.7544 8.88039 28.7544 8.20943C28.7544 7.53848 29.0235 6.93043 29.4583 6.48998L29.4599 6.48835C29.8948 6.04796 30.4952 5.77539 31.1577 5.77539C31.8202 5.77539 32.4205 6.04796 32.8555 6.48835L32.8571 6.48998C33.2919 6.93043 33.561 7.53848 33.561 8.20943C33.561 8.88039 33.2919 9.48844 32.8571 9.92893L32.8555 9.93056C32.6047 10.1844 32.299 10.3825 31.9581 10.5048H33.5878C33.9089 10.5048 34.1734 10.6303 34.3885 10.8226C34.6227 11.0321 34.7869 11.319 34.8961 11.5928L38.0927 19.6057C38.232 19.9551 38.2176 20.3308 38.0821 20.6543C37.9467 20.9773 37.6893 21.2488 37.3427 21.3905L37.2638 21.4228H37.2551C36.9355 21.5284 36.5997 21.5056 36.3073 21.3799C35.9884 21.2426 35.7204 20.9819 35.5804 20.6313L35.2458 19.7924C35.5966 21.1163 35.852 22.1167 35.852 22.1809C35.852 22.5332 35.7097 22.8539 35.4798 23.0874L35.4782 23.089C35.2478 23.3217 34.9311 23.4658 34.5833 23.4658H34.0428V30.5836C34.0428 31.0253 33.864 31.4273 33.5764 31.7186L33.5748 31.7203C33.2871 32.0116 32.8901 32.1926 32.4541 32.1926C32.0165 32.1926 31.6191 32.0116 31.3315 31.7203C31.2464 31.6341 31.1708 31.5382 31.1066 31.4343C31.0413 31.541 30.9641 31.6397 30.8769 31.7281L30.8752 31.7297C30.5876 32.021 30.1906 32.202 29.7545 32.202C29.317 32.202 28.9196 32.021 28.632 31.7297C28.3443 31.4383 28.1656 31.0358 28.1656 30.593V23.4658H27.6323C27.2842 23.4658 26.967 23.3214 26.7365 23.0881L26.7357 23.089C26.5061 22.8565 26.3635 22.5351 26.3635 22.1809C26.3635 22.1323 26.4965 21.5977 26.7023 20.8066C26.6411 20.9697 26.5421 21.1084 26.4168 21.2227C26.2346 21.3888 25.9968 21.4995 25.7465 21.5537L23.188 22.1084V30.9537C23.188 31.2878 23.0528 31.5917 22.8352 31.8123V31.814C22.6176 32.0344 22.3168 32.1713 21.9858 32.1713C21.6546 32.1713 21.3537 32.0344 21.1362 31.814V31.8123C21.0576 31.7328 20.9899 31.6424 20.9353 31.5437C20.8807 31.6431 20.8126 31.7341 20.7337 31.8139C20.5161 32.0343 20.2153 32.1712 19.8843 32.1712C19.5531 32.1712 19.2523 32.0343 19.0347 31.8139C18.8171 31.5935 18.6819 31.289 18.6819 30.9537V22.0819L15.9643 21.5554C15.8407 21.5315 15.7207 21.4929 15.6094 21.4407C15.5005 21.3896 15.3998 21.3258 15.312 21.25C15.2079 21.1787 15.1141 21.0941 15.0345 20.9981C14.9465 20.8917 14.8726 20.7686 14.8177 20.631L12.8257 15.6375V30.4853C12.8257 30.9641 12.6325 31.3991 12.3215 31.7141L12.3206 31.7133C12.0087 32.0289 11.5794 32.2248 11.1082 32.2248C10.6367 32.2248 10.2075 32.0289 9.89551 31.7133L9.89468 31.7141C9.72233 31.5396 9.58631 31.3283 9.49909 31.093C9.41193 31.3283 9.27581 31.5397 9.10356 31.7141L9.10267 31.7133C8.79077 32.0289 8.36145 32.2248 7.89023 32.2248ZM7.89008 31.355C8.12704 31.355 8.34164 31.2576 8.49638 31.1009V31.0992C8.65215 30.9414 8.74898 30.724 8.74898 30.4852V21.0955H10.2493V30.4853C10.2493 30.724 10.346 30.9414 10.5019 31.0992V31.1009C10.6566 31.2576 10.8712 31.355 11.108 31.355C11.3449 31.355 11.5595 31.2576 11.7143 31.1009V31.0992C11.8701 30.9414 11.9669 30.724 11.9669 30.4853V13.6804L11.9787 13.6297C11.9872 13.5926 11.9932 13.5642 11.9959 13.5459V13.5442C11.9988 13.5251 12.0019 13.4969 12.0048 13.4602L12.151 11.6309L15.6128 20.3083C15.632 20.3565 15.6591 20.4011 15.692 20.4409C15.7271 20.4832 15.7663 20.5181 15.8073 20.5441L15.8464 20.5689L15.8644 20.5849C15.8943 20.6116 15.9297 20.6343 15.9684 20.6525C16.0162 20.6749 16.0694 20.6919 16.1254 20.7026L19.5407 21.3642V30.9537C19.5407 31.0489 19.5795 31.1358 19.6419 31.199C19.7042 31.2621 19.7901 31.3014 19.8841 31.3014C19.9783 31.3014 20.0642 31.2621 20.1265 31.199C20.1889 31.1358 20.2277 31.0489 20.2277 30.9537V25.4463H21.6422V30.9537C21.6422 31.0495 21.6806 31.1367 21.7425 31.1998L21.7433 31.199C21.8057 31.2622 21.8915 31.3015 21.9856 31.3015C22.0798 31.3015 22.1657 31.2622 22.228 31.199L22.2288 31.1998C22.2907 31.1367 22.3292 31.0495 22.3292 30.9537V21.4066L25.5687 20.7043C25.6787 20.6806 25.7767 20.6377 25.8431 20.5771C25.8814 20.5423 25.9074 20.5008 25.9132 20.4548L25.9214 20.3894C26.9794 18.0058 27.8736 15.4144 28.8775 12.987L29.681 13.2893C29.4858 13.8658 29.0292 15.479 28.5619 17.1795C27.9041 19.5737 27.2223 22.1211 27.2223 22.1809C27.2223 22.295 27.2685 22.3988 27.3428 22.474V22.4757C27.4161 22.55 27.5187 22.5961 27.6323 22.5961H29.0244V30.593C29.0244 30.7958 29.1067 30.9806 29.2392 31.1148C29.3716 31.2489 29.554 31.3322 29.7542 31.3322C29.9554 31.3322 30.1381 31.2491 30.2705 31.1155C30.4024 30.9815 30.4844 30.7964 30.4844 30.593V22.5961H31.724V30.5836C31.724 30.7864 31.8062 30.9713 31.9387 31.1054C32.0711 31.2395 32.2535 31.3228 32.4538 31.3228C32.6549 31.3228 32.8377 31.2398 32.97 31.1062C33.1019 30.9721 33.184 30.787 33.184 30.5836V22.5961H34.5833C34.697 22.5961 34.7994 22.55 34.8727 22.4757L34.8743 22.474C34.9477 22.3999 34.9932 22.2961 34.9932 22.1809C34.9932 22.108 34.137 18.9175 33.4167 16.3231C32.95 14.6421 32.5558 13.2471 32.5266 13.2115L31.9424 12.4997H33.2603L36.3754 20.3082C36.4262 20.4355 36.5248 20.5307 36.6427 20.5814C36.7577 20.6308 36.8912 20.637 37.0158 20.5886L37.0859 20.5531H37.0887C37.182 20.4974 37.2527 20.4125 37.2937 20.3146C37.3436 20.1955 37.3488 20.0569 37.2976 19.9284L34.101 11.9155C34.0341 11.7474 33.9411 11.5784 33.8215 11.4715C33.7559 11.4128 33.6781 11.3745 33.5878 11.3745H28.7445C28.6541 11.3745 28.5763 11.4129 28.5107 11.4715C28.391 11.5785 28.2982 11.7474 28.2312 11.9155L24.9443 20.1548H16.6252L13.3384 11.9155C13.2714 11.7474 13.1786 11.5784 13.0589 11.4715C12.9933 11.4128 12.9155 11.3745 12.8251 11.3745H6.30991C5.99774 11.3745 5.71354 11.5042 5.50745 11.713C5.30132 11.9217 5.17325 12.2095 5.17325 12.5257L5.17403 13.4314L5.18214 13.5161L5.18151 13.5569H5.18313V20.3654C5.18313 20.4845 5.23167 20.5933 5.30958 20.6722C5.38744 20.751 5.49482 20.8002 5.61245 20.8002C5.73027 20.8002 5.83766 20.751 5.91552 20.6722C5.99343 20.5933 6.04192 20.4845 6.04192 20.3654V14.5176H7.03139V30.4852C7.03139 30.724 7.12817 30.9414 7.28394 31.0992V31.1009C7.43867 31.2576 7.65333 31.355 7.89008 31.355ZM21.7579 16.8668C21.5504 16.6566 21.2636 16.5265 20.9469 16.5265C20.6296 16.5265 20.3424 16.6563 20.1351 16.8659L20.1358 16.8667C19.9284 17.0768 19.7999 17.3673 19.7999 17.6881C19.7999 18.01 19.9277 18.3005 20.1342 18.5095H20.1358C20.3433 18.7197 20.6301 18.8498 20.9469 18.8498C21.2636 18.8498 21.5504 18.7197 21.7579 18.5095L21.7587 18.5103C21.9657 18.3002 22.0938 18.0095 22.0938 17.6881C22.0938 17.3673 21.9653 17.0768 21.7579 16.8668ZM32.2507 7.10246C31.9713 6.81999 31.5849 6.64517 31.1577 6.64517C30.7305 6.64517 30.3441 6.81999 30.0647 7.10246C29.7858 7.3854 29.6132 7.77683 29.6132 8.20943C29.6132 8.64208 29.7858 9.03346 30.0647 9.31641C30.3441 9.59893 30.7305 9.77375 31.1577 9.77375C31.5849 9.77375 31.9713 9.59893 32.2507 9.31641C32.5296 9.03346 32.7023 8.64208 32.7023 8.20943C32.7023 7.77683 32.5296 7.3854 32.2507 7.10246ZM10.707 7.10246C10.4276 6.81999 10.0412 6.64517 9.61401 6.64517C9.18688 6.64517 8.80038 6.81999 8.52101 7.10246C8.24211 7.3854 8.0695 7.77683 8.0695 8.20943C8.0695 8.64208 8.24211 9.03346 8.52101 9.31641C8.80038 9.59893 9.18688 9.77375 9.61401 9.77375C10.0412 9.77375 10.4276 9.59893 10.707 9.31641C10.986 9.03346 11.1586 8.64208 11.1586 8.20943C11.1586 7.77683 10.986 7.3854 10.707 7.10246Z" fill="#FEFEFE"/>
<path fill-rule="evenodd" clip-rule="evenodd" d="M7.8905 31.7901H7.89034C7.18181 31.7901 6.60223 31.2031 6.60223 30.4854V14.9528H6.47161V20.3656C6.47161 20.8439 6.08522 21.2352 5.61292 21.2352H5.61271C5.1404 21.2352 4.75402 20.8439 4.75402 20.3656V13.5571L4.75417 13.5448C4.74767 13.4864 4.74414 13.4269 4.74414 13.3667V12.5259C4.74414 11.6535 5.44878 10.9399 6.31017 10.9399H10.7097H10.8719H12.8254C13.2905 10.9399 13.5781 11.3579 13.7363 11.7543L16.914 19.7201H19.1116H22.7589H24.6562L27.8339 11.7543C27.9921 11.3579 28.2796 10.9399 28.7448 10.9399H30.8605H30.8655H31.4672H31.4723H33.4642H33.588C34.0532 10.9399 34.3406 11.3579 34.4989 11.7543L37.6954 19.7673C37.8861 20.2454 37.656 20.7949 37.1836 20.9881H37.1835C36.7113 21.1814 36.1689 20.9481 35.9781 20.4698L32.9722 12.9348H32.8556C33.041 13.1605 35.4228 22.0219 35.4228 22.1811C35.4228 22.6493 35.0458 23.0312 34.5835 23.0312H33.6136V30.5838C33.6136 31.2296 33.0919 31.7579 32.4543 31.7579H32.4541C31.8165 31.7579 31.2949 31.2296 31.2949 30.5838V23.0312H30.9141V30.5932C30.9141 31.239 30.3923 31.7673 29.7548 31.7673H29.7545C29.117 31.7673 28.5953 31.239 28.5953 30.5932V23.0312H27.6325C27.1702 23.0312 26.7932 22.6493 26.7932 22.1811C26.7932 22.0348 28.8072 14.5307 29.2753 13.1485L26.3547 20.4698C26.3493 20.4832 26.3437 20.4963 26.3378 20.5093C26.2952 20.8467 25.9987 21.0554 25.6579 21.1292L22.7589 21.7577V25.3552V25.8814V30.9539C22.7589 31.3843 22.4111 31.7366 21.986 31.7366H21.9858C21.5608 31.7366 21.213 31.3843 21.213 30.9539V25.8814H20.6574V30.9539C20.6574 31.3843 20.3097 31.7365 19.8845 31.7365H19.8844C19.4593 31.7365 19.1116 31.3843 19.1116 30.9539V25.8814V25.3552V21.7233L16.0451 21.1292C15.8685 21.0949 15.7043 21.0212 15.5811 20.9112C15.4215 20.81 15.291 20.6591 15.2155 20.4698L12.4328 13.4944C12.4263 13.5742 12.4141 13.6523 12.3965 13.7284V30.4855C12.3965 31.203 11.8169 31.7901 11.1084 31.7901H11.1083C10.3997 31.7901 9.82015 31.203 9.82015 30.4855V21.5306H9.17862V30.4854C9.17862 31.2031 8.59903 31.7901 7.8905 31.7901ZM20.9471 16.0918C21.8176 16.0918 22.5235 16.8067 22.5235 17.6883C22.5235 18.57 21.8176 19.2849 20.9471 19.2849C20.0766 19.2849 19.3707 18.57 19.3707 17.6883C19.3707 16.8067 20.0766 16.0918 20.9471 16.0918ZM31.158 6.21045C32.2481 6.21045 33.1319 7.10555 33.1319 8.20963C33.1319 9.31371 32.2481 10.2088 31.158 10.2088C30.0678 10.2088 29.184 9.31371 29.184 8.20963C29.184 7.10555 30.0678 6.21045 31.158 6.21045ZM9.61428 6.21045C10.7044 6.21045 11.5882 7.10555 11.5882 8.20963C11.5882 9.31371 10.7044 10.2088 9.61428 10.2088C8.52414 10.2088 7.64034 9.31371 7.64034 8.20963C7.64034 7.10555 8.52414 6.21045 9.61428 6.21045Z" fill="#EF7F1A"/>
<path fill-rule="evenodd" clip-rule="evenodd" d="M76.2049 20.3222C76.7237 18.8448 80.4936 11.2307 81.5063 9.06492C81.6819 8.68944 82.0559 7.80129 82.3654 7.52471C82.4963 9.52526 82.777 11.8482 83.0133 13.846C83.2621 15.9485 83.4004 18.1101 83.5181 20.2829C83.9656 20.4065 85.1833 20.2196 85.7551 20.2193C86.53 20.2186 87.3132 20.347 88.0446 20.3268C87.9932 19.0325 87.5237 16.9755 87.3576 15.5866C86.8406 11.2655 85.9698 5.05556 85.6689 1.05763C84.6102 1.13001 84.3047 1.13264 83.2442 1.04736C83.0253 1.83081 80.651 6.73174 80.1318 7.77023C79.5848 8.86457 79.0391 9.92564 78.4995 11.0457L76.9287 14.1186C76.721 14.3571 77.0346 14.0869 76.7248 14.2944L73.5036 7.70396C72.8996 6.46643 70.7228 2.06169 70.4277 1.05347C69.3986 1.12106 69.2301 1.12464 68.1957 1.05631C67.9496 1.52039 66.4897 13.2716 66.0911 15.6844L65.2705 20.3052C65.6931 20.3283 66.123 20.2182 66.5755 20.2201C67.0162 20.2221 67.4482 20.349 67.8623 20.2912C68.2013 16.275 68.2694 11.6377 69.0265 7.73338C69.1416 8.03943 69.5727 8.78814 69.7896 9.24748C70.0345 9.76609 70.2584 10.2424 70.5387 10.8038L75.0732 20.3258L76.2049 20.3222Z" fill="#007A8F"/>
<path fill-rule="evenodd" clip-rule="evenodd" d="M184.497 20.3471C185.299 20.3113 186.038 20.2222 186.851 20.2192C187.575 20.2164 188.472 20.3698 189.12 20.3169C189.056 18.2078 188.694 4.37741 189.002 3.37445C191.968 3.24932 194.517 3.31881 197.425 3.37192C197.404 6.22087 197.4 9.07056 197.378 11.9183C197.367 13.3236 197.419 14.7786 197.354 16.1739C197.29 17.5476 197.134 18.9603 197.108 20.3468C198.877 20.2638 200.008 20.2613 201.774 20.3464C201.711 17.1401 201.536 13.9392 201.546 10.6617C201.551 9.03582 201.581 7.44861 201.609 5.82923C201.637 4.22543 201.815 2.63869 201.862 1.03711C196.132 1.30673 190.336 1.28615 184.61 1.039C184.745 5.72374 184.965 10.9399 184.775 15.6738C184.713 17.2068 184.55 18.7928 184.497 20.3471Z" fill="#007A8F"/>
<path fill-rule="evenodd" clip-rule="evenodd" d="M148.494 1.04428C148.505 5.72575 148.753 10.9018 148.626 15.5916C148.584 17.1648 148.469 18.751 148.455 20.3467C150.135 20.2578 151.152 20.2622 152.83 20.3483L152.67 11.602C153.144 12.0315 155.012 15.1174 155.508 15.9051C155.955 16.6164 156.47 17.3582 156.892 18.0821C157.287 18.7603 158.024 19.7274 158.271 20.3505C159.101 20.3173 159.856 20.2207 160.688 20.2197C161.488 20.2186 162.421 20.3709 163.158 20.3221C163.138 19.8097 162.624 19.2183 162.372 18.8154C161.147 16.8506 159.052 14.0054 157.738 11.9084C157.148 10.9664 156.396 10.0493 155.882 9.11574C157.211 7.60127 157.68 6.88663 159.337 5.13881C159.936 4.50744 160.568 3.82564 161.123 3.17748C161.534 2.69703 162.749 1.59405 162.874 1.06096C162.346 1.06665 161.897 1.17351 161.355 1.17546C159.223 1.18299 160.27 0.497186 158.972 2.15862C158.647 2.57501 158.429 2.88759 158.1 3.30524C157.515 4.04915 153.241 9.4409 152.688 9.89719L152.869 1.02148C151.152 1.13787 150.232 1.13977 148.494 1.04428Z" fill="#007A8F"/>
<path fill-rule="evenodd" clip-rule="evenodd" d="M114.721 18.3261C113.83 18.3231 112.94 18.3135 112.049 18.2874C110.274 18.2353 110.102 18.4105 110.258 17.7623C110.552 16.5426 112.522 11.5679 113.102 10.0853C113.581 8.86262 114.178 7.56919 114.616 6.39784C115.006 6.75248 116.782 11.8409 116.912 12.2116C117.22 13.0901 118.902 17.5776 118.847 18.2443L114.721 18.3261ZM106.433 18.3267C106.386 18.7998 106.518 19.4804 106.511 20.0369C106.504 20.5496 106.357 21.1829 106.454 21.6326C107.292 21.6145 107.001 20.6256 110.421 20.3202C112.101 20.1702 113.867 20.1929 115.58 20.1917C117.501 20.1903 122.498 19.898 123.913 21.1664C124.27 21.4863 124.168 21.6045 124.794 21.6253C124.756 21.037 124.667 20.5584 124.66 19.9397C124.654 19.4082 124.793 18.7622 124.747 18.3221L123.686 18.2744C123.342 17.7182 120.493 10.3252 120.228 9.62196C119.672 8.14787 119.122 6.72105 118.543 5.25265C117.977 3.81698 117.255 2.28789 116.808 0.89502C116.406 0.908285 116.105 1.00435 115.675 0.998563C115.278 0.993089 115.027 0.901284 114.642 0.908285C114.141 2.60831 111.976 7.86719 111.2 9.7064C110.585 11.1635 109.985 12.6276 109.393 14.0605C108.822 15.4412 108.103 16.9756 107.616 18.325L106.433 18.3267Z" fill="#007A8F"/>
<path fill-rule="evenodd" clip-rule="evenodd" d="M127.873 4.865C128.373 4.90243 128.301 4.72777 128.643 4.28948C128.87 3.99959 128.965 3.87662 129.25 3.64348C132.985 0.583017 138.837 2.83824 139.263 9.25189C136.275 9.28706 132.636 9.28401 129.693 9.08145C129.83 10.0672 129.81 10.3692 129.693 11.3496C131.313 11.1893 137.716 11.0565 139.273 11.1929C139.386 12.538 138.756 14.6319 138.24 15.6584C137.598 16.9348 136.82 17.8311 135.618 18.5041C133.586 19.6423 131.061 19.2276 129.046 18.0754C128.779 17.9231 128.484 17.7217 128.249 17.5319C127.914 17.2615 127.884 17.0168 127.492 17.158C127.301 17.4456 127.464 17.9685 127.515 18.3514C127.568 18.7489 127.596 19.2175 127.738 19.5013C128.998 20.4321 131.45 20.8929 133.408 20.8645C139.246 20.78 143.813 17.2474 143.941 10.4688C144.029 5.80126 141.783 3.27505 138.836 1.78185C135.999 0.344029 130.237 0.128625 127.53 1.86671L127.873 4.865Z" fill="#007A8F"/>
<path fill-rule="evenodd" clip-rule="evenodd" d="M227.171 2.64868C228.767 2.58872 229.479 2.5135 230.35 3.46287C231.011 4.18278 231.267 5.34272 231.24 6.60519C231.181 9.37803 229.816 10.4302 227.039 10.4333L227.171 2.64868ZM222.795 1.03862C222.953 6.01378 222.991 10.6394 222.955 15.5911C222.942 17.2222 222.755 18.753 222.714 20.3457C224.457 20.2565 225.551 20.2717 227.284 20.3468C227.215 17.6593 226.924 14.6701 227.051 12.0044C229.736 11.8942 231.814 12.0572 233.639 10.5607C236.859 7.9202 236.615 1.50091 230.792 1.05315C229.561 0.95845 228.186 1.0014 226.954 1.06557C225.526 1.14006 224.216 1.08352 222.795 1.03862Z" fill="#007A8F"/>
<path fill-rule="evenodd" clip-rule="evenodd" d="M207.293 20.3461C209.081 20.3235 210.86 20.2171 212.635 20.1954C214.469 20.1729 216.279 20.374 218.073 20.3461C217.98 19.3457 218 18.928 218.058 17.9359C217.036 18.0069 212.213 18.5457 211.728 18.2288C211.459 17.6042 211.608 12.2675 211.656 11.2107C212.289 11.0197 216.786 11.3483 217.943 11.3843C217.826 10.3167 217.851 10.0588 217.958 9.03094L211.674 9.2286C211.656 8.94461 211.619 2.79789 211.848 3.21854L212.439 3.13468C212.722 3.13242 213.02 3.13895 213.304 3.1451C214.886 3.17932 216.801 3.47032 218.066 3.45721C217.989 2.48399 217.963 2.05487 218.071 1.06749C216.299 1.04412 214.512 1.18109 212.731 1.19693C210.9 1.21325 209.183 1.06239 207.376 1.03564C207.371 2.67582 207.534 4.21155 207.541 5.82924C207.561 10.3509 207.573 15.9743 207.293 20.3461Z" fill="#007A8F"/>
<path fill-rule="evenodd" clip-rule="evenodd" d="M92.2568 20.3483C94.0248 20.3039 95.8354 20.2145 97.6253 20.1949C99.4588 20.1747 101.237 20.34 103.014 20.3506C102.97 19.4358 102.903 18.8892 103.009 17.9476C101.444 18.0235 98.0078 18.5204 96.6238 18.2557L96.5979 11.1894C98.0315 10.9478 101.273 11.3653 102.904 11.3781C102.791 10.3171 102.817 10.0667 102.913 9.01493L96.6424 9.22865C96.5694 8.29207 96.5033 3.77747 96.7568 3.2089C97.6856 2.86021 101.713 3.43546 103.01 3.46357C102.94 2.52047 102.922 2.01296 103.012 1.06406C101.241 1.06864 99.4929 1.18093 97.7209 1.19661C95.8802 1.21288 94.1565 1.07675 92.3298 1.03369C92.321 2.66549 92.478 4.21844 92.4869 5.82918C92.512 10.3874 92.5008 15.907 92.2568 20.3483Z" fill="#007A8F"/>
<path fill-rule="evenodd" clip-rule="evenodd" d="M179.835 4.92763C179.987 4.56304 180.443 2.50028 180.477 2.05978C175.485 -0.840023 163.363 0.172832 163.774 11.7255C163.854 13.9766 164.646 15.8545 165.723 17.146C166.924 18.5873 167.761 19.2912 170.021 20.1384C171.709 20.7711 174.645 20.8566 176.526 20.5382C177.592 20.3578 178.433 20.1206 179.341 19.7186C179.919 19.463 179.81 19.1955 179.98 18.5302C180.095 18.0836 180.362 17.4523 180.202 17.068C179.764 16.9688 179.459 17.5008 178.476 18.0652C176.249 19.3433 174.004 19.3582 171.794 18.2431C167.424 16.038 166.837 6.25185 172.029 3.12607C173.225 2.40642 175.125 2.22507 176.612 2.74621C179.028 3.59341 179.01 4.90615 179.835 4.92763Z" fill="#007A8F"/>
<path fill-rule="evenodd" clip-rule="evenodd" d="M237.912 3.48119C239.47 3.41934 241.478 2.99669 242.99 3.15493C243.35 8.90352 242.826 14.6342 242.77 20.3489C243.538 20.3236 244.249 20.2225 245.019 20.22C245.79 20.2173 246.575 20.3501 247.304 20.3258C247.239 14.6025 247.069 8.96459 247.274 3.1833C248.256 2.9132 251.07 3.40718 252.158 3.47777L252.127 1.0332C249.776 1.05473 247.428 1.20323 245.019 1.20365C242.643 1.20407 240.295 1.04647 237.924 1.04378C237.998 2.01395 238.017 2.50598 237.912 3.48119Z" fill="#007A8F"/>
<path fill-rule="evenodd" clip-rule="evenodd" d="M76.9272 32.3692C76.8745 31.7395 77.2606 30.7855 77.5265 30.4036C78.3901 29.1633 80.1877 29.1217 80.9196 30.3208C81.2058 30.7896 81.4518 31.7045 81.3908 32.3667C80.1416 32.4888 78.1929 32.4636 76.9272 32.3692ZM82.7161 33.0508C82.9115 30.987 82.1003 29.2557 79.9432 28.9303C78.8898 28.7713 77.8078 29.0268 77.0954 29.5254C76.4211 29.9975 75.9508 30.5483 75.6628 31.5606C75.0223 33.8116 75.721 35.7443 77.0838 36.6817C77.7784 37.1595 78.8247 37.4529 79.882 37.3615C80.8526 37.2776 81.6626 36.7949 82.3161 36.3731L82.4011 35.5385C82.1754 35.5803 82.3109 35.5175 82.1373 35.6916C81.3051 36.5265 79.8275 36.9309 78.6023 36.423C77.322 35.8923 76.6884 34.371 76.8859 33.0668C78.9231 32.8974 81.1019 33.1576 82.7161 33.0508Z" fill="#007A8F"/>
<path fill-rule="evenodd" clip-rule="evenodd" d="M95.7958 33.2226C96.9102 33.1331 97.731 33.3201 98.0162 34.2327C98.3531 35.3103 97.811 36.1386 97.0407 36.409C96.5901 36.5671 96.0396 36.5629 95.516 36.5601C94.6926 36.5555 94.879 36.6742 94.8297 35.536C94.8066 35.0053 94.8043 34.4444 94.823 33.9006C94.8395 33.4166 94.7639 33.2757 94.9906 33.2526C95.245 33.2266 95.536 33.2435 95.7958 33.2226ZM94.9366 29.0741C94.3867 29.0989 94.0302 29.1106 93.4669 29.0674C93.4758 29.3761 93.5454 29.7213 93.5644 30.0468C93.6238 31.0691 93.5947 32.1105 93.5912 33.1411C93.5889 33.8197 93.5778 34.4978 93.5573 35.1744C93.5378 35.8223 93.4595 36.5391 93.4651 37.172C94.0488 37.1747 96.8568 37.1837 97.2315 37.1276C99.8022 36.7426 100.243 33.6995 98.3512 32.8747C97.2333 32.3873 96.0925 32.695 94.8518 32.5761C94.7265 32.0001 94.9306 29.8629 94.9366 29.0741Z" fill="#007A8F"/>
<path fill-rule="evenodd" clip-rule="evenodd" d="M73.4864 35.7084C73.2101 35.7408 72.7596 36.3979 71.9118 36.6408C70.6059 37.0148 69.1318 36.4434 68.4779 35.198C68.1722 34.6157 67.9829 33.9395 67.9696 33.1411C67.9567 32.3704 68.1296 31.6376 68.4149 31.065C69.3834 29.1216 71.7695 29.0516 72.7884 30.4369C73.0632 30.8105 72.9062 30.7372 73.1292 30.7704C73.2471 30.6609 73.2807 30.4661 73.3604 30.2336C73.4296 30.0319 73.4944 29.85 73.5554 29.6505C72.4368 28.7641 69.9455 28.7328 68.6108 29.4505C67.2905 30.1606 66.389 31.4481 66.5338 33.5832C66.5995 34.5498 66.8964 35.2369 67.339 35.8672C68.4978 37.5175 71.294 37.8113 72.9978 36.8145C73.1816 36.7069 73.3834 36.6419 73.4332 36.4536C73.4715 36.3091 73.5012 35.8592 73.4864 35.7084Z" fill="#007A8F"/>
<path fill-rule="evenodd" clip-rule="evenodd" d="M84.2208 29.9788C84.6583 29.9526 85.2345 29.896 85.6864 29.8374C85.9068 29.8089 86.1597 29.8021 86.4054 29.79C86.5252 29.784 86.6958 29.7805 86.7777 29.7741C86.9066 29.7642 86.9838 29.7569 87.1158 29.7704C87.3061 30.8908 87.0785 35.9397 87.0666 37.1548C87.5635 37.1393 88.0575 37.1439 88.5008 37.1669C88.4988 36.5977 88.4204 35.9875 88.4091 35.3956C88.4025 35.0464 88.3742 30.1081 88.4277 29.8751C88.4492 29.782 88.4336 29.8425 88.4686 29.7923C88.7398 29.6497 90.8739 29.9471 91.3619 29.9793L91.352 29.063C90.1609 29.1047 89.0086 29.1775 87.802 29.1784C86.583 29.1794 85.4049 29.0944 84.2148 29.0638L84.2208 29.9788Z" fill="#007A8F"/>
<path fill-rule="evenodd" clip-rule="evenodd" d="M125.283 37.3262C125.353 36.3481 125.379 35.4534 125.505 34.485L125.886 31.8756C125.888 31.8583 125.897 31.8543 125.904 31.8447C126.013 32.0788 126.178 32.3161 126.313 32.5421C127.354 34.2893 128.012 35.3442 128.898 37.341L129.351 37.3307L130.064 35.8876C130.393 35.2395 132.11 31.9792 132.381 31.8688C132.474 32.7727 132.59 33.6336 132.675 34.545C132.716 34.9921 132.756 35.4537 132.773 35.9191C132.815 37.0825 132.682 37.3154 133.016 37.332L133.542 37.2957C133.795 37.2935 134.038 37.3253 134.295 37.3402C134.294 36.8023 134.113 35.8971 134.036 35.3314C133.852 33.9863 133.673 32.649 133.558 31.2981C133.503 30.6516 133.477 29.8574 133.379 29.2224L132.862 29.2227C132.528 29.8876 129.98 35.0891 129.526 35.5564L128.57 34.0554C128.264 33.5334 127.985 33.0346 127.681 32.4837C127.382 31.9416 127.108 31.4318 126.834 30.8637C126.602 30.3806 126.291 29.6427 126.022 29.2192L125.611 29.2287C125.467 29.2592 125.609 29.1949 125.526 29.2666C125.51 29.2849 124.906 34.4673 124.754 35.3678L124.414 37.3194L125.283 37.3262Z" fill="#007A8F"/>
<path fill-rule="evenodd" clip-rule="evenodd" d="M146.51 29.2412C146.53 29.9064 146.637 30.5059 146.637 31.2332C146.637 31.9254 146.632 32.6183 146.63 33.3107C146.627 34.6945 146.523 36.0284 146.503 37.3963L147.266 37.3862C147.393 37.1191 147.636 36.8291 147.819 36.573C148.255 35.9615 149.782 33.9625 150.206 33.5119L152.032 31.3506C152.203 33.0694 151.94 35.5748 151.94 37.3264C152.438 37.3396 152.859 37.2986 153.386 37.3384C153.41 36.7572 153.303 35.9708 153.291 35.344C153.277 34.6523 153.273 33.9584 153.273 33.2665C153.273 32.589 153.274 31.8886 153.306 31.2134C153.332 30.6756 153.425 29.6691 153.384 29.1968L152.668 29.2019C152.42 29.6372 150.679 31.8901 150.362 32.2967L148.513 34.5359C148.382 34.688 148.326 34.7648 148.213 34.8952C148.08 35.0472 148.037 35.1604 147.86 35.2356C147.835 34.2168 147.839 33.1808 147.853 32.1614C147.866 31.1921 147.957 30.1828 147.954 29.242C147.415 29.2803 147.044 29.2698 146.51 29.2412Z" fill="#007A8F"/>
<path fill-rule="evenodd" clip-rule="evenodd" d="M156.638 31.1444C156.64 33.3093 156.58 35.0755 156.517 37.3304C157.03 37.319 157.417 37.296 157.951 37.3394C157.957 36.8758 157.889 36.2889 157.867 35.8217L157.853 33.4003C159.751 33.3467 160.174 33.3519 162.047 33.3982C162.125 34.7226 161.918 36.2617 161.952 37.3331L163.395 37.3167C163.387 36.7048 163.3 36.0761 163.292 35.4322C163.259 33.0138 163.311 31.7966 163.385 29.2409C162.621 29.2981 162.728 29.2879 161.953 29.2464C162.088 30.9777 162.067 30.7468 162.056 32.3379L162.052 32.6918C160.048 32.7593 159.867 32.747 157.854 32.7027L157.952 29.2368C157.403 29.3042 157.037 29.2482 156.507 29.2451C156.543 29.8882 156.638 30.4591 156.638 31.1444Z" fill="#007A8F"/>
<path fill-rule="evenodd" clip-rule="evenodd" d="M116.676 32.5385C116.624 31.9088 117.01 30.9549 117.276 30.573C118.139 29.3327 119.937 29.2911 120.669 30.4902C120.955 30.9589 121.201 31.8739 121.14 32.536C119.89 32.6583 117.94 32.6329 116.676 32.5385ZM122.155 35.6999C121.822 35.7447 120.507 37.4526 118.414 36.6182C117.767 36.3601 117.364 35.9637 117.038 35.402C116.811 35.0101 116.443 33.7722 116.652 33.2497C117.286 33.0687 121.422 33.2892 122.465 33.2202C122.643 32.1776 122.298 30.9982 121.836 30.3242C121.389 29.6729 120.622 29.1747 119.5 29.0765C117.364 28.8893 115.82 29.9712 115.318 32.083C114.754 34.4612 115.762 36.3238 117.238 37.1011C118.029 37.5177 119.292 37.6707 120.233 37.414C120.635 37.3044 121.928 36.7812 122.052 36.5154C122.092 36.4301 122.152 35.8275 122.155 35.6999Z" fill="#007A8F"/>
<path fill-rule="evenodd" clip-rule="evenodd" d="M138.032 32.5426C137.967 31.8813 138.372 30.9831 138.636 30.5716C139.428 29.3364 141.343 29.3053 142.032 30.485C142.227 30.8192 142.631 32.0537 142.479 32.5185C142.077 32.6689 138.715 32.5662 138.032 32.5426ZM143.51 35.7052C143.177 35.7314 141.882 37.4594 139.772 36.6202C139.141 36.3692 138.7 35.9521 138.396 35.408C138.233 35.1155 138.132 34.8242 138.058 34.4641C138.004 34.2027 137.888 33.5131 138.012 33.2504C138.303 33.164 140.435 33.1791 140.903 33.1854C141.839 33.198 142.899 33.2652 143.821 33.2225C144.019 30.9167 142.964 29.2622 140.86 29.0766C139.741 28.9781 138.685 29.3174 138.018 29.814C136.102 31.2398 135.742 35.5753 138.596 37.1028C139.907 37.8041 141.586 37.6165 142.866 36.8902C143.43 36.5701 143.487 36.6226 143.51 35.7052Z" fill="#007A8F"/>
<path fill-rule="evenodd" clip-rule="evenodd" d="M168.163 33.4661C168.551 33.3154 170.021 33.3448 170.42 33.4793C171.002 33.676 171.391 34.2182 171.402 34.9912C171.426 36.7361 169.76 36.8295 168.171 36.6896C168.145 36.0237 168.011 33.9808 168.163 33.4661ZM168.143 32.7384C168.023 31.6332 168.247 30.3463 168.229 29.2449C167.683 29.2751 167.313 29.2816 166.772 29.2383C166.781 29.8845 166.896 30.5274 166.896 31.2333C166.896 32.554 166.903 34.0406 166.852 35.3467C166.827 35.9723 166.749 36.7407 166.77 37.3425C167.424 37.3381 168.051 37.3175 168.71 37.3276C169.324 37.337 169.979 37.3822 170.579 37.2889C172.951 36.92 173.656 33.9527 171.637 33.0365C170.612 32.5714 169.326 32.8356 168.143 32.7384Z" fill="#007A8F"/>
<path fill-rule="evenodd" clip-rule="evenodd" d="M177.863 29.2449C178 29.401 178.09 29.6054 178.24 29.7896L180.852 33.3546C180.615 33.6966 180.374 33.9862 180.102 34.3436C179.854 34.6704 179.626 34.9697 179.34 35.3395C179.079 35.6763 178.818 35.985 178.564 36.3199C178.413 36.5192 177.848 37.1109 177.833 37.3133L178.865 37.3307L180.655 34.7272C180.827 34.4896 181.06 34.1082 181.265 33.8986C181.398 33.9999 182.791 36.0308 183.061 36.4444C183.257 36.7457 183.408 37.0326 183.622 37.3268C184.13 37.3402 184.687 37.3116 185.232 37.3245C185.195 37.0987 185.176 37.105 185.05 36.9492C184.78 36.6146 182.163 33.0235 182.107 32.8683C182.357 32.5728 182.604 32.2637 182.846 31.9505C183.111 31.6088 185.011 29.4723 185.147 29.2492C184.698 29.2777 184.44 29.2537 184.008 29.2373C183.861 29.523 181.897 32.1932 181.701 32.3505C181.602 32.2749 181.612 32.2695 181.533 32.1541L179.57 29.2385C178.965 29.2473 178.478 29.2644 177.863 29.2449Z" fill="#007A8F"/>
<path fill-rule="evenodd" clip-rule="evenodd" d="M113.321 35.8777C113.041 35.9106 112.6 36.5667 111.746 36.8101C110.437 37.1834 108.97 36.6144 108.313 35.3674C108.007 34.787 107.818 34.1072 107.804 33.3105C107.781 31.9095 108.3 30.5661 109.501 29.939C110.071 29.6412 110.881 29.5694 111.537 29.8043C111.862 29.921 112.152 30.1029 112.333 30.2799C112.442 30.3871 112.532 30.4817 112.624 30.6057C112.854 30.9167 112.743 30.9068 112.964 30.9397C113.109 30.8051 113.333 30.0054 113.39 29.8198C111.69 28.4725 106.023 28.6335 106.369 33.7533C106.494 35.6029 107.528 36.8584 109.008 37.316C110.245 37.6988 111.702 37.6463 112.833 36.9836C113.023 36.872 113.211 36.8125 113.266 36.6207C113.306 36.4813 113.336 36.0254 113.321 35.8777Z" fill="#007A8F"/>
<path fill-rule="evenodd" clip-rule="evenodd" d="M173.727 37.333L175.174 37.317C175.087 35.5761 175.058 34.7599 175.084 33.0012L175.163 29.2363C174.38 29.3006 174.522 29.29 173.727 29.2461C173.761 29.9006 173.856 30.4751 173.847 31.1889L173.801 35.2997C173.791 35.9595 173.711 36.6997 173.727 37.333Z" fill="#007A8F"/>
<path fill-rule="evenodd" clip-rule="evenodd" d="M147.44 26.6802C148.048 28.3671 150.334 28.9147 151.659 27.865C151.897 27.6763 152.53 27.0654 152.599 26.6359L152.239 26.3813C152.117 26.5057 151.998 26.7026 151.869 26.8385C151.414 27.3165 150.771 27.5557 150.054 27.5629C149.136 27.5721 148.238 27.1237 147.825 26.3819C147.677 26.4519 147.524 26.5533 147.44 26.6802Z" fill="#007A8F"/>
<path fill-rule="evenodd" clip-rule="evenodd" d="M212.28 29.057C211.756 29.0771 211.361 29.0663 210.842 29.0564C210.832 29.2754 210.91 29.7153 210.932 29.9677C211.019 30.9795 210.957 34.1114 210.925 35.218C210.906 35.8579 210.824 36.5916 210.834 37.2066L211.577 37.2074L212.696 35.6595C212.945 35.3021 216.018 31.4083 216.371 31.2622C216.424 33.2481 216.326 35.1798 216.285 37.1451C216.799 37.1144 217.212 37.1014 217.715 37.1563C217.76 36.7003 217.634 35.7172 217.623 35.1739C217.596 33.8889 217.589 32.2955 217.637 31.018C217.661 30.3753 217.735 29.6564 217.728 29.0137L216.994 29.0173L215.855 30.5934C215.437 31.1143 215.085 31.6264 214.678 32.1411C214.274 32.6537 213.856 33.143 213.449 33.6379C213.27 33.8573 212.325 35.0022 212.194 35.0738C212.159 34.0589 212.174 33.0082 212.186 31.9913L212.28 29.057Z" fill="#007A8F"/>
<path fill-rule="evenodd" clip-rule="evenodd" d="M231.012 37.2006L231.756 37.2105C232.079 36.6714 232.504 36.169 232.872 35.6498C233.285 35.0685 236.196 31.3946 236.547 31.2687C236.574 32.3388 236.583 34.6097 236.518 35.7068C236.497 36.0611 236.427 36.8047 236.466 37.1508C236.988 37.1111 237.37 37.1101 237.894 37.1553C237.929 36.6274 237.803 35.808 237.797 35.2182C237.783 33.8775 237.754 32.3549 237.803 31.0252C237.828 30.3809 237.905 29.6742 237.905 29.0173C236.974 29.0151 237.3 28.8549 236.617 29.8063L234.855 32.1334C234.657 32.3826 234.447 32.6298 234.246 32.886C234.032 33.1588 233.826 33.3649 233.628 33.6295C233.464 33.8485 232.526 34.9928 232.37 35.0814C232.328 34.0723 232.348 33.0041 232.361 31.9914C232.367 31.4814 232.382 30.993 232.4 30.4885C232.415 30.0279 232.485 29.4941 232.461 29.0611C231.968 29.0582 231.548 29.0854 231.023 29.0546L231.146 30.9748C231.148 31.6813 231.141 32.3896 231.139 33.0964C231.137 33.793 231.123 34.487 231.1 35.1722C231.079 35.8126 230.995 36.5953 231.012 37.2006Z" fill="#007A8F"/>
<path fill-rule="evenodd" clip-rule="evenodd" d="M220.921 37.1399C221.449 37.1353 221.832 37.1107 222.366 37.1555C222.396 36.6374 222.284 35.8278 222.276 35.2627C222.266 34.5807 222.267 33.8973 222.267 33.2153C223.203 33.1978 225.68 33.092 226.476 33.2291C226.473 33.8993 226.461 34.5536 226.447 35.2183C226.433 35.8193 226.34 36.5922 226.365 37.1452C226.594 37.1464 226.84 37.1127 227.088 37.1136C227.333 37.1144 227.58 37.149 227.811 37.1467C227.829 36.5817 227.724 35.8359 227.711 35.2183C227.686 34.0285 227.666 32.1967 227.725 31.0335C227.748 30.5677 227.853 29.4536 227.807 29.057C227.286 29.0801 226.927 29.1064 226.371 29.0576C226.417 30.1674 226.575 31.2602 226.467 32.5071C225.235 32.6606 223.546 32.5549 222.281 32.5159C222.216 31.8996 222.375 29.865 222.376 29.0588C221.853 29.1131 221.448 29.0973 220.946 29.0537L221.057 30.975C221.064 33.155 221.011 34.9627 220.921 37.1399Z" fill="#007A8F"/>
<path fill-rule="evenodd" clip-rule="evenodd" d="M241.229 37.14C241.714 37.1197 242.185 37.1617 242.622 37.1452C242.665 36.5353 242.564 35.7347 242.552 35.0858C242.545 34.736 242.561 34.3769 242.561 34.0249C242.562 33.8471 242.561 33.6718 242.556 33.4941C242.541 32.8732 242.712 32.7484 243.211 33.3196L245.045 35.4847C245.424 35.9469 246.05 36.5459 246.404 37.1539C247.007 37.131 247.546 37.1527 248.126 37.1461C248.126 36.839 246.147 34.727 245.682 34.219L244.182 32.4306L246.481 30.3512C246.728 30.1531 247.857 29.3265 247.874 29.083L246.524 29.0905L244.771 30.9612C242.457 33.3653 242.533 32.9822 242.563 30.8865C242.571 30.2688 242.648 29.6744 242.651 29.0641C242.133 29.099 241.683 29.0443 241.235 29.0608C241.238 29.5048 241.366 30.027 241.354 30.975C241.345 31.6682 241.329 32.3585 241.327 33.0524C241.322 34.427 241.264 35.7703 241.229 37.14Z" fill="#007A8F"/>
<path fill-rule="evenodd" clip-rule="evenodd" d="M192.58 37.1404C192.829 37.1284 193.051 37.1101 193.303 37.1123C193.526 37.1143 193.766 37.1574 193.976 37.1421C194.036 36.243 193.767 34.0742 193.942 32.9949C194.286 32.8968 194.382 33.1281 194.544 33.2994C195.054 33.836 196.337 35.3751 196.879 36.0166C197.133 36.3178 197.56 36.8296 197.757 37.1545C198.051 37.1403 198.322 37.1138 198.627 37.1132C198.905 37.1126 199.231 37.1536 199.479 37.1436C199.478 36.8824 197.802 35.0755 197.53 34.7825L195.535 32.4273C196.113 31.7887 198.019 30.1974 198.798 29.5566C198.941 29.4388 199.212 29.2875 199.227 29.0841L197.877 29.0901L196.124 30.9579C195.812 31.2818 194.695 32.6142 194.092 32.5982C193.708 32.4365 193.999 29.6625 194.003 29.0653C193.475 29.094 193.069 29.0568 192.589 29.0581C192.588 29.1909 192.614 29.3146 192.633 29.4537C192.65 29.5736 192.662 29.7785 192.673 29.9563C192.778 31.6996 192.624 35.3836 192.58 37.1404Z" fill="#007A8F"/>
<path fill-rule="evenodd" clip-rule="evenodd" d="M200.824 37.1416L201.878 37.1311C202.094 36.4607 204.005 31.3927 204.438 30.7794C204.744 31.1995 204.555 30.8737 204.814 31.4544C205.4 32.7711 205.926 34.1095 206.448 35.4594C206.665 36.0212 206.799 36.6298 206.996 37.1587C207.574 37.1282 207.986 37.1407 208.551 37.1518C208.521 36.9726 208.231 36.4016 208.135 36.1892L205.567 30.0821C205.467 29.8167 205.287 29.2663 205.16 29.0477L204.337 29.0444C203.582 30.9984 202.643 33.2319 201.768 35.1379C201.614 35.4721 201.471 35.799 201.31 36.1319C201.178 36.4044 200.895 36.8914 200.824 37.1416Z" fill="#007A8F"/>
<path d="M255.633 3.01291V1.26172H256.368C256.553 1.26172 256.687 1.27762 256.771 1.30904C256.855 1.34042 256.922 1.39627 256.972 1.47654C257.023 1.55724 257.048 1.64894 257.048 1.75254C257.048 1.88419 257.01 1.99258 256.934 2.07817C256.858 2.16387 256.744 2.21762 256.593 2.24004C256.668 2.28447 256.73 2.33337 256.779 2.38675C256.828 2.44018 256.894 2.53514 256.977 2.67138L257.188 3.01291H256.771L256.52 2.63058C256.431 2.49482 256.369 2.40923 256.336 2.37375C256.303 2.33869 256.268 2.31421 256.23 2.30121C256.193 2.28815 256.134 2.28163 256.054 2.28163H255.983V3.01291H255.633ZM255.983 2.00279H256.241C256.409 2.00279 256.513 1.99547 256.555 1.98121C256.596 1.96694 256.629 1.94204 256.653 1.90699C256.676 1.87193 256.688 1.82792 256.688 1.77533C256.688 1.71627 256.672 1.66895 256.641 1.63225C256.61 1.59599 256.567 1.57319 256.51 1.56377C256.482 1.55972 256.397 1.55772 256.255 1.55772H255.983V2.00279Z" fill="#007A8F"/>
<path fill-rule="evenodd" clip-rule="evenodd" d="M256.411 0.77959C255.673 0.77959 255.072 1.38578 255.072 2.1371C255.072 2.88841 255.673 3.49455 256.411 3.49455C257.148 3.49455 257.749 2.88841 257.749 2.1371C257.749 1.38578 257.148 0.77959 256.411 0.77959ZM254.871 2.1371C254.871 1.27846 255.559 0.57959 256.411 0.57959C257.262 0.57959 257.95 1.27846 257.95 2.1371C257.95 2.99574 257.262 3.69455 256.411 3.69455C255.559 3.69455 254.871 2.99574 254.871 2.1371Z" fill="#007A8F"/>
</svg>
