<?xml version="1.0" standalone="no"?>
<!DOCTYPE svg PUBLIC "-//W3C//DTD SVG 20010904//EN"
 "http://www.w3.org/TR/2001/REC-SVG-20010904/DTD/svg10.dtd">
<svg version="1.0" xmlns="http://www.w3.org/2000/svg"
 width="590.000000pt" height="590.000000pt" viewBox="0 0 590.000000 590.000000"
 preserveAspectRatio="xMidYMid meet">
<metadata>
Created by potrace 1.14, written by Peter Selinger 2001-2017
</metadata>
<g transform="translate(0.000000,590.000000) scale(0.100000,-0.100000)"
fill="#000000" stroke="none">
<path d="M1450 5551 c-265 -41 -494 -129 -706 -270 -573 -384 -839 -1048 -688
-1719 62 -276 194 -550 371 -770 54 -66 382 -431 408 -452 13 -11 15 3 15 122
l0 135 -44 -10 c-86 -19 -182 43 -206 133 -7 27 -10 226 -8 617 3 574 3 578
25 619 34 64 71 103 127 132 49 26 57 27 256 32 188 5 202 6 172 19 -49 21
-122 98 -151 161 -36 80 -36 193 1 271 33 72 94 134 167 168 47 22 70 26 141
26 78 0 90 -3 148 -34 116 -63 176 -164 176 -296 0 -66 -4 -90 -26 -137 -30
-64 -99 -138 -150 -159 -30 -13 -17 -14 159 -19 l191 -5 39 -31 c21 -17 47
-46 58 -65 11 -19 117 -275 235 -569 l215 -535 168 -3 c92 -1 167 1 167 6 0 5
-10 17 -21 28 -40 35 -69 113 -69 184 0 242 282 369 458 207 57 -53 84 -107
90 -183 6 -77 -16 -146 -64 -203 l-36 -41 150 0 149 0 222 553 c122 304 233
567 248 586 44 56 90 70 228 71 l120 1 -35 19 c-47 24 -127 111 -146 157 -72
171 0 363 166 442 75 36 202 37 271 3 111 -55 185 -161 196 -279 11 -117 -48
-239 -145 -303 l-54 -35 129 -5 c143 -6 176 -18 222 -85 12 -18 128 -295 257
-616 220 -546 235 -587 231 -636 -8 -108 -90 -179 -199 -171 -73 5 -121 41
-161 119 -15 30 -25 45 -23 34 3 -11 19 -74 35 -141 34 -135 32 -168 -16 -224
-37 -44 -74 -60 -143 -60 l-60 0 0 -187 1 -188 72 77 c40 42 142 150 227 240
341 359 478 518 577 670 432 658 391 1477 -100 2039 -219 250 -515 433 -842
519 -578 153 -1168 7 -1616 -400 l-81 -73 -46 45 c-389 374 -929 549 -1452
469z"/>
<path d="M1202 4679 c-207 -103 -195 -404 21 -494 56 -23 152 -19 212 9 105
49 161 147 153 266 -14 196 -210 307 -386 219z"/>
<path d="M4211 4693 c-61 -22 -133 -96 -154 -158 -63 -184 62 -365 254 -365
206 0 332 217 233 401 -65 118 -201 168 -333 122z"/>
<path d="M775 4036 c-59 -27 -77 -46 -104 -106 -20 -44 -21 -63 -21 -620 0
-552 1 -576 20 -607 10 -17 29 -37 41 -43 30 -17 83 -16 114 0 54 29 55 36 55
460 0 340 2 390 15 390 13 0 15 -128 15 -1096 l0 -1096 22 -40 c54 -95 188
-117 267 -45 13 12 32 40 42 62 17 38 19 79 19 673 l0 632 45 0 44 0 3 -642
c3 -590 4 -646 20 -675 45 -82 153 -116 235 -74 50 25 79 63 92 122 7 28 11
458 11 1208 0 644 4 1161 9 1155 4 -5 95 -227 201 -492 182 -458 195 -485 230
-511 31 -22 74 -34 263 -70 l227 -44 0 -642 c0 -432 4 -652 11 -673 13 -39 48
-62 94 -62 47 0 71 14 90 50 13 24 15 88 15 390 l0 360 40 0 39 0 3 -369 3
-370 29 -30 c24 -25 38 -31 74 -31 35 0 49 6 73 29 l29 29 0 656 c0 615 1 655
18 660 9 3 103 23 207 45 105 23 204 48 222 57 30 16 44 46 234 521 111 277
203 502 206 500 2 -2 -17 -74 -41 -158 -52 -178 -213 -766 -250 -916 -33 -129
-32 -145 3 -185 28 -32 32 -33 123 -38 l93 -5 5 -552 c5 -537 6 -552 26 -579
38 -51 71 -69 129 -69 58 0 91 18 129 69 20 27 21 42 26 579 l5 552 28 3 27 3
0 -538 0 -539 23 -44 c24 -48 87 -90 136 -90 42 0 109 39 133 78 l23 37 3 548
3 547 88 0 c101 0 131 15 151 74 10 31 2 68 -74 353 -47 175 -124 453 -172
618 -47 165 -88 311 -90 325 -11 62 32 -38 231 -532 197 -490 212 -524 245
-546 28 -19 44 -23 80 -19 60 7 110 59 110 114 0 26 -73 221 -232 618 -203
508 -236 585 -269 618 l-37 38 -376 -3 -376 -3 -30 -30 c-22 -23 -82 -162
-259 -600 l-229 -570 -540 -3 -540 -2 -213 532 c-116 293 -222 554 -235 579
-13 26 -37 58 -54 73 l-32 26 -486 0 -487 0 -50 -24z"/>
<path d="M1770 2398 l0 -1006 198 -184 c237 -222 460 -424 682 -618 91 -79
195 -170 232 -203 l68 -59 147 128 c219 190 403 354 635 566 l208 190 -23 41
c-22 42 -22 48 -27 562 l-5 520 -65 5 c-74 6 -97 17 -134 60 -42 51 -48 93
-26 180 25 97 25 99 -7 68 -37 -35 -53 -41 -249 -83 -93 -19 -177 -38 -186
-41 -17 -5 -18 -44 -18 -638 l0 -633 -23 -34 c-12 -18 -38 -44 -56 -56 -60
-41 -165 -24 -210 33 l-18 23 -24 -25 c-39 -42 -77 -57 -134 -52 -65 5 -111
37 -136 92 -17 39 -19 78 -19 666 l0 626 -210 41 c-232 45 -268 60 -307 131
-12 20 -81 186 -153 367 -73 182 -134 332 -136 334 -2 2 -4 -448 -4 -1001z"/>
<path d="M2828 3336 c-92 -34 -139 -95 -146 -187 -15 -205 228 -315 366 -165
69 75 79 173 27 262 -47 80 -162 122 -247 90z"/>
</g>
</svg>
