<svg width="20" height="14" viewBox="0 0 20 14" fill="none" xmlns="http://www.w3.org/2000/svg">
<path fill-rule="evenodd" clip-rule="evenodd" d="M0.25 3C0.25 1.48122 1.48122 0.25 3 0.25H17C18.5188 0.25 19.75 1.48122 19.75 3V11C19.75 12.5188 18.5188 13.75 17 13.75H3C1.48122 13.75 0.25 12.5188 0.25 11V3ZM18.25 9.25V4.75H12C10.7574 4.75 9.75 5.75736 9.75 7C9.75 8.24264 10.7574 9.25 12 9.25H18.25ZM18.25 3.25H12C9.92893 3.25 8.25 4.92893 8.25 7C8.25 9.07107 9.92893 10.75 12 10.75H18.25V11C18.25 11.6904 17.6904 12.25 17 12.25H3C2.30964 12.25 1.75 11.6904 1.75 11V3C1.75 2.30964 2.30964 1.75 3 1.75H17C17.6904 1.75 18.25 2.30964 18.25 3V3.25ZM12 6.25002C12.4142 6.25002 12.75 6.5858 12.75 7.00002V7.01001C12.75 7.42422 12.4142 7.76001 12 7.76001C11.5858 7.76001 11.25 7.42422 11.25 7.01001V7.00002C11.25 6.5858 11.5858 6.25002 12 6.25002Z" fill="#007A8F"/>
</svg>
