<svg width="13" height="13" viewBox="0 0 13 13" fill="none" xmlns="http://www.w3.org/2000/svg">
<path fill-rule="evenodd" clip-rule="evenodd" d="M6.33333 0.5C6.05719 0.5 5.83333 0.723858 5.83333 1C5.83333 1.27614 6.05719 1.5 6.33333 1.5C7.28928 1.5 8.22375 1.78347 9.01859 2.31456C9.81343 2.84566 10.4329 3.60052 10.7988 4.4837C11.1646 5.36687 11.2603 6.33869 11.0738 7.27627C10.8873 8.21384 10.427 9.07506 9.75102 9.75102C9.07506 10.427 8.21384 10.8873 7.27627 11.0738C6.33869 11.2603 5.36687 11.1646 4.4837 10.7988C3.60052 10.4329 2.84566 9.81343 2.31456 9.01859C1.78347 8.22375 1.5 7.28928 1.5 6.33333C1.5 4.85842 2.14101 3.52323 3.16667 2.6318V4.33341C3.16667 4.60956 3.39052 4.83342 3.66667 4.83342C3.94281 4.83342 4.16667 4.60956 4.16667 4.33341V1.67546C4.16762 1.62379 4.16057 1.57157 4.145 1.52071C4.13125 1.47562 4.1113 1.43323 4.08615 1.39454C4.03402 1.31403 3.96205 1.25312 3.88042 1.21461C3.84249 1.19665 3.80194 1.18332 3.75949 1.17535C3.72464 1.16875 3.68902 1.16582 3.65328 1.16675H1C0.723858 1.16675 0.5 1.39061 0.5 1.66675C0.5 1.94289 0.723858 2.16675 1 2.16675H2.20117C1.14174 3.2347 0.5 4.71879 0.5 6.33333C0.5 7.48706 0.842119 8.61487 1.48309 9.57416C2.12407 10.5334 3.03511 11.2811 4.10101 11.7226C5.16692 12.1641 6.3398 12.2797 7.47136 12.0546C8.60291 11.8295 9.64232 11.2739 10.4581 10.4581C11.2739 9.64232 11.8295 8.60291 12.0546 7.47136C12.2797 6.3398 12.1641 5.16692 11.7226 4.10101C11.2811 3.03511 10.5334 2.12407 9.57416 1.48309C8.61487 0.842119 7.48706 0.5 6.33333 0.5Z" fill="#007A8F"/>
</svg>
