<svg width="22" height="22" viewBox="0 0 22 22" xmlns="http://www.w3.org/2000/svg">
<path fill-rule="evenodd" clip-rule="evenodd" d="M16.2533 0.541202C16.958 -0.180402 18.1005 -0.1804 18.8052 0.541203L21.4715 3.27147C22.1762 3.99307 22.1762 5.16302 21.4715 5.88463L18.5916 8.83357L18.5788 8.84644L7.41363 19.7598C7.20964 19.9592 6.96286 20.1069 6.69307 20.191L0.998537 21.9657C0.725304 22.0508 0.428482 21.9748 0.226528 21.768C0.0245737 21.5612 -0.0496318 21.2573 0.0335259 20.9775L1.75923 15.1713C1.8496 14.8672 2.01505 14.5921 2.23958 14.3727L13.3798 3.48364L16.2533 0.541202ZM13.9077 5.15716L3.30753 15.5183C3.27546 15.5497 3.25182 15.589 3.23891 15.6324L1.9354 20.0182L6.24273 18.6758C6.28127 18.6638 6.31653 18.6427 6.34567 18.6142L16.9383 8.26044L13.9077 5.15716ZM18.0448 7.15368L20.3778 4.7647C20.4785 4.66161 20.4785 4.49448 20.3778 4.39139L17.7115 1.66113C17.6108 1.55804 17.4476 1.55804 17.347 1.66113L15.014 4.05011L18.0448 7.15368Z"/>
</svg>
