<svg width="12" height="16" viewBox="0 0 12 16" xmlns="http://www.w3.org/2000/svg">
<path fill-rule="evenodd" clip-rule="evenodd" d="M3.33335 6.50993C3.33335 5.03719 4.52724 3.84327 6 3.84327C7.47275 3.84327 8.66664 5.03719 8.66664 6.50993C8.66664 7.98268 7.47275 9.1766 6 9.1766C4.52724 9.1766 3.33335 7.98268 3.33335 6.50993ZM6 5.1766C5.26363 5.1766 4.66668 5.77356 4.66668 6.50993C4.66668 7.24631 5.26363 7.84327 6 7.84327C6.73636 7.84327 7.33331 7.24631 7.33331 6.50993C7.33331 5.77356 6.73636 5.1766 6 5.1766Z"/>
<path fill-rule="evenodd" clip-rule="evenodd" d="M6.00001 0.333252L7.60332 1.57546L9.63058 1.51289L10.1975 3.46026L11.8744 4.60123L11.1884 6.50993L11.8744 8.41863L10.1975 9.55961L9.63058 11.507L9.26695 11.4958L10.2356 15.3703L6.00001 14.5231L1.76438 15.3703L2.73301 11.4958L2.36945 11.507L1.8025 9.55961L0.125641 8.41863L0.811602 6.50993L0.125641 4.60123L1.8025 3.46026L2.36945 1.51289L4.39671 1.57546L6.00001 0.333252ZM4.11806 11.453L3.56891 13.6496L6.00001 13.1634L8.43105 13.6496L7.8819 11.453L7.60332 11.4444L6.00001 12.6866L4.39671 11.4444L4.11806 11.453ZM8.63916 10.1424L9.05129 8.72682L10.2702 7.89742L9.7716 6.50993L10.2702 5.12245L9.05129 4.29305L8.63916 2.87746L7.1655 2.92294L6.00001 2.01995L4.83453 2.92294L3.36087 2.87746L2.94874 4.29305L1.72978 5.12245L2.22843 6.50993L1.72978 7.89742L2.94874 8.72682L3.36087 10.1424L4.83453 10.0969L6.00001 10.9999L7.1655 10.0969L8.63916 10.1424Z"/>
</svg>
