<svg width="16" height="10" viewBox="0 0 16 10" fill="none" xmlns="http://www.w3.org/2000/svg">
<path d="M12.0147 4.99168C12.3029 5.13506 12.5819 5.30084 12.8498 5.48584C13.3333 5.81997 13.7715 6.20592 14.1685 6.639C14.6976 7.2164 15.1318 7.85863 15.4732 8.56394C15.689 9.00992 15.8598 9.47278 15.9951 9.94924C16.0055 9.98581 16.002 9.99965 15.9583 9.99965C15.0451 9.99848 14.1317 9.99836 13.2185 10C13.17 10.0001 13.1615 9.97479 13.1501 9.9395C12.9498 9.32517 12.6628 8.75539 12.2701 8.24153C11.6739 7.46166 10.9234 6.89575 9.98092 6.5989C9.71662 6.51566 9.44601 6.46279 9.17141 6.42879C9.13886 6.4248 9.12903 6.435 9.13184 6.46548C9.13324 6.48096 9.13207 6.49667 9.13207 6.51238C9.13207 7.64948 9.13207 8.7867 9.13207 9.92379C9.13207 9.99871 9.13207 9.99848 9.05619 9.99871C8.69131 10.0004 8.32655 9.99414 7.96273 9.96518C6.58296 9.85509 5.28176 9.49071 4.09731 8.75539C3.53945 8.40907 3.03687 7.99428 2.58861 7.51372C1.71787 6.5805 1.11727 5.48889 0.703915 4.28813C0.481077 3.64073 0.320301 2.97763 0.208823 2.3021C0.133294 1.84381 0.0793121 1.38342 0.0447681 0.920325C0.0236904 0.637897 0.0143225 0.355 0.000387831 0.0722197C-0.00230543 0.0178209 0.00788213 -0.000116668 0.0674852 5.7034e-07C0.937877 0.00222811 1.80827 0.00187639 2.67854 0.000586764C2.72398 0.000469525 2.74072 0.00715214 2.74166 0.0592062C2.74892 0.465321 2.7755 0.870264 2.82023 1.27415C2.9008 2.0022 3.04377 2.71654 3.27774 3.41142C3.48125 4.0159 3.74929 4.58908 4.11042 5.1163C4.53081 5.73005 5.0451 6.24449 5.70027 6.60746C5.93575 6.73795 6.18295 6.84088 6.44326 6.91181C6.4949 6.92588 6.50626 6.91603 6.50602 6.86445C6.5045 6.44438 6.5052 6.02432 6.5052 5.60425C6.5052 3.76372 6.5052 1.92319 6.50532 0.0826539C6.50532 -0.0131302 6.49607 0.00199363 6.58577 0.00187639C7.41131 0.00140744 8.23674 0.00222811 9.06228 0.000352287C9.11767 0.000235048 9.13336 0.0121934 9.13324 0.0699921C9.13137 1.34192 9.13184 2.61396 9.13184 3.88588C9.13184 3.95986 9.1316 3.95775 9.20654 3.94638C9.76827 3.86044 10.2531 3.60462 10.6959 3.26194C11.3766 2.7353 11.893 2.07126 12.2986 1.31683C12.5168 0.911063 12.69 0.486893 12.8135 0.0427927C12.8221 0.0120762 12.8348 0.000704003 12.8689 0.000821242C13.7022 0.00199363 14.5355 0.00175915 15.3688 0.00187639C15.3802 0.00187639 15.3917 0.00398669 15.4166 0.0064487C14.9802 2.14899 13.8042 3.77638 12.0147 4.99168Z" fill="#FEFEFF"/>
</svg>
