<svg width="34" height="25" viewBox="0 0 34 25" fill="#007A8F" xmlns="http://www.w3.org/2000/svg">
<g>
<path d="M16.1996 2.2998H1.59961V3.9998H16.1996V2.2998Z"/>
<path fill-rule="evenodd" clip-rule="evenodd" d="M16.2008 5.6001H2.40078V22.7001H1.60078C1.20078 22.7001 0.800781 23.1001 0.800781 23.5001C0.800781 23.9001 1.20078 24.3001 1.60078 24.3001H32.5008C32.9008 24.3001 33.3008 23.9001 33.3008 23.5001C33.3008 23.1001 32.9008 22.7001 32.5008 22.7001H31.7008V5.6001H29.3008V7.2001H30.0008V22.6001H27.6008V12.8001H21.1008V22.6001H4.00078V7.2001H16.2008V5.6001ZM25.9008 22.7001H22.7008V14.6001H25.9008V22.7001Z"/>
<path d="M29.1992 3.9998V2.2998H32.3992V3.9998H29.1992Z"/>
<path fill-rule="evenodd" clip-rule="evenodd" d="M6.39961 18.5999V12.8999H18.5996V18.5999H19.3996V20.1999H5.59961V18.5999H6.39961ZM8.09961 14.4999H16.9996V18.5999H8.09961V14.4999Z"/>
<path fill-rule="evenodd" clip-rule="evenodd" d="M19.6504 0H26.3496C27.2793 0 28 0.72168 28 1.64941V8.35059C28 9.27832 27.2793 10 26.3496 10H19.6504C19.1895 10 18.7793 9.82178 18.4844 9.52881C18.1836 9.23242 18 8.81738 18 8.35059V1.64941C18 0.72168 18.7207 0 19.6504 0ZM20.3203 1H25.6797C26.4219 1 27 1.57715 27 2.31982V7.68018C27 8.42285 26.4219 9 25.6797 9H20.3203C19.5781 9 19 8.42285 19 7.68018V2.31982C19 1.57715 19.5781 1 20.3203 1Z"/>
<path fill-rule="evenodd" clip-rule="evenodd" d="M22.1992 5.80029V7H23.7992V5.80029H25V4.30029H23.7992V3H22.1992V4.30029H21V5.80029H22.1992Z"/>
</g>
</svg>
