<svg width="26" height="36" viewBox="0 0 26 36" fill="none" xmlns="http://www.w3.org/2000/svg">
<path fill-rule="evenodd" clip-rule="evenodd" d="M4.25 13.625C4.25 13.1417 4.64174 12.75 5.125 12.75H20.875C21.3583 12.75 21.75 13.1417 21.75 13.625V26.75C21.75 27.2333 21.3583 27.625 20.875 27.625H5.125C4.64174 27.625 4.25 27.2333 4.25 26.75V13.625ZM6 18.875V21.5H9.5V18.875H6ZM6 25.875V23.25H9.5V25.875H6ZM11.25 25.875V23.25H14.75V25.875H11.25ZM16.5 25.875V23.25H20V25.875H16.5ZM16.5 18.875V21.5H20V18.875H16.5ZM11.25 21.5H14.75V18.875H11.25V21.5ZM6 17.125H20V14.5H6V17.125Z" fill="#007A8F"/>
<path fill-rule="evenodd" clip-rule="evenodd" d="M0.75 1.375C0.75 0.891755 1.14174 0.5 1.625 0.5H19.125C19.357 0.5 19.5797 0.59219 19.7437 0.756279L24.9937 6.00629C25.1578 6.17035 25.25 6.39295 25.25 6.625V34.625C25.25 35.1083 24.8583 35.5 24.375 35.5H1.625C1.14174 35.5 0.75 35.1083 0.75 34.625V1.375ZM2.5 2.25V33.75H23.5V7.5H19.125C18.6417 7.5 18.25 7.10826 18.25 6.625V2.25H2.5ZM20 3.48743V5.75H22.2626L20 3.48743Z" fill="#007A8F"/>
</svg>
