<svg width="16" height="16" viewBox="0 0 16 16" fill="none" xmlns="http://www.w3.org/2000/svg">
<path d="M15.3736 9.10545L14.0634 4.54864C13.6793 3.21368 12.8447 2.04112 11.6922 1.21733C10.5396 0.393548 9.13525 -0.0341803 7.70235 0.00213564C6.26945 0.0384516 4.89022 0.536728 3.7839 1.41776C2.67758 2.29879 1.90766 3.51202 1.59652 4.8646L0.582157 9.2741C0.470112 9.76133 0.472702 10.2667 0.589738 10.7528C0.706773 11.2389 0.935265 11.6935 1.25834 12.0828C1.58142 12.4722 1.99084 12.7864 2.45636 13.0023C2.92189 13.2182 3.43164 13.3303 3.94798 13.3303H4.71617C4.87443 14.0837 5.29729 14.7611 5.91309 15.2477C6.52889 15.7342 7.29976 16 8.09509 16C8.89042 16 9.66129 15.7342 10.2771 15.2477C10.8929 14.7611 11.3157 14.0837 11.474 13.3303H12.0519C12.5834 13.3303 13.1078 13.2116 13.5839 12.9833C14.0601 12.755 14.4753 12.4234 14.797 12.0144C15.1186 11.6053 15.3381 11.1299 15.4383 10.6253C15.5384 10.1207 15.5158 9.60052 15.3736 9.10545ZM8.09509 14.6635C7.66875 14.6618 7.25337 14.5328 6.90578 14.2941C6.55818 14.0555 6.29535 13.7189 6.15324 13.3303H10.0369C9.89483 13.7189 9.632 14.0555 9.2844 14.2941C8.93681 14.5328 8.52143 14.6618 8.09509 14.6635ZM13.6986 11.2072C13.5064 11.4536 13.2575 11.6533 12.9715 11.7904C12.6855 11.9276 12.3704 11.9983 12.0512 11.9971H3.94798C3.63821 11.9971 3.33241 11.9298 3.05314 11.8002C2.77388 11.6706 2.52828 11.4821 2.33448 11.2485C2.14068 11.0149 2.00362 10.7422 1.93342 10.4505C1.86323 10.1589 1.86168 9.8557 1.9289 9.5634L2.94258 5.15323C3.18693 4.09083 3.79166 3.13787 4.66063 2.44584C5.52959 1.75382 6.61293 1.36245 7.73842 1.33395C8.86391 1.30545 9.96697 1.64145 10.8722 2.28854C11.7775 2.93564 12.433 3.85668 12.7346 4.90526L14.0448 9.46207C14.1313 9.75895 14.1451 10.0713 14.085 10.3742C14.0249 10.6771 13.8926 10.9623 13.6986 11.2072Z" fill="white"/>
</svg>
