<svg width="79" height="79" viewBox="0 0 79 79" fill="none" xmlns="http://www.w3.org/2000/svg">
<path d="M47.908 13.7529L6.77116 54.8898C6.29282 55.3681 6.29294 55.3682 6.29294 55.8465L0.074331 74.98C-0.404006 76.8933 1.50969 78.8067 3.42304 78.3284L11.0763 75.9367L23.0347 72.1101C23.5131 72.1101 23.9912 71.6315 23.9912 71.6315L65.128 30.4947L47.908 13.7529Z" fill="white"/>
<path d="M75.1775 3.22877C70.3941 -1.07626 63.2191 -1.07626 58.4357 3.22877L52.6953 8.96887L68.9589 25.2321L74.6987 19.4923C77.0904 17.1007 78.0474 14.2306 78.0474 11.3606C78.5257 8.49053 77.5692 5.14212 75.1775 3.22877Z" fill="white"/>
</svg>
