<svg width="13" height="15" viewBox="0 0 13 15" fill="none" xmlns="http://www.w3.org/2000/svg">
<path fill-rule="evenodd" clip-rule="evenodd" d="M1.24783 0.389653C1.80353 0.179497 2.6126 0 3.75 0C4.96509 0 5.97093 0.380608 6.80475 0.69612C6.82114 0.702324 6.83747 0.708503 6.85373 0.714653C7.72916 1.04572 8.42648 1.3 9.25 1.3C10.1751 1.3 10.741 1.1545 11.0447 1.03965C11.1972 0.981987 11.2874 0.930618 11.3271 0.905587C11.3368 0.899477 11.3437 0.894836 11.3478 0.891933C11.6365 0.643419 12.0432 0.579796 12.3956 0.731574C12.7624 0.889561 13 1.25063 13 1.65V9.45C13 9.72494 12.8868 9.98776 12.687 10.1766L12 9.45C12.687 10.1766 12.6865 10.1772 12.6859 10.1777L12.6848 10.1787L12.6826 10.1808L12.6779 10.1851L12.6677 10.1945C12.6604 10.201 12.6524 10.2081 12.6436 10.2157C12.6259 10.2309 12.6051 10.2481 12.5808 10.267C12.5322 10.3048 12.4702 10.3492 12.3936 10.3975C12.2399 10.4944 12.0294 10.6055 11.7522 10.7103C11.1965 10.9205 10.3874 11.1 9.25 11.1C8.03491 11.1 7.02907 10.7194 6.19525 10.4039C6.17886 10.3977 6.16253 10.3915 6.14627 10.3853C5.27084 10.0543 4.57352 9.8 3.75 9.8C2.86851 9.8 2.31312 9.93211 2 10.0439V14C2 14.5523 1.55228 15 1 15C0.447715 15 0 14.5523 0 14V1.65C0 1.37506 0.113202 1.11224 0.312989 0.923353L1 1.65C0.312989 0.923353 0.313523 0.922848 0.31406 0.922341L0.31515 0.921316L0.317384 0.919222L0.322071 0.914868L0.332325 0.905513C0.339554 0.898993 0.347573 0.891917 0.356401 0.884329C0.374062 0.86915 0.394945 0.851937 0.41922 0.833036C0.467804 0.795208 0.52977 0.750779 0.606427 0.702462C0.760073 0.605618 0.970626 0.494487 1.24783 0.389653ZM2 2.24392V7.97048C2.46977 7.86853 3.04721 7.8 3.75 7.8C4.96509 7.8 5.97093 8.18061 6.80474 8.49612C6.82114 8.50232 6.83747 8.5085 6.85373 8.51465C7.72916 8.84572 8.42648 9.1 9.25 9.1C10.1315 9.1 10.6869 8.96789 11 8.85608V3.12952C10.5302 3.23147 9.95279 3.3 9.25 3.3C8.03491 3.3 7.02907 2.91939 6.19525 2.60388C6.17886 2.59768 6.16253 2.5915 6.14627 2.58535C5.27084 2.25428 4.57352 2 3.75 2C2.86851 2 2.31312 2.13211 2 2.24392Z" fill="#EF7F1A"/>
</svg>
