<svg width="21" height="26" viewBox="0 0 21 26" fill="none" xmlns="http://www.w3.org/2000/svg">
<path d="M9.85883 0.501209C11.0988 0.501209 12.3388 0.496833 13.5781 0.502668C15.0742 0.509233 16.2208 1.66317 16.2237 3.16358C16.2274 5.14175 16.2332 7.11993 16.2157 9.0981C16.2128 9.44093 16.3667 9.75312 16.3324 10.0945C16.2624 10.7831 16.2018 11.4724 16.1398 12.1609C16.0742 12.886 16.0064 13.611 15.9487 14.3368C15.8182 15.9984 15.0895 17.3478 13.8159 18.4076C13.6562 18.5404 13.6044 18.6637 13.6204 18.8701C13.6511 19.2786 13.6533 19.6907 13.6394 20.0999C13.6321 20.3304 13.7116 20.4223 13.937 20.4522C15.5206 20.6593 16.8941 21.3362 18.1005 22.3647C18.8832 23.0314 19.5506 23.798 20.067 24.6937C20.1947 24.9155 20.1662 25.0307 19.924 25.1219C19.6775 25.2145 19.4383 25.3305 19.2034 25.4523C19.0283 25.5435 18.9393 25.5056 18.8365 25.3334C17.9648 23.8797 16.746 22.8213 15.1763 22.1765C14.6416 21.957 14.08 21.8454 13.5066 21.7805C13.344 21.7622 13.274 21.849 13.193 21.9468C12.3914 22.9045 11.5905 23.8622 10.7888 24.8199C10.7363 24.8827 10.6853 24.9476 10.6298 25.0081C10.2651 25.41 9.83768 25.4144 9.48172 25.0089C8.81431 24.2481 8.15346 23.4822 7.49042 22.7185C7.21543 22.4019 6.93679 22.0883 6.66837 21.7666C6.54947 21.6244 6.41818 21.5828 6.23582 21.612C4.01694 21.9701 2.36627 23.1306 1.30132 25.1117C1.19848 25.3028 1.10001 25.3356 0.916192 25.2393C0.68205 25.1168 0.443531 24.9994 0.197718 24.9045C-0.018919 24.8214 -0.045178 24.7171 0.0591285 24.515C0.74478 23.186 1.71855 22.1255 2.99284 21.3435C3.97026 20.744 5.02937 20.3756 6.17018 20.2443C6.55823 20.1998 6.52029 20.1925 6.56698 19.7921C6.63846 19.175 6.42985 18.7913 5.91707 18.3938C4.54285 17.3288 3.84699 15.8773 3.76019 14.1223C3.70913 13.0873 3.56105 12.0566 3.47717 11.0223C3.4356 10.511 3.28023 9.99675 3.48374 9.48251C3.51802 9.39498 3.49395 9.28411 3.49395 9.18345C3.49468 7.19579 3.49322 5.20886 3.49541 3.2212C3.49833 1.63691 4.63403 0.504127 6.22124 0.501939C7.43425 0.49975 8.64654 0.501209 9.85883 0.501209ZM9.8581 10.6051C9.78516 10.6051 9.71222 10.6051 9.63928 10.6051C8.13595 10.6051 6.63336 10.6087 5.13003 10.6007C4.90391 10.5992 4.80544 10.6678 4.84264 10.8976C4.85285 10.9603 4.85431 11.0245 4.86015 11.088C4.94622 12.0209 5.05636 12.9523 5.11252 13.8867C5.16869 14.8269 5.38168 15.703 5.94479 16.4725C7.08559 18.0313 9.08274 18.7775 10.9821 18.299C12.8677 17.8241 14.1442 16.6651 14.495 14.7197C14.7248 13.4447 14.7554 12.1332 14.8787 10.8385C14.9013 10.5985 14.7518 10.6029 14.5847 10.6036C13.0099 10.6051 11.4344 10.6043 9.8581 10.6051ZM9.84279 9.25274C11.4103 9.25274 12.9778 9.24618 14.5453 9.25858C14.8159 9.26077 14.8794 9.17178 14.8779 8.91502C14.8685 7.05574 14.8736 5.19719 14.8721 3.33791C14.8714 2.39113 14.3418 1.85428 13.4038 1.85355C11.0347 1.85136 8.66478 1.85136 6.29564 1.85355C5.3897 1.85501 4.84993 2.39623 4.84847 3.30362C4.84556 5.18114 4.85212 7.05866 4.84264 8.93544C4.84118 9.18928 4.91777 9.26004 5.16796 9.25858C6.72599 9.24836 8.28475 9.25347 9.84279 9.25274ZM7.91056 20.334C7.91056 20.5346 7.91421 20.7345 7.9091 20.9351C7.90619 21.051 7.94193 21.1444 8.01852 21.2319C8.6356 21.9373 9.25415 22.6419 9.86175 23.3553C10.0127 23.5325 10.1039 23.5077 10.2389 23.3421C10.6517 22.8337 11.0376 22.294 11.5059 21.841C12.1317 21.2356 12.3965 20.5485 12.2535 19.6965C12.2506 19.679 12.2513 19.66 12.2528 19.6418C12.2783 19.4179 12.217 19.3573 11.9822 19.4419C11.3279 19.6776 10.6517 19.7986 9.95074 19.8001C9.35554 19.8008 8.76836 19.7549 8.19795 19.582C7.96235 19.5112 7.8843 19.5747 7.90765 19.8154C7.92369 19.9868 7.91056 20.1612 7.91056 20.334Z" fill="#007A8F"/>
<path d="M9.18485 4.01699C9.18485 3.80765 9.19142 3.59758 9.18266 3.38897C9.17537 3.21026 9.2308 3.11835 9.42848 3.12492C9.71951 3.13513 10.0113 3.13367 10.3023 3.12565C10.4832 3.12054 10.5401 3.20224 10.5372 3.37219C10.5306 3.79087 10.5423 4.20956 10.5328 4.62824C10.5284 4.82008 10.5999 4.88427 10.7881 4.87989C11.2068 4.87041 11.6255 4.88208 12.0442 4.87552C12.217 4.8726 12.2922 4.93606 12.2871 5.11404C12.279 5.39632 12.2776 5.6786 12.2885 5.96089C12.2965 6.16002 12.2229 6.23734 12.0201 6.23223C11.6291 6.22202 11.2367 6.24171 10.8457 6.22494C10.6116 6.21545 10.5182 6.28037 10.5306 6.5291C10.5496 6.91934 10.5255 7.3125 10.5394 7.70346C10.5467 7.92302 10.4591 7.99231 10.2513 7.98283C9.98794 7.97043 9.72243 7.96824 9.45984 7.98283C9.2381 7.99523 9.1761 7.90113 9.18193 7.69398C9.19288 7.28478 9.17902 6.87485 9.18704 6.46491C9.19069 6.28694 9.12285 6.22348 8.94706 6.2264C8.52838 6.23442 8.10969 6.22275 7.69101 6.23077C7.50574 6.23442 7.42623 6.17096 7.43279 5.97839C7.44301 5.69684 7.44228 5.41383 7.43279 5.13154C7.42623 4.94554 7.4948 4.87041 7.6859 4.87406C8.0951 4.88281 8.50577 4.86895 8.91497 4.87916C9.11118 4.88427 9.20163 4.82592 9.18777 4.61657C9.17464 4.41744 9.18485 4.21612 9.18485 4.01554V4.01699Z" fill="#007A8F"/>
</svg>
