<svg width="26" height="22" viewBox="0 0 26 22" fill="none" xmlns="http://www.w3.org/2000/svg">
<path d="M18.9499 7.41319C18.8502 7.50787 18.843 7.62048 18.8107 7.71875C17.8955 10.4925 16.9824 13.2669 16.0693 16.0406C16.047 16.1087 16.0269 16.1776 16.0026 16.245C15.8864 16.5592 15.6389 16.7507 15.3448 16.7557C15.0687 16.76 14.8198 16.5857 14.6985 16.273C14.3306 15.3205 13.9712 14.3643 13.609 13.4089C13.4498 12.99 13.2819 12.574 13.1363 12.1508C13.0675 11.9507 12.9642 11.8711 12.7461 11.8754C12.0561 11.8883 11.3654 11.861 10.6761 11.8868C10.2091 11.9048 9.93726 11.7118 9.77946 11.2851C9.63744 10.902 9.46385 10.5305 9.24437 10.1568C9.08298 10.7206 8.92159 11.2836 8.76092 11.8481C8.56726 12.5288 8.37575 13.2102 8.18136 13.8902C8.03934 14.3887 7.84568 14.601 7.5021 14.6118C7.06384 14.6254 6.88668 14.322 6.74179 13.9713C6.3688 13.0689 5.98147 12.1716 5.61207 11.2678C5.53604 11.0813 5.43347 11.0146 5.23263 11.0161C3.75361 11.0232 2.27458 11.0204 0.795554 11.0197C0.2246 11.0189 0.00439624 10.7966 0.00367896 10.2192C0.00296168 7.96047 -0.000624705 5.70104 0.00439624 3.44234C0.0058308 1.60897 1.38659 0.226063 3.21995 0.225346C9.40504 0.22176 15.5901 0.22176 21.7752 0.225346C23.6229 0.226781 24.9936 1.61184 24.9965 3.46601C24.9987 4.61365 24.9987 5.76058 24.9951 6.90822C24.9936 7.24032 24.7928 7.49567 24.5023 7.56238C24.1924 7.63411 23.8897 7.50356 23.7427 7.23745C23.6695 7.10547 23.6681 6.96345 23.6681 6.81928C23.6681 5.72543 23.6724 4.6323 23.6667 3.53845C23.6617 2.6562 23.2284 1.992 22.4789 1.69361C22.2171 1.58961 21.9409 1.55374 21.6626 1.55374C15.5578 1.55231 9.45381 1.55088 3.34906 1.55374C2.12826 1.55446 1.33566 2.33916 1.33208 3.55208C1.32562 5.49734 1.33351 7.44259 1.32562 9.38785C1.3249 9.62097 1.39018 9.69772 1.62903 9.69556C3.027 9.68552 4.4257 9.69915 5.82439 9.68552C6.2318 9.68193 6.48213 9.84763 6.63133 10.2163C6.84651 10.7464 7.0746 11.2714 7.30772 11.823C7.40527 11.7333 7.41388 11.6358 7.43898 11.5469C7.77682 10.3576 8.1125 9.16836 8.45178 7.97984C8.56726 7.57457 8.80181 7.35724 9.121 7.34576C9.42799 7.33429 9.66182 7.51934 9.82823 7.90667C9.8354 7.92317 9.84186 7.93967 9.84903 7.95617C10.1754 8.73298 10.5082 9.5062 10.8231 10.2873C10.9027 10.4846 11.0046 10.5592 11.219 10.5556C11.9449 10.5434 12.6708 10.5498 13.3974 10.5513C13.8314 10.552 14.0107 10.6718 14.1678 11.0806C14.4956 11.9335 14.8169 12.7892 15.1433 13.6427C15.1834 13.7475 15.1992 13.8673 15.2968 13.9512C15.3943 13.8644 15.4022 13.7424 15.4373 13.6363C16.3382 10.9056 17.2391 8.17422 18.1336 5.44067C18.257 5.06338 18.4026 4.70977 18.8666 4.70403C19.3164 4.69829 19.4699 5.04402 19.6119 5.40051C20.2603 7.02299 20.9217 8.64045 21.5672 10.2644C21.6547 10.4839 21.7695 10.5599 22.0033 10.5549C22.7471 10.5405 23.4909 10.5484 24.2355 10.5506C24.7598 10.552 24.9987 10.7844 24.9987 11.2987C25.0001 13.746 25.0051 16.1934 24.9965 18.64C24.9908 20.3651 23.5863 21.7717 21.8591 21.7731C15.6202 21.7788 9.38137 21.7788 3.14249 21.7731C1.416 21.7717 0.0144381 20.3636 0.00439624 18.6393C-0.00349382 17.3123 0.000809852 15.9861 0.00511352 14.6591C0.0058308 14.327 0.208103 14.0724 0.498601 14.0064C0.807747 13.9361 1.11259 14.0688 1.2582 14.3328C1.33064 14.4647 1.33208 14.6068 1.33208 14.7509C1.33208 15.9882 1.32849 17.2248 1.33351 18.4621C1.3371 19.3501 1.78181 20.0215 2.54858 20.3156C2.8025 20.4131 3.07004 20.4454 3.33974 20.4454C9.43516 20.4468 15.5306 20.4476 21.626 20.4454C22.5563 20.4454 23.2162 20.0287 23.5268 19.2605C23.633 18.9987 23.6674 18.7225 23.6681 18.4442C23.671 16.3555 23.666 14.2668 23.6746 12.1781C23.6753 11.9421 23.6071 11.8675 23.3697 11.8725C22.7156 11.8868 22.0614 11.8782 21.4065 11.8775C20.8686 11.8768 20.7265 11.7807 20.5214 11.2729C20.0344 10.0685 19.5488 8.86352 19.0617 7.65849C19.028 7.58031 18.9893 7.50213 18.9499 7.41319Z" fill="#007A8F"/>
</svg>
