<svg width="25" height="22" viewBox="0 0 25 22" fill="none" xmlns="http://www.w3.org/2000/svg">
<path d="M1.37363 6.55568C1.35929 7.08041 1.43958 7.59008 1.59298 8.09115C1.73922 8.56785 1.58367 8.93343 1.19299 9.05601C0.787975 9.18361 0.455362 8.96641 0.299091 8.47394C-0.87294 4.78222 1.52202 0.804488 5.34492 0.131377C7.54991 -0.257149 9.4739 0.350729 11.1026 1.88261C11.5198 2.27544 11.9226 2.68404 12.3205 3.09694C12.461 3.24317 12.5491 3.23529 12.6896 3.0955C13.2101 2.57795 13.7061 2.03387 14.2653 1.55645C18.0401 -1.66574 23.9734 0.431015 24.8859 5.30838C25.0193 6.01949 25.035 6.73202 24.9368 7.44599C24.8759 7.88828 24.572 8.11695 24.149 8.05889C23.7956 8.01086 23.5634 7.6976 23.6092 7.29116C23.7748 5.8073 23.4429 4.46466 22.5032 3.28762C20.6279 0.939253 17.0573 0.709148 14.8939 2.80232C14.276 3.40016 13.6753 4.01592 13.0638 4.62093C12.6825 4.99871 12.3291 4.99656 11.942 4.62093C11.2416 3.94137 10.6029 3.19371 9.84523 2.57723C8.31979 1.33495 6.58791 1.02886 4.74851 1.70054C2.9263 2.36648 1.83599 3.71485 1.44245 5.62092C1.37865 5.9306 1.38367 6.24314 1.37363 6.55568Z" fill="#007A8F"/>
<path d="M13.1986 13.3492C13.3011 13.2796 13.3377 13.1656 13.3936 13.0674C14.0201 11.9707 14.6523 10.8775 15.2631 9.77213C15.4638 9.40941 15.7226 9.25171 16.1448 9.25458C18.5634 9.26891 20.9827 9.26031 23.4014 9.26174C23.8508 9.26174 24.1246 9.50834 24.1318 9.90547C24.139 10.294 23.8824 10.5786 23.4931 10.585C22.929 10.5943 22.3641 10.5886 21.7999 10.5886C20.0795 10.5886 18.3598 10.5922 16.6394 10.5843C16.433 10.5836 16.319 10.6481 16.2172 10.8295C15.4222 12.2424 14.6144 13.6481 13.8144 15.0581C13.6337 15.3757 13.4624 15.7083 13.0258 15.6817C12.5749 15.6545 12.4452 15.3018 12.3126 14.9463C11.5793 12.9742 10.8402 11.0037 10.1019 9.03307C10.0617 8.92698 10.0158 8.82232 9.9506 8.6639C9.75275 9.14275 9.57498 9.5707 9.39864 9.99865C9.20796 10.4624 9.01656 10.9262 8.82803 11.3908C8.69613 11.7162 8.4689 11.8811 8.10618 11.8804C5.92914 11.8753 3.7521 11.8789 1.57506 11.8768C1.21808 11.8768 0.962166 11.6897 0.888332 11.3915C0.810914 11.0761 0.951414 10.7592 1.22811 10.6159C1.37076 10.542 1.52273 10.5499 1.6747 10.5499C3.57361 10.5499 5.47323 10.5449 7.37213 10.5556C7.62518 10.5571 7.75206 10.4825 7.84668 10.2431C8.29542 9.11121 8.76352 7.98649 9.22516 6.85962C9.2696 6.75209 9.3162 6.64529 9.36494 6.53991C9.48967 6.26894 9.69971 6.12558 10.0015 6.13346C10.3047 6.14206 10.509 6.30335 10.6151 6.57719C10.8768 7.25388 11.1284 7.93416 11.3828 8.61301C11.9456 10.1141 12.5061 11.6151 13.0703 13.1155C13.1033 13.1965 13.1111 13.2925 13.1986 13.3492Z" fill="#007A8F"/>
<path d="M12.4975 21.9842C12.2545 22 12.0904 21.8673 11.9341 21.7111C10.4352 20.2093 8.93412 18.7082 7.43378 17.2072C6.55422 16.3269 5.67323 15.4473 4.79438 14.5656C4.5994 14.3699 4.49546 14.1413 4.58363 13.8603C4.66607 13.5972 4.84671 13.4366 5.11481 13.3836C5.40155 13.3269 5.61086 13.4717 5.80226 13.6638C6.93415 14.7986 8.06818 15.9312 9.20151 17.0645C10.2338 18.0968 11.2696 19.1254 12.2932 20.1656C12.4638 20.339 12.5577 20.3226 12.7205 20.1591C15.033 17.8366 17.352 15.5205 19.6702 13.2036C19.7584 13.1155 19.8458 13.0223 19.9469 12.9499C20.2344 12.7427 20.5842 12.78 20.8236 13.0316C21.0602 13.2811 21.0759 13.6388 20.8587 13.9133C20.8143 13.9692 20.762 14.0194 20.7118 14.0696C18.1727 16.6086 15.6337 19.1477 13.0954 21.6874C12.9269 21.858 12.7542 22.01 12.4975 21.9842Z" fill="#007A8F"/>
</svg>
