<svg width="22" height="22" viewBox="0 0 22 22" fill="none" xmlns="http://www.w3.org/2000/svg">
<path fill-rule="evenodd" clip-rule="evenodd" d="M11 1.74976C5.89137 1.74976 1.75 5.89112 1.75 10.9998C1.75 13.2259 2.53638 15.2683 3.8465 16.8645C4.50305 14.9551 6.31478 13.5831 8.44697 13.5831H13.553C15.6852 13.5831 17.4969 14.9551 18.1535 16.8645C19.4636 15.2683 20.25 13.2259 20.25 10.9998C20.25 5.89112 16.1086 1.74976 11 1.74976ZM16.9013 18.1231C16.7384 16.4172 15.3015 15.0831 13.553 15.0831H8.44697C6.69846 15.0831 5.26156 16.4172 5.0987 18.1231C6.70017 19.4513 8.75684 20.2498 11 20.2498C13.2432 20.2498 15.2998 19.4513 16.9013 18.1231ZM0.25 10.9998C0.25 5.0627 5.06294 0.249756 11 0.249756C16.9371 0.249756 21.75 5.0627 21.75 10.9998C21.75 16.9368 16.9371 21.7498 11 21.7498C5.06294 21.7498 0.25 16.9368 0.25 10.9998ZM11 5.08309C9.57327 5.08309 8.41667 6.23969 8.41667 7.66642C8.41667 9.09316 9.57327 10.2498 11 10.2498C12.4267 10.2498 13.5833 9.09316 13.5833 7.66642C13.5833 6.23969 12.4267 5.08309 11 5.08309ZM6.91667 7.66642C6.91667 5.41126 8.74484 3.58309 11 3.58309C13.2552 3.58309 15.0833 5.41126 15.0833 7.66642C15.0833 9.92159 13.2552 11.7498 11 11.7498C8.74484 11.7498 6.91667 9.92159 6.91667 7.66642Z" fill="#0E3449"/>
</svg>
