<svg width="60" height="60" viewBox="0 0 60 60" fill="none" xmlns="http://www.w3.org/2000/svg">
<circle cx="30" cy="30" r="30" fill="#007A8F"/>
<path d="M40.2625 31.3094C40.2625 34.9035 40.2625 38.4977 40.2625 42.0919C40.2625 42.4993 40.2611 42.5 39.8501 42.5C33.3611 42.5 26.8713 42.5 20.3823 42.5C20.0022 42.5 20.0007 42.4986 20.0007 42.1148C20 34.8906 20 27.6664 20 20.4422C20 20.0879 20.0014 20.0864 20.3572 20.0864C21.5765 20.0857 22.7952 20.0936 24.0138 20.0814C24.2756 20.0785 24.3645 20.1625 24.3444 20.4192C24.3258 20.6595 24.3286 20.9034 24.3437 21.1444C24.3566 21.3624 24.2634 21.4198 24.0597 21.4184C23.2528 21.4105 22.4458 21.4248 21.6396 21.4098C21.3872 21.4048 21.3233 21.488 21.3233 21.7318C21.3291 28.1047 21.3298 34.4775 21.3226 40.8503C21.3226 41.1178 21.4108 41.1767 21.6619 41.1759C27.2995 41.1695 32.9372 41.1716 38.5748 41.1716C38.9313 41.1716 38.9327 41.1709 38.9327 40.8209C38.9327 34.466 38.9306 28.1111 38.9385 21.7562C38.9385 21.4822 38.8639 21.4048 38.5913 21.4098C37.6596 21.4263 36.7272 21.4098 35.7947 21.4205C35.5616 21.4234 35.4705 21.3545 35.4856 21.115C35.5028 20.8474 35.4949 20.577 35.4892 20.3088C35.4856 20.1474 35.553 20.0864 35.713 20.0864C37.1561 20.0893 38.5992 20.0893 40.0423 20.0864C40.2051 20.0864 40.2639 20.1546 40.2625 20.3124C40.2575 20.6975 40.2618 21.0834 40.2618 21.4686C40.2625 24.7486 40.2625 28.0286 40.2625 31.3094Z" fill="white"/>
<path d="M29.9154 22.7066C28.5892 22.7066 27.2629 22.6994 25.9367 22.7123C25.6649 22.7152 25.5853 22.6348 25.5874 22.3637C25.5996 20.8582 25.5996 19.3527 25.5874 17.8479C25.5853 17.5753 25.667 17.4993 25.9375 17.5C28.5899 17.5093 31.2423 17.5093 33.8947 17.5C34.1665 17.4993 34.2462 17.5775 34.244 17.8486C34.2318 19.3541 34.2318 20.8596 34.244 22.3644C34.2462 22.637 34.1644 22.7152 33.894 22.7123C32.5678 22.6994 31.2416 22.7066 29.9154 22.7066ZM29.8888 21.3775C30.8033 21.3775 31.7178 21.3725 32.6316 21.3811C32.8389 21.3832 32.9171 21.3244 32.9128 21.1071C32.9006 20.435 32.902 19.7622 32.9121 19.0902C32.9149 18.8865 32.8403 18.8298 32.6452 18.8305C30.8256 18.8363 29.0059 18.8363 27.1862 18.8305C26.9911 18.8298 26.9158 18.8872 26.9187 19.0909C26.928 19.763 26.9301 20.4357 26.9179 21.1078C26.9144 21.3251 26.9918 21.384 27.1991 21.3818C28.0964 21.3725 28.993 21.3775 29.8888 21.3775Z" fill="white"/>
<path d="M25.6986 30.1768C25.5222 30.1704 25.3608 30.0986 25.2295 29.9674C24.7217 29.4624 24.2182 28.9532 23.7082 28.4511C23.592 28.337 23.5899 28.2531 23.7089 28.1412C23.9299 27.9325 24.1472 27.7188 24.3545 27.4957C24.4807 27.3601 24.5689 27.3888 24.6837 27.5079C24.9692 27.8048 25.2697 28.0867 25.5516 28.3865C25.6828 28.5264 25.7675 28.5135 25.8966 28.3822C26.4919 27.7754 27.1008 27.1815 27.694 26.5726C27.8418 26.4212 27.9393 26.4134 28.0821 26.5733C28.2721 26.7871 28.4808 26.9843 28.6874 27.183C28.8036 27.2942 28.8 27.3845 28.6867 27.4971C27.8619 28.3177 27.0413 29.1425 26.2172 29.9638C26.078 30.1015 25.9088 30.1775 25.6986 30.1768Z" fill="white"/>
<path d="M25.8119 36.4134C25.5229 36.4155 25.3579 36.3287 25.2209 36.1932C24.7117 35.6896 24.2081 35.1804 23.6989 34.6776C23.592 34.5722 23.5906 34.4918 23.6996 34.3878C23.9263 34.1712 24.1493 33.951 24.3638 33.7229C24.4821 33.5974 24.5661 33.6261 24.6722 33.7358C24.9649 34.0378 25.2711 34.3269 25.5602 34.6324C25.6835 34.7622 25.7624 34.7543 25.8844 34.6303C26.4797 34.0235 27.0887 33.4296 27.6818 32.8206C27.8353 32.6628 27.9393 32.647 28.0899 32.8185C28.2786 33.0329 28.4887 33.2295 28.6946 33.4281C28.8007 33.5314 28.8 33.6182 28.6953 33.7222C27.8647 34.5492 27.037 35.3798 26.2057 36.2061C26.0752 36.3352 25.9131 36.4112 25.8119 36.4134Z" fill="white"/>
<path d="M33.8144 29.9839C34.7102 29.9839 35.6061 29.991 36.5019 29.9788C36.7444 29.976 36.8426 30.047 36.8247 30.2973C36.8068 30.5469 36.8118 30.7994 36.8225 31.049C36.8312 31.2462 36.7558 31.3165 36.5579 31.3144C35.8234 31.3065 35.0889 31.3115 34.3545 31.3115C33.2614 31.3115 32.169 31.3058 31.0759 31.3158C30.8335 31.318 30.7345 31.2477 30.7538 30.9973C30.7725 30.7571 30.7696 30.5132 30.7546 30.2722C30.7409 30.0499 30.8241 29.9767 31.0465 29.9788C31.9689 29.9896 32.8913 29.9839 33.8144 29.9839Z" fill="white"/>
<path d="M33.7972 33.426C34.693 33.426 35.5889 33.4339 36.4847 33.421C36.735 33.4174 36.8462 33.4819 36.8247 33.7495C36.8046 33.9984 36.8132 34.2508 36.8218 34.5012C36.8283 34.6819 36.7652 34.7565 36.5758 34.7565C34.7217 34.7522 32.8676 34.7515 31.0128 34.7572C30.8069 34.7579 30.7474 34.6747 30.7553 34.4847C30.7653 34.2429 30.7725 33.9998 30.7538 33.7595C30.7345 33.5056 30.8191 33.4159 31.0831 33.4202C31.9875 33.4353 32.8927 33.426 33.7972 33.426Z" fill="white"/>
<path d="M33.7943 36.8688C34.6901 36.8688 35.586 36.8796 36.4811 36.8624C36.7601 36.8573 36.8469 36.9506 36.8233 37.216C36.8046 37.429 36.8025 37.647 36.824 37.8601C36.8527 38.1427 36.7322 38.2058 36.4704 38.2029C35.3687 38.1907 34.267 38.1979 33.1653 38.1979C32.4666 38.1979 31.768 38.1879 31.0694 38.2029C30.8162 38.2087 30.7381 38.1168 30.7546 37.8766C30.7703 37.6449 30.7732 37.4096 30.7538 37.1787C30.7323 36.9212 30.8435 36.8616 31.0802 36.8645C31.9846 36.8746 32.8898 36.8688 33.7943 36.8688Z" fill="white"/>
<path d="M31.8398 27.8694C31.5536 27.8694 31.2667 27.8651 30.9805 27.8708C30.8213 27.8744 30.7531 27.8113 30.7567 27.6499C30.7632 27.3544 30.7624 27.0589 30.7567 26.7641C30.7538 26.6041 30.8184 26.5396 30.9791 26.541C31.5608 26.5453 32.1424 26.5453 32.7241 26.5417C32.8834 26.5403 32.9515 26.602 32.9479 26.7634C32.9415 27.0589 32.9415 27.3544 32.9479 27.6492C32.9515 27.8091 32.887 27.8751 32.7256 27.8723C32.4308 27.8644 32.1353 27.8694 31.8398 27.8694Z" fill="white"/>
</svg>
