<svg width="34" height="23" viewBox="0 0 34 23" fill="none" xmlns="http://www.w3.org/2000/svg">
<path fill-rule="evenodd" clip-rule="evenodd" d="M5.52344 18V21.25C5.52344 22.1475 6.25095 22.875 7.14844 22.875H31.5234C32.4208 22.875 33.1484 22.1475 33.1484 21.25V8.25C33.1484 7.35251 32.4208 6.625 31.5234 6.625H29.5008V9.60582C29.5886 9.73647 29.6889 9.85859 29.8008 9.97039C30.0271 10.1967 30.2958 10.3763 30.5915 10.4988C30.887 10.6212 31.2036 10.6842 31.5234 10.6843V18.8125C31.2081 18.8144 30.8962 18.8773 30.6048 18.9981C30.3091 19.1205 30.0404 19.3001 29.814 19.5264C29.5877 19.7528 29.4082 20.0215 29.2857 20.3172C29.1631 20.6129 29.1001 20.9299 29.1001 21.25H9.58253C9.57863 20.9403 9.51574 20.634 9.39719 20.3477C9.27467 20.052 9.09511 19.7834 8.86874 19.557C8.64246 19.3306 8.37377 19.1511 8.07802 19.0286C7.78324 18.9065 7.46742 18.8435 7.14844 18.8431V18H5.52344Z" fill="#007A8F"/>
<path fill-rule="evenodd" clip-rule="evenodd" d="M14.0625 9.875C14.96 9.875 15.6875 9.14749 15.6875 8.25C15.6875 7.35251 14.96 6.625 14.0625 6.625C13.165 6.625 12.4375 7.35251 12.4375 8.25C12.4375 9.14749 13.165 9.875 14.0625 9.875ZM14.0625 11.5C15.8574 11.5 17.3125 10.0449 17.3125 8.25C17.3125 6.45511 15.8574 5 14.0625 5C12.2676 5 10.8125 6.45511 10.8125 8.25C10.8125 10.0449 12.2676 11.5 14.0625 11.5Z" fill="#007A8F"/>
<path fill-rule="evenodd" clip-rule="evenodd" d="M1.875 0.125C0.977537 0.125 0.25 0.852513 0.25 1.75V14.75C0.25 15.6475 0.977537 16.375 1.875 16.375H26.25C27.1475 16.375 27.875 15.6475 27.875 14.75V1.75C27.875 0.852513 27.1475 0.125 26.25 0.125H1.875ZM4.31101 1.75H23.8134C23.8138 2.06899 23.8769 2.38489 23.999 2.67958C24.1214 2.97533 24.301 3.24403 24.5273 3.47039C24.7537 3.69675 25.0224 3.87631 25.3181 3.99876C25.6136 4.1212 25.9302 4.18417 26.25 4.18433V12.3126C25.9347 12.3144 25.6227 12.3773 25.3314 12.4981C25.0356 12.6205 24.7669 12.8001 24.5406 13.0264C24.3143 13.2528 24.1347 13.5215 24.0122 13.8172C23.8898 14.1129 23.8267 14.4299 23.8267 14.75H4.3091C4.30521 14.4403 4.24234 14.134 4.12374 13.8477C4.00125 13.552 3.8217 13.2834 3.59536 13.057C3.36902 12.8306 3.10031 12.6511 2.80458 12.5286C2.50984 12.4065 2.194 12.3435 1.875 12.3431V4.1875C2.19459 4.18734 2.51103 4.12429 2.8063 4.00192C3.10204 3.87948 3.37074 3.69992 3.59709 3.47356C3.82343 3.24719 4.00297 2.9785 4.12547 2.68283C4.24796 2.38708 4.31101 2.07012 4.31101 1.75Z" fill="#007A8F"/>
</svg>
