<svg width="16" height="12" viewBox="0 0 16 12" xmlns="http://www.w3.org/2000/svg">
<path d="M5.99999 5.33342H9.99999V6.66675H5.99999V5.33342Z"/>
<path d="M6.66666 7.33342H9.33332V8.66675H6.66666V7.33342Z"/>
<path fill-rule="evenodd" clip-rule="evenodd" d="M7.13147 0.666748H8.86851L10.8685 2.00008H12.6667V2.66675H15.3333V7.81392L12.6667 8.70281V9.6902L10.2018 11.3334H5.79814L3.33332 9.6902V8.70281L0.666656 7.81392V2.66675H3.33332V2.00008H5.13147L7.13147 0.666748ZM3.33332 4.00008H1.99999V6.85291L3.33332 7.29735V4.00008ZM4.66666 3.33341H5.53517L7.53517 2.00008H8.46481L10.4648 3.33341H11.3333V8.97663L9.79814 10.0001H6.20184L4.66666 8.97663V3.33341ZM12.6667 4.00008V7.29735L14 6.85291V4.00008H12.6667Z"/>
</svg>
