<svg width="18" height="12" viewBox="0 0 18 12" fill="none" xmlns="http://www.w3.org/2000/svg">
<path d="M9.28161 0.00691223C8.18109 0.00691223 7.38049 -0.0119267 6.5805 0.011034C5.16775 0.0510674 3.75376 0.0869789 2.34655 0.235338C1.36981 0.338366 0.614784 0.955938 0.359823 1.86788C0.186769 2.48839 0.113483 3.12422 0.0660632 3.76239C-0.0213872 4.94456 -0.00599101 6.12907 0.0217221 7.31182C0.0438927 8.22906 0.122105 9.14512 0.340731 10.0447C0.568595 10.9831 1.39876 11.6454 2.39951 11.7373C3.57085 11.845 4.74343 11.9004 5.91785 11.9475C7.85592 12.0258 9.79461 12.0022 11.7321 11.9686C13.0284 11.9463 14.326 11.8762 15.6181 11.7373C16.6435 11.6272 17.412 11.0343 17.6608 10.0877C17.8222 9.47304 17.8979 8.84604 17.9429 8.21375C18.0303 6.98685 17.9952 5.75876 17.9811 4.53186C17.9712 3.68822 17.8869 2.84516 17.6898 2.01741C17.4416 0.973012 16.681 0.334245 15.5694 0.229451C14.4369 0.122892 13.3006 0.0852127 12.1638 0.0375261C11.1027 -0.00780582 10.0422 0.0328159 9.28161 0.00691223ZM6.72153 6.16086C6.72153 5.32311 6.72091 4.48535 6.72153 3.647C6.72153 3.37796 6.72584 3.3756 6.98388 3.50336C7.30474 3.66231 7.62375 3.8248 7.9446 3.98317C9.31671 4.66256 10.6888 5.34077 12.0603 6.02134C12.125 6.05313 12.2211 6.06726 12.2211 6.15851C12.2211 6.22621 12.1447 6.24446 12.0917 6.27037C10.3729 7.12461 8.65283 7.9765 6.93585 8.83309C6.74863 8.9267 6.71783 8.86841 6.71907 8.69533C6.72399 7.85169 6.72153 7.00627 6.72153 6.16086Z" fill="#FBFBFB"/>
</svg>
