<svg width="16" height="15" viewBox="0 0 16 15" fill="none" xmlns="http://www.w3.org/2000/svg">
<path d="M12.6667 2.66667H10.6667V2C10.6667 1.46957 10.456 0.960859 10.0809 0.585786C9.70581 0.210714 9.1971 0 8.66667 0H7.33333C6.8029 0 6.29419 0.210714 5.91912 0.585786C5.54405 0.960859 5.33333 1.46957 5.33333 2V2.66667H3.33333C2.4496 2.66773 1.60237 3.01925 0.97748 3.64415C0.352588 4.26904 0.00105857 5.11627 0 6L0 11.3333C0.00105857 12.2171 0.352588 13.0643 0.97748 13.6892C1.60237 14.3141 2.4496 14.6656 3.33333 14.6667H12.6667C13.5504 14.6656 14.3976 14.3141 15.0225 13.6892C15.6474 13.0643 15.9989 12.2171 16 11.3333V6C15.9989 5.11627 15.6474 4.26904 15.0225 3.64415C14.3976 3.01925 13.5504 2.66773 12.6667 2.66667ZM6.66667 2C6.66667 1.82319 6.73691 1.65362 6.86193 1.5286C6.98695 1.40357 7.15652 1.33333 7.33333 1.33333H8.66667C8.84348 1.33333 9.01305 1.40357 9.13807 1.5286C9.2631 1.65362 9.33333 1.82319 9.33333 2V2.66667H6.66667V2ZM14.6667 11.3333C14.6667 11.8638 14.456 12.3725 14.0809 12.7475C13.7058 13.1226 13.1971 13.3333 12.6667 13.3333H3.33333C2.8029 13.3333 2.29419 13.1226 1.91912 12.7475C1.54405 12.3725 1.33333 11.8638 1.33333 11.3333V6C1.33333 5.46957 1.54405 4.96086 1.91912 4.58579C2.29419 4.21071 2.8029 4 3.33333 4H12.6667C13.1971 4 13.7058 4.21071 14.0809 4.58579C14.456 4.96086 14.6667 5.46957 14.6667 6V11.3333ZM10.6667 8.66667C10.6667 8.84348 10.5964 9.01305 10.4714 9.13807C10.3464 9.2631 10.1768 9.33333 10 9.33333H8.66667V10.6667C8.66667 10.8435 8.59643 11.013 8.47141 11.1381C8.34638 11.2631 8.17681 11.3333 8 11.3333C7.82319 11.3333 7.65362 11.2631 7.5286 11.1381C7.40357 11.013 7.33333 10.8435 7.33333 10.6667V9.33333H6C5.82319 9.33333 5.65362 9.2631 5.5286 9.13807C5.40357 9.01305 5.33333 8.84348 5.33333 8.66667C5.33333 8.48986 5.40357 8.32029 5.5286 8.19526C5.65362 8.07024 5.82319 8 6 8H7.33333V6.66667C7.33333 6.48986 7.40357 6.32029 7.5286 6.19526C7.65362 6.07024 7.82319 6 8 6C8.17681 6 8.34638 6.07024 8.47141 6.19526C8.59643 6.32029 8.66667 6.48986 8.66667 6.66667V8H10C10.1768 8 10.3464 8.07024 10.4714 8.19526C10.5964 8.32029 10.6667 8.48986 10.6667 8.66667Z" fill="#007A8F"/>
</svg>
