<svg width="24" height="26" viewBox="0 0 24 26" fill="none" xmlns="http://www.w3.org/2000/svg">
<path d="M23.2874 6.34884C23.3089 8.96673 23.0978 11.5616 22.4502 14.107C21.3214 18.5422 18.6992 21.8472 14.8004 24.1779C13.9668 24.6762 13.0807 25.0668 12.1717 25.4093C11.8213 25.5414 11.5104 25.53 11.1658 25.3698C8.69366 24.2232 6.44052 22.7663 4.53275 20.8004C2.38516 18.5874 1.10996 15.9372 0.544165 12.9244C0.285678 11.5487 0.123406 10.1629 0.0465786 8.76425C-0.0216331 7.52567 0.00134349 6.28852 0.0149858 5.05138C0.02073 4.55021 0.0717092 4.04903 0.115508 3.54929C0.160025 3.04237 0.5894 2.7846 1.09704 2.9799C2.13744 3.37912 3.21662 3.44589 4.30442 3.3425C5.62701 3.21685 6.88641 2.82625 8.09771 2.2863C9.05052 1.86195 9.96742 1.37513 10.7881 0.720301C11.1737 0.412989 11.5815 0.4453 11.9872 0.705222C12.7059 1.16475 13.4484 1.58192 14.2253 1.93662C15.7676 2.64028 17.3573 3.18454 19.0568 3.34322C19.4043 3.37553 19.7569 3.35255 20.1051 3.37553C20.6522 3.41215 20.9689 3.90686 20.7384 4.3549C20.5962 4.63134 20.3528 4.73186 20.0491 4.73617C18.7179 4.75269 17.4262 4.51646 16.1596 4.12586C14.5749 3.63689 13.07 2.96841 11.6612 2.09028C11.4918 1.98473 11.369 1.98617 11.2024 2.09961C9.2214 3.44589 7.05586 4.33624 4.67635 4.66437C3.67544 4.80223 2.67093 4.78571 1.68222 4.55308C1.44743 4.49779 1.38568 4.55739 1.37706 4.79074C1.32896 6.02788 1.3146 7.26503 1.38353 8.50217C1.51492 10.8738 1.81362 13.216 2.6616 15.4562C3.3473 17.2677 4.44084 18.8086 5.80939 20.1621C7.48093 21.8156 9.43107 23.06 11.5514 24.053C11.6892 24.1176 11.8048 24.0982 11.9362 24.048C13.6315 23.4039 15.1616 22.4863 16.5258 21.2915C19.3016 18.8624 20.9007 15.7965 21.4887 12.1734C21.7551 10.5334 21.8937 8.88488 21.9411 7.22482C21.9727 6.12051 21.9339 5.01979 21.8729 3.91907C21.8671 3.81137 21.8628 3.70366 21.8657 3.59596C21.875 3.20895 22.1184 2.94185 22.4861 2.91097C22.8278 2.88225 23.1395 3.10986 23.189 3.47462C23.245 3.89107 23.2723 4.31326 23.2852 4.7333C23.2996 5.27181 23.2874 5.81033 23.2874 6.34884Z" fill="#007A8F"/>
<path d="M17.9712 10.127C17.9661 11.4324 17.5461 12.3062 16.8116 13.0422C15.4682 14.3878 14.1348 15.7441 12.777 17.0753C10.9662 18.8502 8.20469 18.4654 6.95965 16.2826C6.22296 14.9909 6.40103 13.2246 7.45795 12.1296C8.91553 10.6196 10.3867 9.12039 11.914 7.6822C13.029 6.63174 14.3947 6.44146 15.792 7.04532C17.2194 7.66209 17.908 8.83174 17.9712 10.127ZM7.87297 14.5314C7.89092 14.7001 7.89092 14.8731 7.92897 15.0368C8.12643 15.8812 8.63766 16.4643 9.46338 16.7213C10.3408 16.9942 11.1306 16.7859 11.7933 16.1483C12.2773 15.6823 12.7426 15.1962 13.2229 14.7267C13.3486 14.6039 13.3478 14.5213 13.2236 14.3978C12.2507 13.4314 11.2814 12.4613 10.3149 11.4884C10.1929 11.3656 10.1089 11.3599 9.98537 11.487C9.4964 11.9867 8.99092 12.4707 8.50769 12.9754C8.09699 13.4055 7.87153 13.9225 7.87297 14.5314ZM14.3703 8.07208C13.7657 8.10008 13.2265 8.27815 12.7928 8.69245C12.268 9.19434 11.7639 9.71778 11.2455 10.2276C11.1371 10.3346 11.1392 10.4071 11.2462 10.5141C12.232 11.4949 13.2143 12.4778 14.1937 13.4644C14.2985 13.5699 14.3717 13.5793 14.4794 13.468C15.0036 12.9273 15.5572 12.4132 16.0562 11.8503C16.6873 11.138 16.7857 10.3015 16.4152 9.4399C16.0347 8.55459 15.3023 8.14316 14.3703 8.07208Z" fill="#007A8F"/>
<path d="M15.8128 9.69121C15.8185 10.1464 15.4114 10.4918 14.9871 10.3453C14.4802 10.1708 14.119 10.3417 13.8088 10.7252C13.6408 10.9319 13.4577 11.1035 13.1604 11.0928C12.6787 11.0755 12.3362 10.5794 12.5717 10.1608C13.065 9.28697 14.2095 8.56967 15.3561 9.05935C15.6599 9.18931 15.8092 9.40113 15.8128 9.69121Z" fill="#007A8F"/>
</svg>
