<svg width="33" height="33" viewBox="0 0 33 33" fill="none" xmlns="http://www.w3.org/2000/svg">
<path d="M28.1452 3.95833C28.1452 3.46358 27.7441 3.0625 27.2493 3.0625C26.7546 3.0625 26.3535 3.46358 26.3535 3.95833V6.02126L27.3998 7.59067C27.6742 8.0023 28.2305 8.11357 28.6421 7.83917C29.0537 7.56469 29.165 7.00847 28.8906 6.59683L28.1452 5.47874V3.95833Z" fill="#007A8F"/>
<path fill-rule="evenodd" clip-rule="evenodd" d="M27.25 11.125C30.2185 11.125 32.625 8.71852 32.625 5.75C32.625 2.78147 30.2185 0.375 27.25 0.375C24.2815 0.375 21.875 2.78147 21.875 5.75C21.875 8.71852 24.2815 11.125 27.25 11.125ZM27.25 9.33333C29.229 9.33333 30.8333 7.72899 30.8333 5.75C30.8333 3.77098 29.229 2.16667 27.25 2.16667C25.271 2.16667 23.6667 3.77098 23.6667 5.75C23.6667 7.72899 25.271 9.33333 27.25 9.33333Z" fill="#007A8F"/>
<path fill-rule="evenodd" clip-rule="evenodd" d="M11.2111 8.53158C9.89233 7.21211 7.75344 7.21139 6.4337 8.52997L5.80294 9.16019C4.60324 8.81923 3.26097 9.12435 2.3163 10.0754C0.922345 11.4788 0.922345 13.7564 2.3163 15.1598L3.0625 15.9111V25.4582H0.375V27.2498H3.10775C2.527 27.819 2.16667 28.6121 2.16667 29.4894C2.16667 31.2211 3.57044 32.6248 5.30208 32.6248C7.03373 32.6248 8.4375 31.2211 8.4375 29.4894C8.4375 28.6121 8.0772 27.819 7.49643 27.2498H25.5036C24.9228 27.819 24.5625 28.6121 24.5625 29.4894C24.5625 31.2211 25.9663 32.6248 27.6979 32.6248C29.4296 32.6248 30.8333 31.2211 30.8333 29.4894C30.8333 28.6121 30.473 27.819 29.8923 27.2498H32.625V25.4582H29.0417V22.7704H29.101C31.0473 22.7704 32.625 21.1795 32.625 19.2169C32.625 17.2544 31.0473 15.6635 29.101 15.6635H13.0152C12.9422 15.6635 12.8721 15.6342 12.8204 15.5821L12.4921 15.2518L12.8222 14.922C14.142 13.6033 14.1427 11.4646 12.8238 10.1451L11.2111 8.53158ZM27.25 25.4582V22.7704H10.2938C10.0261 22.7704 9.76933 22.6633 9.57987 22.4725L4.85417 17.7149V25.4582H27.25ZM11.2295 13.9806L11.5558 13.6546C12.1755 13.0354 12.1759 12.0312 11.5566 11.4117L9.94393 9.7982C9.32455 9.17846 8.31988 9.1781 7.70005 9.79739L7.38606 10.1111L11.2295 13.9806ZM29.101 17.4552H13.0152C12.4627 17.4552 11.9357 17.2339 11.5493 16.8448L6.0794 11.338C5.38925 10.6431 4.27761 10.6431 3.58746 11.338C2.88752 12.0427 2.88752 13.1925 3.58746 13.8973L10.6215 20.9787H29.101C30.0437 20.9787 30.8333 20.204 30.8333 19.2169C30.8333 18.2298 30.0437 17.4552 29.101 17.4552ZM6.64583 29.4894C6.64583 30.2315 6.04419 30.8332 5.30208 30.8332C4.55997 30.8332 3.95833 30.2315 3.95833 29.4894C3.95833 28.7473 4.55997 28.1457 5.30208 28.1457C6.04419 28.1457 6.64583 28.7473 6.64583 29.4894ZM27.6979 30.8332C28.44 30.8332 29.0417 30.2315 29.0417 29.4894C29.0417 28.7473 28.44 28.1457 27.6979 28.1457C26.9558 28.1457 26.3542 28.7473 26.3542 29.4894C26.3542 30.2315 26.9558 30.8332 27.6979 30.8332Z" fill="#007A8F"/>
</svg>
