<svg width="33" height="36" viewBox="0 0 33 36" fill="none" xmlns="http://www.w3.org/2000/svg">
<path fill-rule="evenodd" clip-rule="evenodd" d="M2.71498 13H3.77973C4.2865 13 4.68938 13.4509 4.77574 13.9952C4.96295 15.1746 5.48 16.2717 6.26714 17.1294C7.27223 18.2246 8.63542 18.8399 10.0568 18.8399C11.4783 18.8399 12.8415 18.2246 13.8465 17.1294C14.6337 16.2717 15.1507 15.1746 15.3379 13.9952C15.4242 13.4509 15.8271 13 16.334 13H17.3986V4C17.3986 3.44772 16.9878 3 16.4809 3H16.2353C15.918 3.5978 15.3248 4 14.6454 4C13.6317 4 12.81 3.10457 12.81 2C12.81 0.89543 13.6317 0 14.6454 0C15.3248 0 15.918 0.4022 16.2353 1H16.4809C18.0015 1 19.2341 2.34315 19.2341 4V13C19.7409 13 20.1562 13.4487 20.1101 13.9987C19.8968 16.5499 18.871 18.952 17.1951 20.7782C15.9661 22.1173 14.4529 23.0755 12.81 23.583V26C12.81 27.306 12.0441 28.4171 10.9751 28.8291C11.0139 31.6921 13.1559 34 15.7926 34C18.4536 34 20.6107 31.6495 20.6107 28.75V24.75C20.6107 21.5744 22.9733 19 25.8876 19C28.8019 19 31.1645 21.5744 31.1645 24.75V27.1707C32.2339 27.5825 33 28.6938 33 30C33 31.6569 31.7674 33 30.2468 33C28.7262 33 27.4936 31.6569 27.4936 30C27.4936 28.6938 28.2598 27.5825 29.3291 27.1707V24.75C29.3291 22.6789 27.7883 21 25.8876 21C23.9869 21 22.4461 22.6789 22.4461 24.75V28.75C22.4461 32.7541 19.4673 36 15.7926 36C12.1423 36 9.17854 32.7969 9.13944 28.8294C8.06992 28.4177 7.30362 27.3064 7.30362 26V23.583C5.6607 23.0755 4.14755 22.1173 2.91859 20.7782C1.24265 18.952 0.21685 16.5499 0.00348787 13.9987C-0.0425087 13.4487 0.37268 13 0.879523 13L0.878906 13V4C0.878906 2.34315 2.11155 1 3.63209 1H3.87767C4.19502 0.4022 4.78815 0 5.46755 0C6.48127 0 7.303 0.89543 7.303 2C7.303 3.10457 6.48127 4 5.46755 4C4.78815 4 4.19502 3.5978 3.87767 3H3.63209C3.12525 3 2.71436 3.44772 2.71436 4V13L2.71498 13ZM18.1099 15H17.0136C16.6918 16.3291 16.0519 17.5548 15.1444 18.5436C13.7951 20.0139 11.965 20.8399 10.0568 20.8399C8.14866 20.8399 6.31862 20.0139 4.96929 18.5436C4.06184 17.5548 3.42185 16.3291 3.09999 15H2.00376C2.34676 16.6396 3.10774 18.1559 4.21647 19.364C5.76541 21.0518 7.86628 22 10.0568 22C12.2474 22 14.3483 21.0518 15.8972 19.364C17.0059 18.1559 17.7669 16.6396 18.1099 15ZM31.1645 30C31.1645 29.4477 30.7537 29 30.2468 29C29.74 29 29.3291 29.4477 29.3291 30C29.3291 30.5523 29.74 31 30.2468 31C30.7537 31 31.1645 30.5523 31.1645 30ZM10.9745 26V24H9.13907V26C9.13907 26.5523 9.54994 27 10.0568 27C10.5637 27 10.9745 26.5523 10.9745 26Z" fill="#007A8F"/>
</svg>
