<svg width="21" height="22" viewBox="0 0 21 22" fill="none" xmlns="http://www.w3.org/2000/svg">
<path d="M0.0114812 8.92453C0.0114812 6.87029 0.0114812 4.81605 0.0114812 2.76181C0.0229625 1.18689 1.20553 0 2.78994 0C6.63615 0 10.4824 0 14.3286 0C14.6156 0 14.8797 0.0228249 15.0634 0.262486C15.2586 0.502147 15.2815 0.764633 15.1552 1.02712C15.0174 1.33526 14.7534 1.43797 14.4204 1.43797C12.5605 1.43797 10.689 1.43797 8.82907 1.43797C7.03799 1.43797 5.24692 1.43797 3.44437 1.43797C2.12403 1.43797 1.44664 2.1113 1.44664 3.41232C1.44664 7.08712 1.44664 10.7733 1.44664 14.4481C1.44664 15.7492 2.12403 16.4339 3.44437 16.4225C3.93806 16.4225 4.42027 16.4111 4.84508 16.7306C5.30433 17.0844 5.57988 17.5181 5.57988 18.1115C5.57988 18.6365 5.57988 19.1615 5.57988 19.6979C5.57988 20.0174 5.66025 20.2913 5.98172 20.4511C6.29171 20.6109 6.53282 20.4625 6.77393 20.2799C8.15167 19.2528 9.52942 18.2257 10.9072 17.1985C11.6075 16.6736 12.3768 16.4111 13.2608 16.4225C14.6041 16.4453 15.9589 16.4339 17.3022 16.4225C18.5996 16.4225 19.2885 15.7263 19.2885 14.4367C19.2885 10.8304 19.2885 7.22407 19.2885 3.60633C19.2885 3.19548 19.4033 2.86452 19.8281 2.7504C20.3333 2.61345 20.7236 2.96723 20.7236 3.54927C20.7236 5.20407 20.7236 6.85887 20.7236 8.51368C20.7236 10.6706 20.7236 12.8162 20.7236 14.9731C20.7236 16.7078 19.5525 17.8605 17.8074 17.8605C16.3722 17.8605 14.9371 17.8719 13.5019 17.8605C12.8016 17.8605 12.1931 18.0431 11.6305 18.4767C10.2642 19.5267 8.89795 20.5538 7.49724 21.5581C6.25727 22.4483 4.58101 21.8548 4.19065 20.4168C4.07584 20.006 4.14472 19.5952 4.13324 19.1843C4.12176 17.9746 4.01843 17.8719 2.8129 17.8605C1.58441 17.8491 0.723318 17.267 0.206662 16.1714C0.0574062 15.8405 0 15.4981 0 15.1329C0.0114812 13.0672 0.0114812 10.9902 0.0114812 8.92453Z" fill="#0E3449"/>
<path d="M10.3783 4.1084C12.0201 4.1084 13.3749 5.16976 13.7767 6.77891C14.1441 8.26253 13.4208 9.8945 12.0086 10.6021C11.4805 10.8646 11.1245 11.1955 11.0671 11.8118C11.0327 12.1998 10.6653 12.4167 10.2749 12.371C9.91901 12.3368 9.65494 12.0629 9.64346 11.6748C9.6205 10.6135 10.1486 9.88309 11.0786 9.42659C11.7675 9.08422 12.2267 8.59349 12.3415 7.81744C12.5023 6.79032 11.8249 5.80885 10.7801 5.59202C9.72383 5.37518 8.66755 6.00286 8.41497 7.00716C8.36904 7.20117 8.34608 7.39518 8.31164 7.6006C8.24275 8.02286 7.95572 8.27394 7.55387 8.25111C7.15203 8.22829 6.89944 7.95439 6.87648 7.50931C6.81908 5.70614 8.43793 4.1084 10.3783 4.1084Z" fill="#0E3449"/>
<path d="M17.2548 0C17.6796 0 17.9896 0.296723 17.9781 0.718984C17.9781 1.11842 17.6796 1.41514 17.2778 1.42656C16.853 1.42656 16.543 1.11842 16.543 0.707571C16.5544 0.308136 16.8415 0.0114124 17.2548 0Z" fill="#0E3449"/>
<path d="M10.4146 13.6949C10.8279 13.7063 11.1264 14.0373 11.092 14.4709C11.069 14.8704 10.7475 15.1443 10.3457 15.1215C9.94385 15.0986 9.65682 14.8019 9.6683 14.3911C9.6683 13.9802 9.98978 13.6835 10.4146 13.6949Z" fill="#0E3449"/>
</svg>
