<svg width="103" height="103" viewBox="0 0 103 103" fill="none" xmlns="http://www.w3.org/2000/svg">
<path d="M101.497 76.2447V91.3743C101.52 97.1578 96.3198 101.987 90.4807 101.461C40.0833 101.5 1 62.0537 1.03944 11.9946C0.513552 6.18662 5.31913 1.00592 11.0953 1.00049H26.2548C28.7071 0.9764 31.0846 1.8431 32.944 3.43903C38.2304 7.97634 41.6306 23.3767 40.3224 29.4989C39.301 34.2787 34.4827 37.6227 31.2069 40.892C38.4004 53.5179 48.8751 63.9719 61.526 71.1511C64.8018 67.8818 68.1524 63.0731 72.9417 62.0537C79.0855 60.746 94.5849 64.1511 99.1041 69.4742C100.707 71.3618 101.558 73.7714 101.497 76.2447Z" fill="white" stroke="white" stroke-width="1.5" stroke-linecap="round" stroke-linejoin="round"/>
</svg>
