<svg width="111" height="91" viewBox="0 0 111 91" fill="none" xmlns="http://www.w3.org/2000/svg">
<path d="M106.952 0C106.577 0 106.148 0.0536026 105.773 0.214411L2.15824 39.6125C-0.789911 40.7382 -0.682705 44.8656 2.26545 45.884L26.2795 53.9781L40.7523 82.9772L40.8059 83.0308C41.0739 83.5668 41.6099 83.8884 42.1996 83.8884C42.5212 83.8884 42.8964 83.7812 43.218 83.5132L56.7795 71.9886L41.6099 60.5176L42.7892 75.6336L31.9078 53.0668L89.7989 18.2786L41.6099 60.464L79.1319 88.9271C80.3648 89.892 81.812 90.3208 83.2593 90.3208C86.2075 90.3208 89.102 88.3911 89.9061 85.1213L110.168 4.02021C110.704 1.9833 108.989 0 106.952 0Z" fill="white"/>
</svg>
