<svg width="18" height="19" viewBox="0 0 18 19" fill="none" xmlns="http://www.w3.org/2000/svg">
<path fill-rule="evenodd" clip-rule="evenodd" d="M9 0.25C9.41422 0.25 9.75 0.585787 9.75 1L9.75 11.1893L12.4697 8.46967C12.7626 8.17678 13.2374 8.17678 13.5303 8.46967C13.8232 8.76256 13.8232 9.23744 13.5303 9.53033L9.53033 13.5303C9.23744 13.8232 8.76256 13.8232 8.46967 13.5303L4.46967 9.53033C4.17678 9.23744 4.17678 8.76256 4.46967 8.46967C4.76256 8.17678 5.23744 8.17678 5.53033 8.46967L8.25 11.1893L8.25 1C8.25 0.585786 8.58579 0.25 9 0.25ZM1 11.25C1.41421 11.25 1.75 11.5858 1.75 12V16C1.75 16.6904 2.30964 17.25 3 17.25H15C15.6904 17.25 16.25 16.6904 16.25 16V12C16.25 11.5858 16.5858 11.25 17 11.25C17.4142 11.25 17.75 11.5858 17.75 12V16C17.75 17.5188 16.5188 18.75 15 18.75H3C1.48122 18.75 0.25 17.5188 0.25 16V12C0.25 11.5858 0.585786 11.25 1 11.25Z" fill="#007A8F"/>
</svg>
