<svg width="25" height="31" viewBox="0 0 25 31" fill="none" xmlns="http://www.w3.org/2000/svg">
<path fill-rule="evenodd" clip-rule="evenodd" d="M0.25 1C0.25 0.585786 0.585786 0.25 1 0.25H15.625C15.8239 0.25 16.0147 0.329018 16.1553 0.46967L24.2803 8.59467C24.421 8.73532 24.5 8.92609 24.5 9.125V15.625C24.5 16.0392 24.1642 16.375 23.75 16.375C23.3358 16.375 23 16.0392 23 15.625V11.5H17.25C15.0409 11.5 13.25 9.70914 13.25 7.5V1.75H1.75V4.25C1.75 4.66421 1.41421 5 1 5C0.585786 5 0.25 4.66421 0.25 4.25V1ZM14.75 1.75V7.5C14.75 8.88071 15.8693 10 17.25 10H23V9.43566L15.3143 1.75H14.75ZM1 10C1.41421 10 1.75 10.3358 1.75 10.75V29.5H23V22.125C23 21.7108 23.3358 21.375 23.75 21.375C24.1642 21.375 24.5 21.7108 24.5 22.125V30.25C24.5 30.6642 24.1642 31 23.75 31H1C0.585786 31 0.25 30.6642 0.25 30.25V10.75C0.25 10.3358 0.585786 10 1 10ZM5.125 17.25C5.125 16.8358 5.46079 16.5 5.875 16.5H15.625C16.0392 16.5 16.375 16.8358 16.375 17.25C16.375 17.6642 16.0392 18 15.625 18H5.875C5.46079 18 5.125 17.6642 5.125 17.25ZM5.125 23.75C5.125 23.3358 5.46079 23 5.875 23H18.875C19.2892 23 19.625 23.3358 19.625 23.75C19.625 24.1642 19.2892 24.5 18.875 24.5H5.875C5.46079 24.5 5.125 24.1642 5.125 23.75Z" fill="#007A8F"/>
</svg>
