<svg width="25" height="26" viewBox="0 0 25 26" fill="none" xmlns="http://www.w3.org/2000/svg">
<path d="M24.8017 4.33368C24.7745 5.14435 24.876 6.10228 24.6501 7.04592C24.0289 9.63736 22.4762 11.4174 19.9977 12.3839C19.7382 12.4854 19.5931 12.5576 19.6417 12.8936C19.7361 13.5463 19.4744 14.0839 18.9468 14.4792C18.8203 14.5736 18.7967 14.683 18.7967 14.8245C18.7996 15.6552 18.7896 16.4859 18.7996 17.3166C18.8246 19.3211 18.1011 21.0532 16.8594 22.5831C15.722 23.985 14.293 24.9372 12.5022 25.3225C8.10501 26.269 3.73925 23.3108 2.99577 18.8736C2.91857 18.4132 2.88783 17.9528 2.88997 17.4874C2.89355 16.6567 2.8864 15.8261 2.89498 14.9954C2.89712 14.7995 2.82992 14.7166 2.63976 14.6622C0.969094 14.1861 -0.0388835 12.8078 0.00114962 11.0728C0.0390382 9.4279 1.41947 7.92236 3.05439 7.74293C5.04247 7.52418 6.71528 8.75734 7.0234 10.7325C7.31006 12.5691 6.14696 14.1611 4.54706 14.6251C4.28041 14.7023 4.20034 14.8159 4.21035 15.0862C4.24467 16.0498 4.18748 17.0142 4.2511 17.9786C4.34332 19.3697 4.82157 20.6093 5.69873 21.6838C6.95977 23.2293 8.60614 24.0636 10.5949 24.1401C12.9905 24.2323 14.8284 23.18 16.1888 21.2463C17.0631 20.0038 17.4978 18.6212 17.4749 17.0964C17.4642 16.4001 17.4692 15.7031 17.4763 15.0061C17.4778 14.8402 17.4234 14.7566 17.2669 14.6858C16.5577 14.3641 16.166 13.8194 16.1931 13.0237C16.201 12.7857 16.1181 12.6999 15.8943 12.652C12.9261 12.0215 10.5949 9.45721 10.2311 6.44971C10.1696 5.94072 10.1889 5.43316 10.1846 4.92488C10.1774 4.0849 10.1789 3.24563 10.1846 2.40565C10.1917 1.33333 11.0181 0.516226 12.0947 0.504073C12.6137 0.498354 13.1327 0.474048 13.596 0.78216C14.1715 1.16534 14.4982 1.6872 14.5075 2.38706C14.5139 2.87818 14.516 3.37002 14.5067 3.86114C14.4874 4.83409 13.6553 5.66764 12.6831 5.68551C12.3542 5.69123 12.0218 5.72197 11.6951 5.6512C11.4892 5.60616 11.5314 5.74627 11.5393 5.86065C11.6873 7.99171 12.7038 9.5916 14.5189 10.6897C15.2952 11.1593 16.1474 11.4103 17.056 11.4639C17.1661 11.4703 17.2697 11.4646 17.3713 11.4253C17.6107 11.3323 17.8674 11.2944 18.109 11.3481C18.5258 11.441 18.9075 11.328 19.29 11.2122C21.6384 10.5002 23.3584 8.2655 23.4599 5.81276C23.4677 5.62046 23.382 5.64977 23.2483 5.65834C22.6263 5.70052 21.9951 5.78488 21.4239 5.42887C20.8184 5.05141 20.4845 4.51382 20.4774 3.79108C20.4731 3.30854 20.471 2.826 20.4781 2.34417C20.4931 1.35978 21.3317 0.52266 22.3175 0.506932C22.8522 0.498354 23.392 0.45975 23.8745 0.774297C24.4628 1.15819 24.7938 1.68648 24.801 2.39707C24.806 2.99471 24.8017 3.59306 24.8017 4.33368ZM1.35727 11.2358C1.35656 12.4611 2.30377 13.4262 3.51049 13.4298C4.74222 13.4334 5.73161 12.4518 5.73018 11.228C5.72875 10.0441 4.7315 9.06188 3.52764 9.06045C2.31449 9.05902 1.35799 10.017 1.35727 11.2358ZM13.1842 3.11552C13.1842 2.91035 13.1906 2.70518 13.1828 2.50073C13.1663 2.08324 12.9254 1.84661 12.5065 1.83017C12.3907 1.82588 12.2742 1.82445 12.1591 1.8316C11.7659 1.85591 11.5264 2.08252 11.5128 2.47499C11.4985 2.8932 11.4978 3.31283 11.5128 3.73103C11.5264 4.10634 11.768 4.33439 12.1455 4.36084C12.2699 4.36942 12.395 4.36799 12.5194 4.36227C12.924 4.34225 13.1628 4.10706 13.1821 3.70458C13.1914 3.50799 13.1835 3.3114 13.1842 3.11552ZM23.4756 3.11981C23.4756 2.90606 23.4849 2.6916 23.4735 2.47785C23.4527 2.08467 23.2204 1.85519 22.8286 1.8316C22.7042 1.82374 22.5791 1.82445 22.4548 1.83089C22.0616 1.85233 21.8178 2.08109 21.8049 2.4707C21.7906 2.88891 21.7899 3.30925 21.8056 3.72746C21.8199 4.10706 22.0566 4.33296 22.4347 4.36013C22.5677 4.36942 22.7028 4.36942 22.8358 4.36084C23.2247 4.33582 23.4556 4.10134 23.4749 3.70816C23.4842 3.51228 23.4763 3.31569 23.4756 3.11981Z" fill="#007A8F"/>
<path d="M4.49988 11.2666C4.47772 11.797 4.03735 12.2159 3.52407 12.1945C3.00221 12.1723 2.57543 11.7155 2.60331 11.2087C2.6319 10.6839 3.07441 10.2772 3.5977 10.2965C4.10526 10.3151 4.52132 10.7626 4.49988 11.2666Z" fill="#007A8F"/>
</svg>
