<svg width="60" height="60" viewBox="0 0 60 60" fill="none" xmlns="http://www.w3.org/2000/svg">
<circle cx="30" cy="30" r="30" fill="#007A8F"/>
<path d="M29.5351 40.2612C25.8262 40.2612 22.1165 40.2612 18.4075 40.2612C18.0015 40.2612 18.0007 40.2605 18.0007 39.8508C18 34.6373 18 29.4245 18 24.211C18 23.8353 18.0007 23.8345 18.3854 23.8345C25.6748 23.8345 32.9635 23.8345 40.253 23.8345C40.6243 23.8345 40.6251 23.8353 40.6265 24.1948C40.6273 24.4067 40.628 24.6193 40.6265 24.8311C40.6251 25.1995 40.6243 25.2017 40.2633 25.2017C38.7041 25.2025 37.145 25.2025 35.585 25.2025C30.3073 25.2025 25.0296 25.2025 19.7519 25.2025C19.3687 25.2025 19.368 25.2032 19.368 25.5753C19.368 29.8933 19.368 34.2113 19.368 38.5301C19.368 38.8925 19.3687 38.8933 19.7341 38.8933C26.2573 38.8933 32.7812 38.8933 39.3043 38.8933C39.7015 38.8933 39.7022 38.8933 39.7022 38.5064C39.7022 37.1872 39.6993 35.8672 39.703 34.548C39.7045 33.9566 39.638 34.0282 40.2419 34.0216C40.4353 34.0194 40.6295 34.0282 40.8229 34.0208C40.9971 34.0142 41.0717 34.0784 41.071 34.26C41.0673 36.1795 41.0658 38.0982 41.0717 40.0176C41.0724 40.2768 40.9174 40.262 40.7447 40.262C38.8164 40.2612 36.8881 40.262 34.9598 40.262C33.1518 40.2612 31.3431 40.2612 29.5351 40.2612Z" fill="white"/>
<path d="M30.4491 28.2633C32.2474 28.2633 34.0458 28.2692 35.8442 28.2574C36.1232 28.2559 36.2258 28.3341 36.2022 28.6161C36.1801 28.8819 36.1934 29.1506 36.1971 29.4179C36.1993 29.5707 36.1313 29.6371 35.9807 29.6305C35.9069 29.6268 35.8331 29.6312 35.7593 29.6312C32.1898 29.6312 28.6212 29.6312 25.0517 29.6305C24.6435 29.6305 24.6435 29.6298 24.6427 29.223C24.642 29.0015 24.6538 28.7793 24.6391 28.5593C24.6236 28.3282 24.7158 28.2574 24.9417 28.2588C26.058 28.2677 27.1735 28.2625 28.2897 28.2625C29.0102 28.2633 29.7293 28.2633 30.4491 28.2633Z" fill="white"/>
<path d="M40.3275 26.5468C40.4147 26.5638 40.4339 26.6435 40.4678 26.7048C40.7144 27.1478 40.9617 27.5907 41.2016 28.0374C41.2747 28.1725 41.3699 28.2714 41.5065 28.3445C41.9458 28.5792 42.3813 28.8206 42.8162 29.0628C42.8856 29.1019 42.9941 29.1226 42.9993 29.2134C43.0052 29.3271 42.8811 29.3418 42.8058 29.3839C42.3873 29.6172 41.9665 29.8483 41.5427 30.0727C41.381 30.1583 41.2644 30.2757 41.1787 30.4367C40.9484 30.8678 40.7129 31.296 40.4752 31.7234C40.3416 31.9641 40.3143 31.9641 40.1836 31.7293C39.9555 31.3181 39.7266 30.9069 39.5096 30.4898C39.4033 30.2853 39.26 30.1384 39.0511 30.0328C38.6318 29.8202 38.2265 29.581 37.8094 29.3632C37.5982 29.2532 37.6241 29.1824 37.8153 29.0805C38.2627 28.842 38.7027 28.5896 39.1493 28.3489C39.2851 28.2758 39.3818 28.1776 39.4542 28.0418C39.6941 27.5951 39.94 27.1515 40.1858 26.7078C40.222 26.6443 40.2426 26.5668 40.3275 26.5468Z" fill="white"/>
<path d="M32.6343 32.692C33.7129 32.692 34.7922 32.6986 35.8707 32.6876C36.1217 32.6846 36.2207 32.7592 36.2015 33.0161C36.183 33.273 36.1882 33.5329 36.2 33.7905C36.2089 33.9943 36.1306 34.0651 35.9276 34.0629C35.1347 34.0555 34.3418 34.0607 33.549 34.0607C32.1662 34.0607 30.7827 34.0555 29.4 34.0651C29.1497 34.0666 29.0501 33.9943 29.0693 33.7366C29.0877 33.4893 29.0848 33.2383 29.0693 32.9903C29.0553 32.7614 29.1431 32.6868 29.3705 32.6883C30.4587 32.6972 31.5461 32.692 32.6343 32.692Z" fill="white"/>
<path d="M24.7675 35.6708C24.7712 35.6819 24.7616 35.6443 24.7446 35.6103C24.7195 35.5616 24.6811 35.518 24.6619 35.4671C24.4567 34.9407 24.092 34.5782 23.5642 34.3745C23.4844 34.3435 23.3685 34.3102 23.3656 34.2047C23.3619 34.0947 23.4815 34.0666 23.5605 34.0364C24.0972 33.8274 24.4678 33.4605 24.6686 32.9194C24.6959 32.8456 24.7299 32.7452 24.8192 32.7356C24.9351 32.7237 24.9447 32.85 24.9971 32.9194C25.0023 32.9268 25.0067 32.9356 25.0097 32.9437C25.2038 33.4649 25.5626 33.82 26.0794 34.0245C26.1658 34.0585 26.2972 34.0866 26.2957 34.2076C26.2942 34.3102 26.1761 34.3449 26.0956 34.3759C25.567 34.5797 25.2119 34.9481 25.0001 35.4715C24.9255 35.6538 24.8797 35.6738 24.7675 35.6708Z" fill="white"/>
<path d="M37.0874 21.1643C37.0726 21.1798 37.0519 21.2086 37.0246 21.23C36.9885 21.258 36.9493 21.2868 36.9072 21.3023C36.3801 21.4906 36.045 21.8627 35.8265 22.3713C35.7187 22.6216 35.6722 22.6105 35.5371 22.3787C35.5326 22.3706 35.5267 22.3632 35.5238 22.3543C35.3244 21.8627 34.9996 21.4994 34.4902 21.3127C34.4105 21.2831 34.2924 21.2499 34.2835 21.151C34.2732 21.0395 34.3987 21.0129 34.4762 20.9827C34.9981 20.7819 35.334 20.4039 35.5422 19.896C35.6264 19.69 35.726 19.6819 35.8228 19.8915C35.8265 19.8997 35.8338 19.907 35.8368 19.9152C36.0324 20.4364 36.3979 20.7819 36.9102 20.9923C37.0896 21.0668 37.0896 21.0978 37.0874 21.1643Z" fill="white"/>
<path d="M42.6597 22.1986C42.6493 22.2709 42.5947 22.2938 42.5475 22.3174C42.3681 22.406 42.2293 22.53 42.1451 22.7175C42.0676 22.8903 41.976 22.8593 41.9015 22.7109C41.8107 22.5315 41.6793 22.3979 41.4947 22.3137C41.3759 22.2598 41.322 22.1831 41.4785 22.1107C41.6808 22.0177 41.8277 21.8796 41.9177 21.6737C41.9502 21.5991 42.0262 21.5002 42.0934 21.6264C42.216 21.856 42.3806 22.028 42.6146 22.1388C42.6353 22.1498 42.6464 22.1816 42.6597 22.1986Z" fill="white"/>
</svg>
