<svg width="16" height="26" viewBox="0 0 16 26" fill="none" xmlns="http://www.w3.org/2000/svg">
<path d="M0.00443551 22.231C0.0405479 21.541 -0.0732846 20.7041 0.0962865 19.8782C0.444064 18.1802 1.39947 16.8534 2.65634 15.7159C3.67455 14.7942 4.82858 14.0712 6.05012 13.4541C7.72542 12.6079 9.38737 11.7247 10.8311 10.5204C12.6296 9.02018 13.702 7.06854 14.0639 4.74557C14.1181 4.39858 14.1228 4.04138 14.1267 3.68889C14.1361 2.85517 14.1244 2.02066 14.1354 1.18693C14.1409 0.796763 14.4282 0.51964 14.8034 0.501584C15.1991 0.481958 15.5704 0.737099 15.5704 1.11549C15.5704 3.14799 15.7683 5.19305 14.9675 7.15725C13.998 9.53753 12.4561 11.3973 10.2698 12.7602C8.80172 13.6755 7.25988 14.4488 5.75965 15.3014C4.53261 15.9993 3.41941 16.8471 2.55899 17.9894C1.82654 18.9621 1.43872 20.0447 1.456 21.2709C1.47013 22.2522 1.45992 23.2335 1.45835 24.2141C1.45757 24.7251 1.18829 25.0274 0.738459 25.0289C0.283914 25.0305 0.00757571 24.7314 0.00522056 24.2266C0.00208035 23.6088 0.00443551 22.991 0.00443551 22.231Z" fill="#007A8F"/>
<path d="M0.474681 2.84496C0.474681 2.33468 0.473111 1.8244 0.475466 1.31411C0.477822 0.803044 0.746309 0.502369 1.19614 0.500014C1.6499 0.497659 1.91996 0.796763 1.92938 1.30312C1.94744 2.26402 1.90269 3.22493 1.96157 4.18583C2.07854 6.07309 2.81099 7.71385 3.93362 9.20152C4.25313 9.62467 4.60327 10.0227 5.01306 10.3642C5.06566 10.4081 5.11433 10.4568 5.16144 10.5071C5.46604 10.8321 5.48095 11.2717 5.19677 11.5653C4.91572 11.8566 4.46745 11.8613 4.13852 11.5677C2.33839 9.96145 1.19457 7.97213 0.656028 5.6264C0.444849 4.7071 0.469971 3.77603 0.474681 2.84496Z" fill="#007A8F"/>
<path d="M15.5869 22.5513C15.5869 23.3803 15.5901 24.0476 15.5861 24.7141C15.583 25.2001 15.3074 25.4968 14.867 25.5C14.4133 25.5031 14.1346 25.2024 14.1338 24.6984C14.1314 23.6983 14.1032 22.6966 14.1401 21.698C14.2037 19.952 13.5081 18.5169 12.3941 17.2428C12.1303 16.9406 11.8265 16.6736 11.5455 16.3863C11.2417 16.0754 11.2275 15.6232 11.5062 15.3296C11.781 15.0407 12.2167 15.0148 12.5409 15.3069C14.0835 16.6925 15.2289 18.3223 15.5485 20.4223C15.6631 21.1783 15.5626 21.9492 15.5869 22.5513Z" fill="#007A8F"/>
<path d="M8.03159 3.8357C7.0118 3.8357 5.99202 3.83805 4.97146 3.83413C4.6276 3.83256 4.37089 3.64493 4.27433 3.34897C4.17463 3.04358 4.2704 2.72171 4.51691 2.5278C4.65429 2.41946 4.81052 2.38178 4.98402 2.38178C7.01416 2.38335 9.0443 2.38021 11.0744 2.38492C11.5306 2.38571 11.8195 2.68167 11.8171 3.11659C11.8147 3.54915 11.5235 3.83334 11.0611 3.8357C10.0523 3.83884 9.04195 3.8357 8.03159 3.8357Z" fill="#007A8F"/>
<path d="M8.01588 24.0885C7.02515 24.0885 6.03442 24.09 5.04447 24.0877C4.53968 24.0861 4.24136 23.8082 4.2445 23.3536C4.24764 22.9132 4.54439 22.6361 5.03112 22.6361C7.03143 22.6338 9.03253 22.6338 11.0328 22.6361C11.518 22.6369 11.8147 22.914 11.8179 23.356C11.821 23.8098 11.5211 24.0877 11.0164 24.0885C10.0162 24.09 9.01604 24.0885 8.01588 24.0885Z" fill="#007A8F"/>
<path d="M8.26004 7.13291C7.65241 7.13291 7.04399 7.13605 6.43636 7.13213C5.95355 7.12899 5.65838 6.85029 5.65681 6.40674C5.65523 5.96397 5.95198 5.68135 6.43401 5.68057C7.65005 5.67743 8.8661 5.67743 10.0814 5.68057C10.583 5.68135 10.8813 5.96476 10.875 6.42087C10.8695 6.85972 10.572 7.13056 10.0829 7.13291C9.47608 7.13527 8.86767 7.13291 8.26004 7.13291Z" fill="#007A8F"/>
<path d="M8.24983 19.8492C7.6422 19.8492 7.03379 19.8523 6.42616 19.8484C5.94884 19.8453 5.65288 19.5571 5.65681 19.1128C5.66073 18.6834 5.95512 18.3976 6.41595 18.3968C7.65162 18.3929 8.88651 18.3929 10.1222 18.3976C10.5838 18.3992 10.8743 18.6857 10.8766 19.1175C10.8782 19.5524 10.5885 19.8437 10.1324 19.8476C9.50434 19.8539 8.87709 19.8492 8.24983 19.8492Z" fill="#007A8F"/>
</svg>
