<svg width="19" height="19" viewBox="0 0 19 19" xmlns="http://www.w3.org/2000/svg">
<path fill-rule="evenodd" clip-rule="evenodd" d="M3.1798 1.06066C2.59401 0.474874 1.64427 0.474874 1.05848 1.06066C0.472694 1.64645 0.472694 2.59619 1.05848 3.18198L7.6465 9.77L1.28332 16.1332C0.69753 16.719 0.69753 17.6687 1.28332 18.2545C1.8691 18.8403 2.81885 18.8403 3.40464 18.2545L9.76782 11.8913L15.9077 18.0312C16.4935 18.617 17.4433 18.617 18.029 18.0312C18.6148 17.4454 18.6148 16.4957 18.029 15.9099L11.8891 9.77L18.2539 3.40527C18.8397 2.81948 18.8397 1.86973 18.2539 1.28395C17.6681 0.69816 16.7183 0.69816 16.1326 1.28395L9.76782 7.64868L3.1798 1.06066Z"/>
</svg>
