<svg width="30" height="28" viewBox="0 0 30 28" fill="none" xmlns="http://www.w3.org/2000/svg">
<path d="M22.1386 20.6129C22.1386 22.7327 22.1395 24.8525 22.1386 26.9723C22.1386 27.6443 21.8915 27.8918 21.2181 27.8918C17.0661 27.8926 12.9134 27.8926 8.76146 27.8918C8.1142 27.8918 7.85972 27.6362 7.85972 26.9837C7.8589 23.5248 7.8589 20.0659 7.8589 16.607C7.8589 16.2069 7.85726 16.2061 7.45467 16.2061C5.60373 16.2061 3.75279 16.2117 1.90185 16.2004C1.61627 16.1988 1.51398 16.2653 1.5148 16.5688C1.52544 19.7128 1.52544 22.8577 1.51398 26.0017C1.51317 26.3117 1.60072 26.3969 1.91085 26.3936C3.45494 26.3782 4.99902 26.3928 6.54393 26.3807C6.83769 26.3782 6.94816 26.4643 6.92606 26.7597C6.90397 27.0518 6.91461 27.3481 6.92197 27.6418C6.92606 27.8261 6.84587 27.8918 6.66503 27.891C4.68071 27.8877 2.69721 27.8934 0.712893 27.8845C0.27757 27.8829 0.00753869 27.5656 0.00672041 27.094C0.00344731 25.4003 0.00508386 23.7066 0.00508386 22.012C0.00508386 19.8816 0.00426559 17.7521 0.00508386 15.6217C0.00508386 14.9489 0.253022 14.7014 0.925644 14.7014C3.1039 14.7006 5.28215 14.7014 7.4604 14.7014C7.8589 14.7014 7.8589 14.7006 7.85972 14.2956C7.85972 14.2453 7.85317 14.1934 7.86053 14.1439C7.90308 13.8541 7.78853 13.7632 7.48904 13.7641C5.13649 13.7754 2.78477 13.7705 0.432224 13.7697C0.0067204 13.7697 0.00672041 13.7681 0.00508386 13.3558C0.00426559 13.1026 0.0181763 12.8478 0.00181076 12.5954C-0.0145548 12.3454 0.0787287 12.2602 0.334031 12.2618C1.44852 12.2724 2.56383 12.2659 3.67833 12.2659C4.94665 12.2659 6.21498 12.2578 7.48249 12.2724C7.77298 12.2756 7.8679 12.1985 7.86626 11.8999C7.85317 10.0536 7.86708 8.20807 7.85399 6.36175C7.85153 5.98032 7.99309 5.71818 8.28113 5.47471C10.2654 3.7972 12.2391 2.10671 14.2177 0.422711C14.3568 0.304222 14.4976 0.180864 14.6563 0.0940262C15.0147 -0.10075 15.3265 0.030724 15.6096 0.272571C16.5326 1.05898 17.4548 1.8462 18.3778 2.63261C19.5021 3.59107 20.624 4.55277 21.754 5.50393C22.0151 5.72305 22.1452 5.96896 22.1435 6.31631C22.1337 8.18291 22.1452 10.0487 22.1329 11.9153C22.1313 12.2034 22.2254 12.2724 22.5019 12.2716C24.8643 12.2627 27.2267 12.2659 29.589 12.2667C29.9916 12.2667 29.9924 12.2691 29.9933 12.6725C29.9941 12.9257 29.9769 13.1805 29.9974 13.4329C30.0194 13.7081 29.9033 13.7754 29.6422 13.7746C27.7095 13.7665 25.7767 13.7705 23.8439 13.7705C23.384 13.7705 22.9234 13.7827 22.4635 13.7657C22.2041 13.7559 22.1337 13.8509 22.1345 14.0984C22.1419 16.2718 22.1386 18.4419 22.1386 20.6129ZM20.6224 16.6946C20.6224 13.5806 20.6224 10.4675 20.6224 7.35349C20.6224 6.95744 20.6224 6.95663 20.2149 6.95663C16.7478 6.95663 13.2816 6.95663 9.81458 6.95663C9.37516 6.95663 9.37516 6.95663 9.37516 7.38352C9.37516 10.8319 9.37516 14.2802 9.37516 17.7286C9.37516 20.4976 9.37925 23.2667 9.36944 26.0349C9.36862 26.319 9.45454 26.4042 9.7352 26.3936C10.2556 26.3742 10.7777 26.388 11.2997 26.3872C11.785 26.3863 11.7858 26.3863 11.7858 25.9164C11.7866 23.7463 11.785 21.5754 11.7874 19.4053C11.7883 18.9151 12.0591 18.605 12.5133 18.6026C14.1703 18.5945 15.8265 18.5994 17.4835 18.6002C17.778 18.6002 17.9859 18.7471 18.1299 18.9922C18.2224 19.1496 18.2109 19.3241 18.2109 19.4961C18.2109 21.6663 18.2175 23.8372 18.2035 26.0073C18.2019 26.3239 18.3001 26.4074 18.6053 26.3936C19.1364 26.3701 19.6683 26.3872 20.2001 26.3872C20.6215 26.3872 20.6215 26.3872 20.6215 25.9733C20.6224 22.8812 20.6224 19.7875 20.6224 16.6946ZM13.3021 23.2229C13.3021 24.1764 13.3062 25.13 13.2988 26.0828C13.2972 26.2946 13.3463 26.3953 13.5876 26.3928C14.5287 26.3823 15.4697 26.3839 16.4099 26.3912C16.6185 26.3928 16.6987 26.3287 16.6979 26.1128C16.6922 24.2057 16.6914 22.2993 16.6987 20.3921C16.6996 20.1616 16.6169 20.0959 16.3943 20.0983C15.464 20.1073 14.5328 20.1097 13.6024 20.0967C13.3438 20.0926 13.2963 20.199 13.298 20.423C13.307 21.3563 13.3021 22.2896 13.3021 23.2229ZM19.2411 5.43981C19.1928 5.37164 19.1806 5.34324 19.1585 5.32376C17.819 4.17945 16.4778 3.03677 15.1407 1.88921C15.0114 1.77884 14.9345 1.8251 14.8298 1.91518C13.5369 3.02053 12.2408 4.12183 10.9487 5.22718C10.8865 5.27994 10.7834 5.31727 10.8014 5.43981C13.6024 5.43981 16.3984 5.43981 19.2411 5.43981Z" fill="#007A8F"/>
<path d="M29.9924 21.3303C29.9924 23.2164 29.9933 25.1024 29.9924 26.9885C29.9924 27.641 29.7412 27.8926 29.0882 27.8926C27.2177 27.8934 25.3463 27.8869 23.4757 27.8991C23.177 27.9007 23.0387 27.8326 23.0723 27.512C23.0968 27.2709 23.0944 27.0242 23.0723 26.7832C23.0453 26.4821 23.1459 26.3799 23.4634 26.3831C24.9969 26.3985 26.5303 26.3904 28.0638 26.3904C28.4762 26.3904 28.477 26.3896 28.477 25.9676C28.477 22.8447 28.4729 19.7218 28.4835 16.5989C28.4844 16.2961 28.4107 16.1979 28.0924 16.202C26.7431 16.219 25.3937 16.2101 24.0444 16.2093C23.5698 16.2093 23.569 16.2093 23.5682 15.7524C23.5673 15.4886 23.5739 15.2249 23.5673 14.9619C23.5632 14.785 23.6287 14.7047 23.8161 14.7047C25.6458 14.7079 27.4762 14.7014 29.3059 14.712C29.7298 14.7144 29.9908 15.0455 29.9916 15.5211C29.9941 17.1637 29.9924 18.8063 29.9924 20.4489C29.9924 20.7419 29.9924 21.0357 29.9924 21.3303Z" fill="#007A8F"/>
<path d="M3.97372 20.3215C3.97372 20.6559 3.97045 20.9902 3.97536 21.3238C3.97781 21.4885 3.91072 21.564 3.74051 21.5616C3.39357 21.5567 3.0458 21.5575 2.69885 21.5616C2.53274 21.564 2.45828 21.4958 2.45909 21.3278C2.46237 20.6591 2.46237 19.9912 2.45828 19.3225C2.45746 19.1585 2.52374 19.0814 2.69312 19.0839C3.04007 19.0887 3.38784 19.0904 3.73479 19.0839C3.92954 19.0798 3.97781 19.1796 3.97454 19.3484C3.97045 19.6739 3.97372 19.9977 3.97372 20.3215Z" fill="#007A8F"/>
<path d="M6.91952 20.3434C6.91952 20.6575 6.91379 20.9716 6.92197 21.2848C6.92606 21.4699 6.87124 21.5697 6.6634 21.564C6.32709 21.5543 5.98914 21.5567 5.65283 21.5632C5.46626 21.5673 5.40243 21.4837 5.40325 21.3067C5.40816 20.6486 5.40898 19.9904 5.40325 19.3322C5.40161 19.1472 5.48181 19.0806 5.66101 19.0847C5.99814 19.0912 6.33527 19.0912 6.67158 19.0847C6.85896 19.0806 6.92361 19.1642 6.92034 19.3411C6.91461 19.6755 6.91952 20.0091 6.91952 20.3434Z" fill="#007A8F"/>
<path d="M23.078 20.7955C23.078 20.4716 23.0829 20.147 23.0756 19.8232C23.0715 19.6422 23.1451 19.5676 23.3292 19.5708C23.6664 19.5773 24.0035 19.5773 24.3398 19.5708C24.5231 19.5668 24.5951 19.6422 24.5935 19.8232C24.5886 20.4814 24.5886 21.1396 24.5935 21.7977C24.5951 21.9787 24.5231 22.0542 24.3398 22.0501C24.0027 22.0437 23.6655 22.0428 23.3292 22.0501C23.1459 22.0542 23.0723 21.9787 23.0756 21.7977C23.0829 21.4642 23.078 21.1298 23.078 20.7955Z" fill="#007A8F"/>
<path d="M27.5376 20.8231C27.5376 21.1469 27.5327 21.4715 27.5393 21.7953C27.5425 21.973 27.4754 22.0542 27.2889 22.0501C26.9517 22.0428 26.6146 22.0437 26.2783 22.0501C26.0983 22.0534 26.0197 21.9852 26.0214 21.801C26.0263 21.1428 26.0279 20.4846 26.0205 19.8265C26.0181 19.6203 26.1163 19.5659 26.302 19.5708C26.6187 19.5781 26.9354 19.5805 27.2512 19.57C27.4599 19.5627 27.5474 19.6382 27.5401 19.8508C27.5294 20.1746 27.5376 20.4992 27.5376 20.8231Z" fill="#007A8F"/>
<path d="M15.7553 13.7827C15.7553 14.0262 15.7512 14.2688 15.7569 14.5123C15.7602 14.6803 15.6857 14.7493 15.5188 14.7469C15.1817 14.742 14.8445 14.7396 14.5074 14.7485C14.3085 14.7542 14.2365 14.6714 14.2398 14.4782C14.2472 14.0124 14.2341 13.5457 14.2447 13.0807C14.2496 12.8713 14.1776 12.791 13.9624 12.7967C13.5034 12.808 13.0427 12.7926 12.5836 12.8023C12.366 12.8072 12.2645 12.7399 12.2751 12.5094C12.289 12.2164 12.2899 11.921 12.2743 11.628C12.2612 11.3829 12.3431 11.2823 12.6024 11.2912C13.041 11.3074 13.4813 11.2823 13.9199 11.3001C14.1825 11.3107 14.2545 11.2092 14.2455 10.965C14.2308 10.5194 14.2488 10.0739 14.239 9.62831C14.2341 9.41649 14.3167 9.33939 14.527 9.34669C14.8437 9.35724 15.1604 9.35806 15.477 9.34669C15.6923 9.33858 15.7643 9.42704 15.7602 9.63318C15.7512 10.099 15.7643 10.5649 15.7553 11.0307C15.7512 11.2263 15.8215 11.3026 16.022 11.2985C16.4811 11.2896 16.9418 11.3042 17.4008 11.2928C17.6324 11.2872 17.7388 11.3553 17.7249 11.602C17.7085 11.895 17.7101 12.1896 17.724 12.4834C17.7347 12.7155 17.6586 12.8121 17.4115 12.804C16.9729 12.7885 16.5326 12.8153 16.094 12.7942C15.8158 12.7812 15.7307 12.8851 15.7536 13.1456C15.7716 13.3566 15.7577 13.5709 15.7577 13.7835C15.7561 13.7827 15.7553 13.7827 15.7553 13.7827Z" fill="#007A8F"/>
</svg>
