<svg width="13" height="17" viewBox="0 0 13 17" fill="none" xmlns="http://www.w3.org/2000/svg">
<path fill-rule="evenodd" clip-rule="evenodd" d="M6.4987 1.875C5.02594 1.875 3.83203 3.06891 3.83203 4.54167V7.20833H9.16536V4.54167C9.16536 3.06891 7.97146 1.875 6.4987 1.875ZM10.1654 7.20833V4.54167C10.1654 2.51662 8.52374 0.875 6.4987 0.875C4.47365 0.875 2.83203 2.51662 2.83203 4.54167V7.20833H0.957031C0.680889 7.20833 0.457031 7.43219 0.457031 7.70833V15.625C0.457031 15.9011 0.680889 16.125 0.957031 16.125H12.0404C12.3165 16.125 12.5404 15.9011 12.5404 15.625V7.70833C12.5404 7.43219 12.3165 7.20833 12.0404 7.20833H10.1654ZM1.45703 8.20833V15.125H11.5404V8.20833H1.45703Z" fill="#0E3449"/>
</svg>
