<svg width="25" height="24" viewBox="0 0 25 24" fill="none" xmlns="http://www.w3.org/2000/svg">
<path d="M6.6497 10.2845C6.63568 10.0353 6.76952 9.87216 6.93 9.71589C7.26145 9.39372 7.25865 9.39166 6.92159 9.06123C6.52496 8.67228 6.12694 8.28472 5.73311 7.89302C5.35261 7.51509 5.35331 7.18191 5.73171 6.79503C5.87747 6.64633 6.01972 6.49282 6.17879 6.35858C6.33996 6.22297 6.31964 6.12728 6.17529 5.98754C5.22857 5.06853 4.29027 4.14126 3.34916 3.21674C2.75492 2.63298 2.16489 2.0444 1.56365 1.46753C1.40598 1.31677 1.40528 1.21282 1.56715 1.07101C1.75635 0.905108 1.93925 0.729567 2.10463 0.541635C2.25248 0.373666 2.35269 0.39776 2.50265 0.546453C3.79063 1.82274 5.08702 3.09146 6.38131 4.36292C6.63498 4.61212 6.89356 4.85719 7.14022 5.11328C7.24884 5.22548 7.32662 5.23788 7.43804 5.11878C7.60972 4.93567 7.79122 4.76013 7.97622 4.58941C8.29085 4.29821 8.64614 4.27825 8.95937 4.57013C9.44149 5.01965 9.90819 5.4857 10.3679 5.95725C10.5185 6.11214 10.6075 6.11352 10.7624 5.95931C11.3468 5.37487 11.5746 5.38175 12.166 5.96344C14.7104 8.4637 17.2549 10.9633 19.7993 13.4628C20.2625 13.9179 20.2639 14.2118 19.8049 14.6634C19.6689 14.7976 19.5386 14.9381 19.3943 15.0627C19.2597 15.179 19.2541 15.2644 19.3872 15.3952C20.6731 16.6501 21.9541 17.9092 23.2323 19.1717C23.3535 19.2915 23.4397 19.2956 23.5546 19.171C23.6899 19.0244 23.8419 18.8936 23.9793 18.749C24.0837 18.6396 24.1706 18.6251 24.2834 18.7428C24.4873 18.9555 24.6989 19.1621 24.9141 19.3638C25.0276 19.4705 25.029 19.5531 24.9162 19.6632C23.6135 20.9381 22.3136 22.2151 21.0158 23.4948C20.9002 23.6091 20.8168 23.596 20.711 23.4879C20.5049 23.2773 20.2954 23.0687 20.0789 22.8684C19.957 22.7555 19.9794 22.6701 20.0894 22.5696C20.2239 22.4464 20.3424 22.306 20.4825 22.1896C20.6528 22.0478 20.6311 21.9432 20.479 21.7952C19.3655 20.7116 18.2597 19.6205 17.1511 18.5322C16.9837 18.3677 16.8134 18.2066 16.6508 18.0386C16.5513 17.936 16.4693 17.9298 16.367 18.0365C16.2051 18.2059 16.0356 18.3677 15.8667 18.5301C15.4904 18.8922 15.1456 18.8929 14.7728 18.5267C13.0195 16.8064 11.2683 15.0847 9.51577 13.3637C8.64894 12.5122 7.78281 11.6599 6.91458 10.8098C6.76322 10.6604 6.63778 10.5007 6.6497 10.2845ZM15.3159 17.1919C15.3958 17.1809 15.4364 17.1203 15.4848 17.0728C16.4511 16.1249 17.4139 15.1742 18.3845 14.2304C18.5162 14.1024 18.512 14.0211 18.3824 13.8972C17.943 13.4773 17.5085 13.0532 17.0839 12.6195C16.9472 12.4805 16.8638 12.4805 16.7272 12.6209C16.3088 13.0491 15.8716 13.458 15.4525 13.8855C15.3138 14.0266 15.2227 14.0225 15.0923 13.8807C14.9108 13.6831 14.7181 13.4938 14.517 13.3155C14.372 13.1875 14.3706 13.098 14.5135 12.9624C14.9487 12.5507 15.3649 12.1205 15.8008 11.7095C15.9445 11.5739 15.9388 11.4906 15.7994 11.3577C15.3523 10.9337 14.9094 10.5048 14.4827 10.0615C14.3166 9.88868 14.2248 9.91415 14.0685 10.0711C13.3839 10.7602 12.6825 11.4334 11.9957 12.1205C11.8521 12.2643 11.7554 12.2767 11.6166 12.1212C11.4554 11.9401 11.2831 11.7659 11.0967 11.611C10.9061 11.4527 10.9019 11.3426 11.0883 11.1643C11.7918 10.4938 12.4778 9.80607 13.173 9.12663C13.2746 9.0275 13.3524 8.95177 13.2087 8.81409C12.6705 8.29711 12.1401 7.77255 11.611 7.24662C11.4982 7.13441 11.4141 7.14129 11.3048 7.24937C10.3349 8.20624 9.3637 9.16105 8.38896 10.1124C8.26493 10.2329 8.27334 10.3169 8.39527 10.4298C8.61811 10.6356 8.83043 10.8538 9.04697 11.0665C11.0644 13.0484 13.0819 15.031 15.1008 17.0122C15.1659 17.0783 15.222 17.1595 15.3159 17.1919ZM22.4075 20.2676C22.4096 20.1836 22.3605 20.1437 22.3185 20.101C22.2078 19.9909 22.0956 19.8821 21.9842 19.772C20.8203 18.6286 19.6535 17.4872 18.4952 16.3376C18.3431 16.1868 18.2429 16.1703 18.0972 16.3355C17.9374 16.5173 17.758 16.6832 17.5786 16.8477C17.4679 16.9489 17.4798 17.0225 17.5821 17.123C18.8785 18.3924 20.1728 19.6639 21.465 20.9368C21.5652 21.0352 21.643 21.0531 21.7481 20.945C21.9352 20.7516 22.1314 20.5671 22.322 20.3771C22.3577 20.3427 22.3844 20.2986 22.4075 20.2676ZM9.59425 7.06144C9.57043 7.02358 9.55711 6.99053 9.53329 6.96713C9.21935 6.65666 8.90331 6.34826 8.58937 6.03779C8.48987 5.94004 8.41979 6.00199 8.34762 6.0729C7.9587 6.45565 7.57118 6.83909 7.17946 7.21908C7.08837 7.30788 7.06874 7.37741 7.17105 7.47516C7.47168 7.76222 7.76739 8.05411 8.06031 8.34874C8.15281 8.44167 8.22498 8.44924 8.32169 8.35287C8.71341 7.96117 9.11143 7.57498 9.50526 7.18535C9.54029 7.15024 9.56412 7.10412 9.59425 7.06144Z" fill="#007A8F"/>
<path d="M6.3722 16.1235C6.35678 17.6917 5.10034 19.0141 3.51384 19.1793C1.78018 19.3589 0.0850626 18.0861 0.00167325 16.1476C-0.0179478 15.6829 0.137619 15.2485 0.330325 14.8314C0.921759 13.5523 1.76406 12.433 2.65822 11.3495C2.94763 10.9991 3.3821 10.9688 3.65959 11.2978C4.66657 12.4915 5.61118 13.7286 6.1879 15.1928C6.30633 15.4915 6.3764 15.8006 6.3722 16.1235ZM5.03657 16.1524C5.05339 15.8681 4.95528 15.6106 4.83966 15.3587C4.43743 14.4823 3.87823 13.7024 3.30571 12.93C3.22302 12.8185 3.17047 12.7951 3.07797 12.919C2.50335 13.69 1.94275 14.47 1.54192 15.3463C1.43821 15.5735 1.34151 15.8054 1.3317 16.0602C1.29386 17.0143 2.12985 17.8755 3.11581 17.8995C4.15783 17.9257 5.02536 17.1368 5.03657 16.1524Z" fill="#007A8F"/>
</svg>
