<svg width="20" height="24" viewBox="0 0 20 24" fill="none" xmlns="http://www.w3.org/2000/svg">
<path fill-rule="evenodd" clip-rule="evenodd" d="M6.85 1C6.85 0.585786 7.18579 0.25 7.6 0.25H12.4C12.8142 0.25 13.15 0.585786 13.15 1C13.15 1.41421 12.8142 1.75 12.4 1.75H7.6C7.18579 1.75 6.85 1.41421 6.85 1ZM10 5.35C5.44365 5.35 1.75 9.04365 1.75 13.6C1.75 18.1563 5.44365 21.85 10 21.85C14.5563 21.85 18.25 18.1563 18.25 13.6C18.25 9.04365 14.5563 5.35 10 5.35ZM0.25 13.6C0.25 8.21522 4.61522 3.85 10 3.85C15.3848 3.85 19.75 8.21522 19.75 13.6C19.75 18.9848 15.3848 23.35 10 23.35C4.61522 23.35 0.25 18.9848 0.25 13.6ZM10 8.65C10.4142 8.65 10.75 8.98579 10.75 9.4V13.2893L12.9303 15.4697C13.2232 15.7626 13.2232 16.2374 12.9303 16.5303C12.6374 16.8232 12.1626 16.8232 11.8697 16.5303L9.46967 14.1303C9.32902 13.9897 9.25 13.7989 9.25 13.6V9.4C9.25 8.98579 9.58579 8.65 10 8.65Z" fill="#007A8F"/>
</svg>
