<svg width="32" height="30" viewBox="0 0 32 30" fill="none" xmlns="http://www.w3.org/2000/svg">
<path fill-rule="evenodd" clip-rule="evenodd" d="M20.4215 0.719321C21.4737 0.298691 22.6004 0.097484 23.7328 0.128022C24.8652 0.158568 25.9796 0.420228 27.0077 0.896954C28.0355 1.37355 28.9556 2.05507 29.7119 2.8998C31.8945 5.33117 32.2467 8.71286 31.1355 11.5716C29.7874 15.0396 27.2087 18.2145 24.4957 21.1539C23.5363 22.1935 22.5664 23.1978 21.619 24.1789C19.8385 26.0227 18.1368 27.7849 16.7312 29.5459C16.5765 29.7396 16.3469 29.8587 16.0993 29.8734C15.8519 29.8882 15.6097 29.7972 15.4331 29.6232C15.1054 29.3001 14.7656 28.9668 14.4164 28.6242C12.2419 26.4909 9.69633 23.9935 7.35964 21.3382C4.65396 18.2636 2.16599 14.9098 0.842026 11.5776C0.42298 10.523 0.222587 9.39388 0.253011 8.25909C0.283435 7.1243 0.544036 6.00754 1.019 4.97697C1.49389 3.94657 2.17314 3.02388 3.01547 2.26511C6.40991 -0.800327 11.6397 -0.276447 14.7802 2.87364L16.0473 4.14467L17.613 2.57421C18.4137 1.77113 19.3692 1.13994 20.4215 0.719321ZM23.6857 1.87739C22.7916 1.85328 21.902 2.01212 21.0711 2.34429C20.2401 2.67647 19.4851 3.17508 18.8523 3.8098L16.667 6.00177C16.5028 6.16644 16.2798 6.25893 16.0473 6.25893C15.8148 6.25893 15.5918 6.16644 15.4277 6.00177L13.5409 4.10914C10.9679 1.52836 6.79824 1.20663 4.18803 3.56419L4.18706 3.56507C3.52122 4.1647 2.98401 4.89437 2.60834 5.70952C2.23266 6.52458 2.02645 7.40807 2.00238 8.30599C1.97831 9.20383 2.13689 10.0972 2.46835 10.9314C3.67961 13.9799 6.00715 17.1523 8.67336 20.1821C10.964 22.7851 13.4587 25.2328 15.6356 27.3687C15.7507 27.4816 15.8649 27.5937 15.9782 27.7049C17.3111 26.1211 18.8717 24.5042 20.4434 22.8757C21.3767 21.9087 22.3139 20.9376 23.2097 19.967C25.9026 17.0493 28.2835 14.0782 29.5044 10.9376C30.4109 8.60533 30.0915 5.94227 28.4095 4.06863L28.4086 4.06767C27.8107 3.39969 27.0835 2.86113 26.2715 2.48458C25.4595 2.10808 24.5796 1.90151 23.6857 1.87739Z" fill="#007A8F"/>
<path fill-rule="evenodd" clip-rule="evenodd" d="M18.5459 6.71875L11.5981 15.7012C11.3757 15.9888 11.5807 16.4064 11.9442 16.4064H15.9049L14.5686 23.1878L21.5163 14.2053C21.7387 13.9178 21.5337 13.5002 21.1703 13.5002H17.2095L18.5459 6.71875Z" fill="#007A8F"/>
</svg>
