<svg width="20" height="31" viewBox="0 0 20 31" fill="none" xmlns="http://www.w3.org/2000/svg">
<path d="M9.83885 29.9991C6.89246 29.9991 3.94607 29.9991 0.999678 29.9983C0.266522 29.9983 0.0453709 29.7418 0.00578742 29.0104C-0.0948924 27.1422 1.1322 25.7869 2.58044 25.4031C3.04769 25.2792 3.52011 25.3007 3.99081 25.3119C4.24811 25.318 4.40042 25.2388 4.52863 25.009C5.1155 23.9583 5.72732 22.9206 6.31764 21.8707C6.519 21.5136 6.79436 21.3613 7.20826 21.363C8.2056 21.3682 9.20551 21.4525 10.1985 21.2546C12.6174 20.7727 14.4357 18.8865 14.8591 16.4426C15.2007 14.4695 14.7679 12.7115 13.484 11.1686C13.2138 10.8442 13.2043 10.8459 12.9883 11.215C12.7284 11.6608 12.4755 12.1108 12.2104 12.554C11.9213 13.0376 11.4867 13.1563 11.0023 12.8775C9.27779 11.8862 7.55505 10.8915 5.83661 9.89157C5.26953 9.56113 5.16455 9.161 5.49068 8.59478C6.70831 6.4805 7.92937 4.36709 9.15216 2.25539C9.47743 1.69434 9.87671 1.59194 10.4524 1.90431C11.004 2.20376 11.004 2.20376 11.3258 1.64443C11.5513 1.2529 11.7716 0.858785 12.0039 0.471555C12.2922 -0.00947088 12.731 -0.129942 13.2138 0.144561C14.0364 0.611818 14.8565 1.08424 15.6714 1.56354C16.2032 1.87591 16.3116 2.27433 16.0139 2.81473C15.7437 3.30436 15.47 3.79227 15.1723 4.26469C15.0295 4.49186 15.0776 4.60889 15.3005 4.70699C15.3788 4.74141 15.4511 4.78874 15.526 4.83263C16.1326 5.18457 16.2376 5.58557 15.8822 6.19998C15.5483 6.7791 15.5569 6.76878 16.0552 7.19989C18.0541 8.93296 19.2417 11.1101 19.6143 13.7329C19.8879 15.657 19.6005 17.5002 18.8432 19.2789C18.6729 19.6799 18.6694 19.6782 18.2891 19.4932C18.0283 19.3658 17.7719 19.2273 17.5051 19.1145C17.278 19.019 17.2289 18.9003 17.3339 18.6679C17.9053 17.4013 18.1634 16.0666 18.0791 14.682C17.9251 12.1659 16.895 10.0706 14.9864 8.41235C14.7851 8.23767 14.6723 8.25058 14.557 8.49496C14.4469 8.7273 14.3152 8.95189 14.1724 9.16616C14.0545 9.34256 14.076 9.46132 14.2283 9.60932C15.544 10.8829 16.3581 12.4309 16.5362 14.2483C16.815 17.0966 15.9442 19.5293 13.6931 21.3846C13.4676 21.5704 13.4478 21.6832 13.5933 21.9267C14.1887 22.9232 14.7722 23.9282 15.3332 24.9445C15.4924 25.2336 15.6791 25.3334 15.9975 25.3128C17.0284 25.2448 17.9277 25.5675 18.666 26.2955C19.5196 27.1371 19.7709 28.1852 19.665 29.3426C19.6332 29.6928 19.3286 29.9664 18.9697 29.994C18.8097 30.006 18.647 30 18.4861 30C15.6025 30 12.7207 29.9991 9.83885 29.9991ZM11.1072 11.0644C11.2398 11.0722 11.2647 10.9638 11.3095 10.8855C12.1966 9.34945 13.0752 7.80913 13.9753 6.28087C14.1397 6.00206 14.1173 5.87557 13.829 5.71465C12.7216 5.0968 11.6244 4.46002 10.5333 3.81292C10.2898 3.66835 10.1788 3.69761 10.0385 3.94544C9.15646 5.49608 8.26153 7.03984 7.36144 8.58101C7.24527 8.77979 7.28055 8.86584 7.47416 8.97599C8.63327 9.63428 9.78463 10.3046 10.9394 10.9715C10.9954 11.0034 11.0522 11.0343 11.1072 11.0644ZM9.84573 28.4046C10.8241 28.4046 11.8017 28.4046 12.7801 28.4046C14.4133 28.4046 16.0474 28.4046 17.6807 28.4037C18.0326 28.4037 18.0662 28.359 17.9225 28.0372C17.6531 27.4374 17.2031 27.0648 16.5439 26.9486C16.0836 26.8677 15.6215 26.9039 15.1611 26.9039C11.3241 26.9004 7.48707 26.9022 3.65005 26.9013C2.81966 26.9013 2.16309 27.2042 1.78791 27.9821C1.6072 28.3564 1.63904 28.4029 2.04348 28.4029C4.64394 28.4046 7.24441 28.4046 9.84573 28.4046ZM13.6122 25.2732C13.6139 25.2508 13.6242 25.225 13.6156 25.2104C13.1079 24.3249 12.5976 23.442 12.0925 22.5557C12.0245 22.4361 11.9445 22.4198 11.8266 22.4662C10.541 22.9748 9.19777 23.0643 7.83644 23.0126C7.6127 23.004 7.48019 23.0892 7.37348 23.2803C7.05595 23.8534 6.72552 24.4187 6.40111 24.9884C6.22298 25.2999 6.22642 25.3059 6.59816 25.3059C8.85356 25.3068 11.1098 25.3068 13.3652 25.3059C13.4478 25.3059 13.5365 25.3326 13.6122 25.2732ZM14.1913 2.74675C14.2042 2.61681 14.1707 2.57378 14.1225 2.54711C13.7783 2.35177 13.4461 1.98778 13.0847 2.01359C12.7878 2.0351 12.7173 2.54108 12.5245 2.81817C12.423 2.96446 12.4582 3.06944 12.6157 3.15549C12.8799 3.29919 13.1363 3.45667 13.3979 3.60468C13.4702 3.64512 13.5769 3.72601 13.6311 3.64598C13.8419 3.3362 14.0287 3.01178 14.1913 2.74675Z" fill="#007A8F"/>
<path d="M7.45523 16.7068C7.34767 16.7154 7.19192 16.6431 7.04219 16.5562C6.20577 16.0726 5.36677 15.5925 4.53552 15.0994C4.09322 14.8369 3.97102 14.4136 4.22229 13.967C4.76958 12.9937 5.33837 12.0317 5.89082 11.061C5.99322 10.8812 6.09649 10.8459 6.27547 10.9577C6.56718 11.1393 6.86492 11.3123 7.16954 11.4706C7.38639 11.5833 7.39844 11.7047 7.27969 11.9052C6.90623 12.5325 6.55514 13.1736 6.17737 13.7983C6.04744 14.0134 6.06034 14.1399 6.29096 14.2552C6.52072 14.3705 6.74961 14.4953 6.95872 14.6442C7.18503 14.8051 7.28657 14.7139 7.40016 14.5082C7.74953 13.8792 8.12213 13.2631 8.46891 12.6323C8.59455 12.4034 8.7133 12.3466 8.94392 12.4989C9.221 12.6822 9.5153 12.8414 9.80873 12.998C9.98858 13.0935 10.029 13.1959 9.9206 13.3809C9.3561 14.3447 8.80193 15.3145 8.24174 16.2809C8.08427 16.5536 7.8459 16.6956 7.45523 16.7068Z" fill="#007A8F"/>
<path d="M2.54516 15.4909C2.59162 15.5141 2.6596 15.5451 2.725 15.5813C4.67062 16.656 6.61451 17.7343 8.56443 18.8013C8.7873 18.9235 8.82861 19.0388 8.69609 19.2531C8.51624 19.5456 8.35016 19.8468 8.19183 20.1514C8.1032 20.3227 8.01026 20.3562 7.83644 20.2599C5.85554 19.1601 3.8712 18.0656 1.88773 16.9719C1.74488 16.8927 1.6726 16.8084 1.76897 16.6414C1.96173 16.3058 2.14244 15.9651 2.33089 15.6269C2.37133 15.5537 2.41006 15.4694 2.54516 15.4909Z" fill="#007A8F"/>
</svg>
