<svg width="100" height="113" viewBox="0 0 100 113" fill="none" xmlns="http://www.w3.org/2000/svg">
<path d="M23.9664 101.84C23.9664 100.277 23.8934 98.7065 23.9908 97.1442C24.0719 95.8807 23.6174 95.3087 22.4728 94.916C15.3293 92.4573 9.76057 87.8814 5.96964 81.0004C3.33141 76.2111 1.78095 71.0119 1.07472 65.5652C-0.500104 53.3571 -0.467633 41.166 2.00012 29.0773C3.22588 23.0672 5.57188 17.5436 9.46022 12.8482C12.277 9.4333 15.8731 7.18802 19.7371 5.40375C26.2475 2.39867 33.1474 1.06687 40.1935 0.375355C45.3239 -0.128338 50.4623 -0.0515034 55.5845 0.179C64.1568 0.57171 72.4936 2.12548 80.4164 5.84768C88.1119 9.45891 93.0393 15.5715 95.7749 23.8099C97.7394 29.7176 98.6485 35.8302 99.0463 42.0538C99.5902 50.6166 99.0869 59.1111 97.8855 67.5714C96.9601 74.0938 94.7846 80.1382 90.7826 85.3288C87.3326 89.8022 82.9491 92.8585 77.8025 94.7111C70.3262 97.4089 62.6063 98.6553 54.7241 99.0821C50.6084 99.3041 46.5253 99.1078 42.434 98.937C41.7115 98.9029 41.2488 99.1504 40.8105 99.6968C38.294 102.796 35.7613 105.886 33.2124 108.96C32.2951 110.069 31.3372 111.154 30.0952 111.879C27.7411 113.254 25.3221 112.281 24.4454 109.6C23.6174 107.064 24.0638 104.426 23.9664 101.84ZM27.8142 108.114C28.1308 107.867 28.2444 107.807 28.3337 107.705C32.563 102.77 36.841 97.8869 40.9891 92.8842C42.3041 91.3048 43.6192 90.545 45.7216 90.6389C54.9757 91.0487 64.0918 90.0071 73.0131 87.2752C76.8527 86.0971 80.2946 84.236 83.152 81.2565C87.1865 77.0392 89.297 71.7973 90.2143 66.0262C91.4482 58.2403 91.9109 50.4032 91.367 42.5063C90.9855 36.9913 90.19 31.5702 88.3148 26.3796C86.5939 21.6073 84.0531 17.4753 79.7101 14.8715C75.9923 12.6433 72.0065 11.1663 67.8422 10.2016C59.5784 8.27224 51.2173 7.98198 42.8155 8.45152C37.0196 8.77593 31.3616 9.84308 25.8822 11.9091C18.0324 14.8715 12.8453 20.4719 10.3856 28.881C9.10304 33.2605 8.40493 37.734 8.2101 42.3014C7.87728 50.13 7.6094 57.9501 9.13551 65.6933C11.1487 75.9123 16.1897 83.5957 25.8741 87.1643C27.4732 87.7533 27.871 88.5644 27.8466 90.2206C27.7573 96.0941 27.8142 101.976 27.8142 108.114Z" fill="white"/>
<path d="M64.5593 79.9327C63.7232 79.9583 62.9602 79.6937 62.2052 79.3692C53.7548 75.7409 46.1323 70.7296 39.6382 63.9767C31.9184 55.9603 26.0818 46.6548 22.5182 35.8041C21.3898 32.3806 22.0961 29.6658 24.7099 27.4291C25.8951 26.4132 27.1127 25.4228 28.3791 24.5094C30.7007 22.819 33.0386 23.0581 34.93 25.2692C37.3166 28.0523 39.5002 31.0232 41.278 34.293C41.6595 34.9845 41.9518 35.7443 42.1953 36.5041C42.7392 38.1688 42.52 39.6885 41.2049 40.9093C40.3282 41.7288 39.4272 42.5228 38.5424 43.3253C37.4546 44.3241 37.1299 45.562 37.4384 47.0475C38.4855 52.0844 41.4485 55.7725 45.0446 59.0081C47.1876 60.9375 49.5417 62.4913 52.2936 63.3194C53.7223 63.7548 54.8669 63.3791 55.7761 62.1754C56.3118 61.4668 56.8314 60.7497 57.3671 60.0496C58.8039 58.1544 60.8821 57.5397 62.9277 58.6154C66.8242 60.6814 70.2092 63.5328 73.4075 66.6147C74.4385 67.6136 74.9743 69.0393 74.4385 70.5247C73.026 74.486 70.6232 77.585 66.9378 79.4546C66.2072 79.8303 65.3873 79.9754 64.5593 79.9327Z" fill="white"/>
<path d="M73.3263 49.2074C73.0909 50.0014 73.7322 51.299 72.6201 51.4015C71.3862 51.5125 71.8245 50.1209 71.7677 49.4123C71.4998 45.7499 71.0452 42.1386 69.5354 38.7921C65.7931 30.5025 59.5182 26.0119 50.8324 25.2436C50.3859 25.2009 49.9313 25.2265 49.4849 25.1753C48.941 25.107 48.3159 25.0131 48.3727 24.2362C48.4214 23.5703 48.9816 23.5105 49.493 23.4764C50.7593 23.391 52.0176 23.5959 53.2595 23.8093C64.0316 25.7046 71.9869 34.7028 73.0178 46.134C73.1152 47.1756 73.2289 48.2086 73.3263 49.2074Z" fill="white"/>
<path d="M67.0356 46.9195C67.0356 47.0134 67.0437 47.1073 67.0356 47.2012C66.9788 47.8415 67.1492 48.7208 66.2807 48.7635C65.3877 48.8062 65.4445 47.9184 65.4283 47.2866C65.3877 45.6731 65.266 44.0681 64.7789 42.5229C62.9118 36.6237 59.0397 33.1832 53.2356 32.1075C52.57 31.988 51.8962 31.8941 51.2387 31.7746C50.7516 31.6807 50.3539 31.416 50.4351 30.8355C50.5162 30.2464 50.9789 30.144 51.466 30.1867C58.504 30.733 64.5597 34.9419 66.4755 42.8558C66.7921 44.1791 66.9057 45.5536 67.1168 46.911C67.0924 46.911 67.06 46.9195 67.0356 46.9195Z" fill="white"/>
<path d="M53.5688 37.1445C57.6276 37.3323 60.8909 41.0033 60.8178 45.2634C60.8097 45.7841 60.8259 46.4074 60.1927 46.5098C59.3972 46.6464 59.4053 45.9122 59.2917 45.3829C59.0969 44.5036 59.0238 43.5901 58.7397 42.7535C58.0334 40.6618 56.5398 39.4666 54.5104 38.98C54.1613 38.8946 53.7879 38.8861 53.447 38.7922C52.9112 38.6385 52.1319 38.6471 52.2943 37.7507C52.4079 37.0079 53.0898 37.1701 53.5688 37.1445Z" fill="white"/>
</svg>
