<svg width="20" height="20" viewBox="0 0 20 20" fill="none" xmlns="http://www.w3.org/2000/svg">
<path fill-rule="evenodd" clip-rule="evenodd" d="M10 1.75C7.88655 1.75 5.96026 2.54373 4.50019 3.85053C4.19154 4.12678 3.71739 4.10051 3.44115 3.79187C3.1649 3.48322 3.19117 3.00907 3.49981 2.73283C5.22428 1.1894 7.50333 0.25 10 0.25C15.3848 0.25 19.75 4.61522 19.75 10C19.75 15.3848 15.3848 19.75 10 19.75C4.61522 19.75 0.25 15.3848 0.25 10C0.25 9.25639 0.333382 8.53134 0.49161 7.83403C0.58327 7.43009 0.985037 7.17693 1.38898 7.26859C1.79293 7.36025 2.04608 7.76202 1.95442 8.16597C1.82074 8.7551 1.75 9.36883 1.75 10C1.75 14.5563 5.44365 18.25 10 18.25C14.5563 18.25 18.25 14.5563 18.25 10C18.25 5.44365 14.5563 1.75 10 1.75ZM10 4.24997C10.4142 4.24997 10.75 4.58576 10.75 4.99997V5.00996C10.75 5.42418 10.4142 5.75996 10 5.75996C9.58579 5.75996 9.25 5.42418 9.25 5.00996V4.99997C9.25 4.58576 9.58579 4.24997 10 4.24997ZM10 7.25C10.4142 7.25 10.75 7.58579 10.75 8L10.75 15C10.75 15.4142 10.4142 15.75 10 15.75C9.58579 15.75 9.25 15.4142 9.25 15L9.25 8C9.25 7.58579 9.58579 7.25 10 7.25Z" fill="#0E3449"/>
</svg>
