<svg width="50" height="50" viewBox="0 0 50 50" fill="none" xmlns="http://www.w3.org/2000/svg">
<circle cx="25" cy="25" r="25" fill="#007A8F"/>
<path d="M25.4674 19.296C28.411 19.296 31.3546 19.296 34.2982 19.296C34.9187 19.296 35.1086 19.4447 35.197 20.0542C35.4944 22.1086 35.7814 24.1645 36.0736 26.2203C36.3357 28.0664 36.5815 29.9155 36.8649 31.7579C37.2344 34.1612 35.4921 36.5719 33.094 36.9421C32.8474 36.9804 32.6016 36.9988 32.3528 36.9988C27.7537 36.998 23.1539 37.0032 18.5549 36.9966C15.7659 36.9929 13.646 34.4946 14.0494 31.7306C14.4373 29.0675 14.8016 26.4007 15.1778 23.7353C15.3537 22.4891 15.5311 21.2437 15.7151 19.999C15.7931 19.4734 16.0147 19.296 16.5542 19.2953C19.5251 19.2953 22.4959 19.296 25.4674 19.296ZM25.4608 20.66C22.7565 20.66 20.0521 20.6614 17.3485 20.6563C17.1365 20.6556 17.0055 20.6872 16.9716 20.9353C16.7942 22.2551 16.605 23.5734 16.4188 24.8924C16.1111 27.0661 15.8012 29.239 15.4935 31.4127C15.4177 31.9493 15.3346 32.4851 15.4457 33.0284C15.7637 34.5837 17.0732 35.6326 18.7264 35.6334C23.2055 35.6363 27.6853 35.6348 32.1651 35.6334C32.4786 35.6334 32.79 35.5988 33.094 35.5222C34.536 35.16 35.6401 33.827 35.498 32.3041C35.3354 30.5588 35.0431 28.8261 34.8002 27.0889C34.5176 25.0698 34.2261 23.0515 33.942 21.0324C33.8897 20.6637 33.8956 20.6592 33.5187 20.6592C30.8327 20.66 28.1468 20.66 25.4608 20.66Z" fill="white"/>
<path d="M25.4373 17.5684C22.1632 17.5684 18.8891 17.5684 15.615 17.5677C15.0968 17.5677 14.8083 17.2873 14.8384 16.8235C14.8598 16.4952 15.1086 16.2376 15.4376 16.2096C15.5473 16.2001 15.6584 16.2052 15.7688 16.2052C19.3094 16.2052 22.8507 16.2052 26.3912 16.2052C26.7585 16.2052 26.7585 16.2052 26.7593 15.8467C26.7593 15.8283 26.7571 15.8099 26.7593 15.7915C26.8086 15.369 26.7409 15.0643 26.2919 14.8177C25.6662 14.4739 25.4859 13.5995 25.7854 12.9355C26.0887 12.262 26.8152 11.8859 27.5322 12.0309C28.2565 12.1774 28.7747 12.8082 28.7872 13.5413C28.7953 14.0227 28.6157 14.4173 28.2749 14.7463C28.216 14.803 28.1321 14.8464 28.1313 14.9392C28.1269 15.316 28.1218 15.6929 28.1313 16.0698C28.1357 16.2339 28.28 16.2023 28.3845 16.203C28.9182 16.2059 29.4511 16.2045 29.9848 16.2045C31.769 16.2045 33.5533 16.203 35.3376 16.2059C35.78 16.2067 36.0582 16.4592 36.0707 16.8559C36.084 17.2976 35.8028 17.567 35.3162 17.567C32.4838 17.5684 29.6506 17.5677 26.8182 17.5684C26.3566 17.5692 25.8973 17.5692 25.4373 17.5684Z" fill="white"/>
<path d="M25.2518 13.5826C25.2518 14.4519 24.568 15.1379 23.7001 15.1394C22.8073 15.1408 22.1234 14.4644 22.1227 13.5803C22.122 12.6912 22.8006 12.0103 23.6883 12.0095C24.5731 12.0095 25.2518 12.6919 25.2518 13.5826Z" fill="white"/>
<path d="M29.4504 32.296C29.1633 32.3195 29.1758 32.1333 29.1501 32.0015C29.0124 31.2986 28.8851 30.5934 28.7526 29.8897C28.4258 28.157 28.0982 26.4242 27.7692 24.6922C27.6926 24.2874 27.6889 24.2881 28.0938 24.2145C28.3286 24.1718 28.5671 24.1416 28.7975 24.082C29.0021 24.029 29.0787 24.1019 29.1147 24.297C29.3091 25.354 29.5122 26.4088 29.711 27.465C29.9789 28.8908 30.2454 30.3174 30.514 31.7439C30.5773 32.081 30.5803 32.0803 30.2292 32.148C29.9502 32.201 29.6705 32.254 29.4504 32.296Z" fill="white"/>
<path d="M21.3321 32.2996C21.0377 32.2415 20.6859 32.1767 20.3355 32.1016C20.1647 32.0648 20.2045 31.9345 20.2273 31.8138C20.4415 30.6766 20.6535 29.5393 20.8669 28.4021C21.1194 27.0573 21.3778 25.7139 21.6222 24.3669C21.6678 24.1144 21.7532 24.0143 22.0211 24.0901C22.2677 24.16 22.5253 24.1917 22.7793 24.2307C22.9854 24.2624 23.0457 24.3507 23.0038 24.5693C22.6696 26.3006 22.3487 28.0348 22.0233 29.7675C21.8813 30.5257 21.7421 31.2846 21.5964 32.042C21.5751 32.1561 21.5898 32.3202 21.3321 32.2996Z" fill="white"/>
</svg>
