<svg width="19" height="26" viewBox="0 0 19 26" fill="none" xmlns="http://www.w3.org/2000/svg">
<path d="M16.7479 3.82218C16.7479 4.23764 16.789 4.65785 16.7384 5.06619C16.6529 5.75941 16.2746 6.29911 15.7001 6.69004C15.5355 6.80241 15.5236 6.88867 15.64 7.0414C16.0744 7.61355 16.3822 8.25613 16.6315 8.92482C16.7186 9.15906 16.8499 9.25798 17.085 9.31338C18.7357 9.70035 19.3744 11.621 18.2862 12.9093C17.9839 13.267 17.5986 13.5075 17.1412 13.6073C16.9402 13.6508 16.8381 13.7449 16.7763 13.9372C16.0887 16.0715 14.7347 17.6368 12.7222 18.6213C12.3883 18.7843 12.5204 19.0494 12.4991 19.2844C12.4809 19.4823 12.6518 19.487 12.7816 19.5187C14.809 20.022 16.3997 21.8025 16.7083 23.8956C16.774 24.3396 16.7542 24.7827 16.7692 25.2267C16.7763 25.438 16.6845 25.5037 16.4867 25.4973C16.1899 25.4878 15.8924 25.4831 15.5972 25.4989C15.3527 25.5124 15.2933 25.4016 15.2989 25.1816C15.3171 24.4828 15.2356 23.7983 14.942 23.1549C14.487 22.1594 13.7842 21.4211 12.7325 21.0436C12.507 20.9629 12.4049 21.004 12.3187 21.2406C11.8525 22.5242 10.6964 23.3393 9.37561 23.3393C8.08254 23.3393 6.91767 22.5139 6.45948 21.2438C6.3661 20.9858 6.24344 20.9597 6.01949 21.0444C4.78735 21.5097 4.04427 22.419 3.65493 23.6456C3.49824 24.1394 3.45946 24.6545 3.47846 25.1705C3.48716 25.4103 3.41198 25.5124 3.16033 25.4981C2.85487 25.4815 2.54703 25.4918 2.24078 25.4934C2.10388 25.4942 2.02237 25.4546 2.00971 25.2955C1.79604 22.6611 3.43018 20.2973 5.6341 19.6041C5.70928 19.5804 5.78525 19.5574 5.86201 19.5392C6.28222 19.4364 6.36056 19.3058 6.27984 18.8816C6.24898 18.721 6.12078 18.6925 6.0092 18.6387C4.41463 17.8663 3.21335 16.6927 2.40617 15.1156C2.2028 14.7183 2.03345 14.3068 1.90841 13.8795C1.85935 13.7117 1.77547 13.6175 1.60295 13.5598C0.597934 13.2258 -0.0319829 12.3601 0.00125393 11.3812C0.0352821 10.3833 0.694479 9.57136 1.71691 9.28884C1.87755 9.24453 1.96776 9.17568 2.02158 9.01504C2.29301 8.19994 2.71243 7.4624 3.24184 6.78896C3.36213 6.63544 3.34393 6.55947 3.20861 6.4289C2.733 5.96833 2.48373 5.40172 2.48373 4.73303C2.48373 4.11973 2.47977 3.50643 2.48452 2.89313C2.49718 1.13158 4.27693 -0.00717276 5.88179 0.72562C6.49351 1.00497 7.09573 1.3041 7.69874 1.60165C7.86334 1.68316 8.02794 1.72035 8.21074 1.71956C9.15008 1.71481 10.0902 1.71402 11.0295 1.71956C11.2234 1.72035 11.3967 1.68078 11.57 1.59452C12.1366 1.3128 12.7064 1.03662 13.277 0.764396C14.7639 0.0553441 16.4566 0.902091 16.7312 2.52041C16.8025 2.94299 16.7423 3.38773 16.7423 3.82218C16.7439 3.82218 16.7463 3.82218 16.7479 3.82218ZM2.83904 10.7291C2.65862 10.7291 2.53042 10.7378 2.4038 10.7275C1.891 10.6872 1.52856 10.9594 1.50957 11.4057C1.49058 11.8655 1.8087 12.1599 2.32941 12.1654C2.83746 12.1702 3.06458 12.353 3.18091 12.8491C3.19911 12.9259 3.21573 13.0035 3.23472 13.0802C3.54256 14.3464 4.17168 15.4266 5.14742 16.2891C6.50301 17.4873 8.08729 18.027 9.89791 17.8734C11.54 17.7349 12.9074 17.0417 14.0193 15.8341C14.8019 14.9834 15.2815 13.9792 15.5308 12.8563C15.6479 12.33 15.8916 12.1527 16.4345 12.1702C16.5136 12.1725 16.5927 12.1781 16.6719 12.1733C17.0486 12.1504 17.3137 11.8758 17.3255 11.5007C17.3414 11.0069 17.0106 10.7354 16.4369 10.771C15.8172 10.8106 15.5901 10.6523 15.4342 10.0572C15.2759 9.45028 15.0306 8.87734 14.7133 8.34001C14.3793 7.77499 13.9924 7.22183 13.3949 6.92824C12.7499 6.6117 12.052 6.40436 11.3809 6.14005C11.2123 6.07358 11.1293 6.11552 11.0675 6.28091C10.8934 6.74623 10.6529 7.1791 10.349 7.57161C10.2287 7.72751 10.2635 7.81139 10.4218 7.88973C10.5278 7.94196 10.6267 8.00923 10.732 8.06383C11.6508 8.5426 12.6431 8.74835 13.664 8.83698C13.8911 8.85676 13.986 8.93036 13.9663 9.16064C13.9393 9.4756 13.9235 9.79135 13.9101 10.1071C13.9029 10.2804 13.8301 10.3564 13.6497 10.3406C12.1042 10.2029 10.6267 9.84991 9.32813 8.94935C9.16828 8.83856 9.05749 8.85043 8.90872 8.96202C8.55261 9.23028 8.16168 9.44395 7.75809 9.63308C6.18488 10.3706 4.50721 10.6444 2.83904 10.7291ZM3.56234 9.16698C4.19226 9.12978 4.7644 9.03007 5.32943 8.89633C6.40567 8.64152 7.42572 8.25613 8.30175 7.55816C8.76153 7.19176 9.15483 6.76522 9.43734 6.2453C9.47691 6.1725 9.58374 6.03164 9.38907 6.04034C8.86282 6.0625 8.33578 5.96358 7.80874 6.15588C6.88523 6.49062 6.00604 6.96622 5.01526 7.10946C4.96224 7.11737 4.90606 7.15773 4.8657 7.19809C4.31096 7.75679 3.88125 8.39857 3.56234 9.16698ZM7.19306 3.10442C7.17249 2.97543 7.07278 2.9604 6.9976 2.924C6.43811 2.65177 5.88021 2.37638 5.31598 2.11444C4.64333 1.80186 4.00233 2.16509 3.96039 2.90738C3.92636 3.50801 3.93111 4.1134 3.9596 4.71483C3.9873 5.31072 4.48189 5.72301 5.01922 5.59244C5.73935 5.41676 6.40883 5.08597 7.10443 4.83353C7.15983 4.81375 7.21918 4.78209 7.21285 4.71008C7.20573 4.61591 7.12896 4.61195 7.05853 4.61037C6.88048 4.6072 6.70243 4.60166 6.52516 4.60879C6.3479 4.61591 6.27668 4.53915 6.27984 4.36268C6.28617 4.03664 6.28697 3.7106 6.27984 3.38456C6.27589 3.20572 6.35344 3.1432 6.52754 3.14004C6.74832 3.13529 6.97465 3.17881 7.19306 3.10442ZM12.063 3.09176C12.1406 3.17723 12.2458 3.13766 12.3384 3.14004C12.6249 3.14558 12.9114 3.14716 13.1971 3.14083C13.3727 3.13687 13.4479 3.20651 13.444 3.38456C13.4368 3.7106 13.4376 4.03585 13.444 4.36188C13.4471 4.53756 13.3775 4.61195 13.1994 4.60879C12.8932 4.60245 12.5869 4.60404 12.2815 4.61037C12.192 4.61195 12.0583 4.56526 12.0401 4.7077C12.0259 4.82008 12.1469 4.8359 12.2253 4.86598C12.8148 5.09309 13.4012 5.32812 13.9971 5.53625C14.6611 5.76812 15.2522 5.3764 15.2894 4.66418C15.3203 4.08333 15.3226 3.49852 15.2886 2.91767C15.2474 2.20149 14.6072 1.81135 13.956 2.09941C13.3514 2.36688 12.7642 2.67235 12.1707 2.96356C12.1216 2.9881 12.0607 3.01105 12.063 3.09176ZM11.028 19.8629C11.028 19.703 11.0177 19.5835 11.0303 19.4664C11.0517 19.2646 10.9583 19.233 10.785 19.2638C9.85438 19.4324 8.92217 19.4387 7.98996 19.2733C7.83248 19.2456 7.74147 19.2915 7.74701 19.4696C7.7573 19.8138 7.73118 20.1581 7.79291 20.5023C7.92269 21.2256 8.53124 21.7883 9.25612 21.8357C10.034 21.8864 10.7462 21.3997 10.9457 20.6717C11.0216 20.3947 11.0454 20.109 11.028 19.8629ZM9.61539 4.56526C9.8528 4.56526 10.0902 4.56051 10.3276 4.56684C10.493 4.57159 10.5579 4.49958 10.5547 4.33656C10.5484 4.03031 10.5484 3.72326 10.5539 3.41701C10.5571 3.25716 10.5001 3.18039 10.3308 3.18277C9.85597 3.18831 9.38115 3.18673 8.90713 3.18356C8.75519 3.18277 8.69347 3.25003 8.69584 3.39881C8.6998 3.70506 8.70455 4.01211 8.69347 4.31836C8.68635 4.52015 8.77893 4.57634 8.96253 4.56843C9.18015 4.55893 9.39777 4.56605 9.61539 4.56526Z" fill="#007A8F"/>
</svg>
