<svg width="18" height="14" viewBox="0 0 18 14" fill="none" xmlns="http://www.w3.org/2000/svg">
<path fill-rule="evenodd" clip-rule="evenodd" d="M0.75 2.00008C0.75 1.12563 1.45888 0.416748 2.33333 0.416748H15.6667C16.5411 0.416748 17.25 1.12563 17.25 2.00008V12.0001C17.25 12.8745 16.5411 13.5834 15.6667 13.5834H14C13.5858 13.5834 13.25 13.2476 13.25 12.8334C13.25 12.4192 13.5858 12.0834 14 12.0834H15.6667C15.7127 12.0834 15.75 12.0461 15.75 12.0001V2.97741L10.7088 8.01857C9.76507 8.96233 8.23493 8.96233 7.29116 8.01857L2.25 2.97741V12.0001C2.25 12.0461 2.28731 12.0834 2.33333 12.0834H10.6667C11.0809 12.0834 11.4167 12.4192 11.4167 12.8334C11.4167 13.2476 11.0809 13.5834 10.6667 13.5834H2.33333C1.45888 13.5834 0.75 12.8745 0.75 12.0001V2.00008ZM3.31066 1.91675L8.35182 6.95791C8.7098 7.31589 9.2902 7.31589 9.64818 6.95791L14.6893 1.91675H3.31066Z" fill="#007A8F"/>
</svg>
